# 3ds Max Wavefront OBJ Exporter v0.97b - (c)2007 guruware
# File Created: 19.11.2010 17:09:20

mtllib Terrakin_FreighterMK2_LOD2.mtl

#
# object Freighter_LOD_2
#

v  3.980042 -1.278133 -2.655099
v  3.980042 -0.188622 -1.573237
v  -1.867531 -0.188622 -1.573237
v  -1.867531 -1.278133 -2.655099
v  -5.509144 1.183661 0.006132
v  -7.267538 1.183661 0.006132
v  -7.267538 0.904718 0.489276
v  -5.509144 0.904718 0.489276
v  -5.543420 1.281234 0.861282
v  -5.543420 1.758135 0.446660
v  -5.543420 1.758135 -0.434396
v  -5.543420 1.281234 -0.849018
v  6.813631 1.281234 -0.849018
v  6.813631 1.758135 -0.434396
v  6.813631 1.758135 0.446660
v  6.813631 1.281234 0.861282
v  3.980042 1.087131 -2.848991
v  -1.867531 1.087131 -2.848991
v  -5.543420 -0.179396 -0.849018
v  -5.543420 -0.179396 0.861282
v  -0.403028 1.691803 2.168195
v  -0.043038 1.691803 2.168195
v  -0.043038 1.079085 2.595530
v  -0.403028 1.079085 2.595530
v  3.980042 -0.002379 -3.930853
v  -1.867531 -0.002379 -3.930853
v  -0.403028 1.898237 0.038252
v  -0.403028 1.687828 0.038252
v  -0.403028 1.902211 2.211025
v  8.601573 -0.002379 -3.930853
v  8.601573 1.087131 -2.848991
v  8.601573 -0.188622 -1.573237
v  8.601573 -1.278133 -2.655099
v  -0.403028 1.079085 2.848767
v  -6.489062 1.087131 -2.848991
v  -6.489062 -0.002379 -3.930853
v  -6.489062 -1.278133 -2.655099
v  -6.489062 -0.188622 -1.573237
v  -0.043038 1.898237 0.038252
v  -0.043038 1.902211 2.211025
v  6.813631 -0.179396 -0.849018
v  6.813631 -0.179396 0.861282
v  -7.258125 -1.056925 0.006132
v  -7.258125 -0.179396 -0.849018
v  -7.258125 1.281234 -0.849018
v  -9.775385 1.758135 0.446660
v  -9.775385 1.758135 -0.434396
v  -9.775385 1.281234 -0.849018
v  -9.775385 1.281234 0.861282
v  -7.258125 1.758135 -0.434396
v  -7.258125 1.758135 0.446660
v  -9.775385 -1.056925 0.006132
v  -9.775385 -0.179396 -0.849018
v  -0.403025 1.691803 -2.168196
v  -0.403025 1.687828 0.038252
v  -0.403025 1.898237 0.038252
v  -0.403025 1.902211 -2.211025
v  -0.403025 1.079085 -2.595529
v  -0.403025 1.079085 -2.848767
v  -0.043038 1.079085 -2.595529
v  -0.043038 1.691803 -2.168196
v  -0.043038 1.079085 -2.848767
v  -0.043038 1.902211 -2.211025
v  -6.489062 -0.188622 1.573238
v  -1.867531 -0.188622 1.573238
v  -1.867531 -1.278132 2.655099
v  -6.489062 -1.278132 2.655099
v  8.601573 -1.278132 2.655099
v  3.980042 -1.278132 2.655099
v  3.980042 -0.188622 1.573238
v  8.601573 -0.188622 1.573238
v  -0.043038 1.687828 0.038252
v  -9.779184 -0.811325 -0.213266
v  -9.779184 -1.384872 -0.786813
v  -8.097095 -1.384872 -0.786813
v  -7.339116 -0.811325 -0.213266
v  8.601573 1.087131 2.848992
v  3.980042 1.087131 2.848992
v  3.980042 -0.002379 3.930852
v  8.601573 -0.002379 3.930852
v  -1.867531 -0.002379 3.930852
v  -6.489062 -0.002379 3.930852
v  -1.867531 1.087131 2.848992
v  -6.489062 1.087131 2.848992
v  -9.779184 -0.785613 -1.386072
v  -8.097095 -0.785613 -1.386072
v  -7.339116 -0.212066 -0.812526
v  -10.865370 -0.031142 1.975455
v  -10.865370 1.132980 1.975455
v  -10.865370 1.132980 0.861282
v  -10.865370 -0.031142 0.861282
v  -8.554807 1.132980 1.975455
v  -7.513627 1.132980 0.861282
v  -7.513627 -0.031142 0.861282
v  -0.043038 1.079085 2.848767
v  -7.258125 1.281234 0.861282
v  -7.258125 -0.179396 0.861282
v  -9.779184 -0.212066 -0.812526
v  -9.779183 -0.785613 1.398337
v  -9.779183 -1.384872 0.799077
v  -8.097094 -1.384872 0.799077
v  -8.097094 -0.785613 1.398337
v  -7.339115 -0.811325 0.225531
v  -7.339115 -0.212066 0.824790
v  -9.779183 -0.811325 0.225531
v  -9.779183 -0.212066 0.824790
v  -8.554807 -0.031142 -1.963191
v  -10.865370 -0.031142 -1.963191
v  -10.865370 1.132980 -1.963191
v  -8.554807 1.132980 -1.963191
v  -9.775385 -0.179396 0.861282
v  -5.509144 0.346830 0.489276
v  -7.267538 0.346830 0.489276
v  -7.267538 0.067887 0.006132
v  -5.509144 0.067887 0.006132
v  6.759504 0.067887 0.006132
v  8.517898 0.067887 0.006132
v  8.517898 0.346831 0.489276
v  6.759504 0.346831 0.489276
v  10.102894 1.463186 -0.627534
v  10.456276 1.463186 -0.320299
v  10.456276 -0.402104 -0.320299
v  10.102894 -0.402104 -0.627534
v  -5.509144 0.346830 -0.477012
v  -7.267538 0.346830 -0.477012
v  -7.267538 0.904717 -0.477012
v  -5.509144 0.904717 -0.477012
v  8.472594 -0.402104 -0.627534
v  8.472594 1.463186 -0.627534
v  8.472594 1.463186 0.639798
v  10.102894 1.463186 0.639798
v  10.456276 -0.402104 0.332563
v  10.102894 -0.402104 0.639798
v  10.456276 1.463186 0.332563
v  8.472594 -0.402104 0.639798
v  -7.513627 -0.031142 -0.849018
v  -7.513627 1.132980 -0.849018
v  -10.865370 -0.031142 -0.849018
v  -10.865370 1.132980 -0.849018
v  -8.554807 -0.031142 1.975455
v  6.759504 0.346831 -0.477012
v  8.517898 0.346831 -0.477012
v  6.759504 0.904718 -0.477012
v  8.517898 0.904718 -0.477012
v  6.759504 1.183662 0.006132
v  8.517898 1.183662 0.006132
v  6.759504 0.904718 0.489276
v  8.517898 0.904718 0.489276
# 148 vertices

vn 0.000000 -0.999998 0.001761
vn 0.000000 0.001761 0.999998
vn 0.000000 1.000000 -0.000000
vn 0.000000 0.500000 0.866025
vn -0.636116 0.270243 0.722721
vn -0.624600 0.710640 0.323827
vn -0.624601 0.710640 -0.323827
vn -0.636116 0.270243 -0.722721
vn 0.636116 0.270243 -0.722721
vn 0.624600 0.710641 -0.323827
vn 0.624601 0.710640 0.323827
vn 0.636116 0.270243 0.722721
vn 0.000000 0.999998 -0.001761
vn -0.577350 -0.577350 -0.577350
vn -0.577350 -0.577350 0.577350
vn -0.827643 -0.497840 -0.259157
vn 0.827643 -0.497840 -0.259157
vn 0.811298 -0.334441 -0.479526
vn -0.811298 -0.334441 -0.479526
vn 0.000000 -0.001761 -0.999998
vn -0.707518 0.706694 -0.001293
vn -0.706686 -0.707526 0.001320
vn -0.620013 0.704803 0.344726
vn 0.577536 -0.001438 -0.816364
vn 0.577165 0.816626 -0.001438
vn 0.577536 0.001438 0.816364
vn 0.577165 -0.816626 0.001438
vn -0.501949 0.529717 0.683700
vn -0.577165 0.816626 -0.001438
vn -0.577536 -0.001438 -0.816364
vn -0.577165 -0.816626 0.001438
vn -0.577536 0.001438 0.816364
vn 0.707518 0.706694 -0.001293
vn 0.620013 0.704803 0.344726
vn 0.577350 -0.577350 -0.577350
vn 0.577350 -0.577350 0.577350
vn 0.576004 -0.817447 0.000000
vn 0.631332 -0.292143 -0.718382
vn 0.636116 0.270243 -0.722720
vn -0.624601 0.710640 0.323827
vn -0.624600 0.710641 -0.323827
vn -0.576004 -0.817447 0.000000
vn -0.631332 -0.292143 -0.718382
vn -0.827634 -0.497843 0.259179
vn -0.706701 -0.707511 -0.001275
vn -0.707504 0.706708 0.001249
vn -0.620018 0.704789 -0.344746
vn -0.811298 -0.334440 0.479526
vn -0.501949 0.529718 -0.683700
vn 0.811298 -0.334440 0.479526
vn 0.827634 -0.497843 0.259179
vn 0.501950 0.529717 -0.683700
vn 0.620018 0.704789 -0.344746
vn -0.577536 0.001438 -0.816364
vn 0.000000 0.001761 -0.999998
vn 0.000000 -0.999998 -0.001761
vn -0.577165 -0.816626 -0.001438
vn 0.577165 -0.816626 -0.001438
vn 0.577536 0.001438 -0.816364
vn 0.706701 -0.707511 -0.001275
vn 0.707504 0.706708 0.001249
vn -0.577350 -0.000000 0.816497
vn -0.577350 -0.816496 -0.000000
vn 0.310099 -0.948725 -0.061319
vn 0.767399 -0.151746 0.622954
vn 0.577165 0.816626 0.001439
vn 0.000000 0.999998 0.001762
vn 0.000000 -0.001761 0.999998
vn 0.577536 -0.001438 0.816364
vn -0.577536 -0.001438 0.816364
vn -0.577165 0.816626 0.001439
vn -0.577350 0.000000 -0.816497
vn 0.310099 -0.061319 -0.948725
vn 0.767399 0.622954 -0.151746
vn -0.577350 0.577350 0.577350
vn -0.577350 0.577350 -0.577350
vn 0.310099 0.627490 0.714209
vn 0.767399 0.547795 -0.333194
vn 0.767399 -0.547795 -0.333194
vn 0.501949 0.529717 0.683700
vn 0.631332 -0.292143 0.718382
vn -0.577350 0.816497 0.000000
vn -0.577350 -0.816496 0.000000
vn 0.310099 -0.948725 0.061319
vn 0.310099 -0.061319 0.948725
vn 0.767399 -0.151746 -0.622953
vn 0.767399 0.622954 0.151746
vn -0.577350 -0.000000 -0.816497
vn -0.577350 0.816497 -0.000000
vn 0.310099 -0.627490 -0.714209
vn 0.310099 0.627490 -0.714209
vn -0.631332 -0.292143 0.718382
vn 0.000000 -0.500000 0.866025
vn 0.000000 -1.000000 -0.000000
vn 0.000000 -1.000000 0.000000
vn 0.270244 0.636116 -0.722720
vn 0.710641 0.624601 -0.323826
vn 0.710641 -0.624601 -0.323826
vn 0.270244 -0.636116 -0.722720
vn 0.000000 -0.500000 -0.866025
vn 0.000000 0.500000 -0.866025
vn 0.270244 0.636116 0.722720
vn 0.710641 -0.624601 0.323826
vn 0.270244 -0.636116 0.722720
vn 0.710641 0.624601 0.323826
vn 0.767399 -0.547795 0.333194
vn 0.767400 0.547795 0.333194
vn 0.706686 -0.707526 0.001320
vn 0.310099 -0.627490 0.714209
vn -0.000000 0.500000 -0.866025
vn -0.000000 1.000000 0.000000
vn 0.000000 0.499999 0.866026
vn -0.000000 0.500000 0.866025
# 113 vertex normals

vt 0.858402 0.003687 0.000000
vt 0.858402 0.195628 0.000000
vt 0.548880 0.195628 0.000000
vt 0.548880 0.003687 0.000000
vt 0.638509 0.595185 0.000000
vt 0.479106 0.595185 0.000000
vt 0.479106 0.555044 0.000000
vt 0.638509 0.555044 0.000000
vt 0.167279 0.132907 0.000000
vt 0.166995 0.120341 0.000000
vt 0.179246 0.120341 0.000000
vt 0.190169 0.132907 0.000000
vt 0.190246 0.132714 0.000000
vt 0.179287 0.120109 0.000000
vt 0.166994 0.120109 0.000000
vt 0.167279 0.132714 0.000000
vt 0.189757 0.194885 0.000000
vt 0.167279 0.194517 0.000000
vt 0.698447 0.424348 0.000000
vt 0.698447 0.442875 0.000000
vt 0.777376 0.442875 0.000000
vt 0.777376 0.424348 0.000000
vt 0.868677 0.409220 0.000000
vt 0.885292 0.424639 0.000000
vt 0.991964 0.424348 0.000000
vt 0.995346 0.408929 0.000000
vt 0.637622 0.623762 0.000000
vt 0.637622 0.648103 0.000000
vt 0.018190 0.648103 0.000000
vt 0.018190 0.623762 0.000000
vt 0.190239 0.222464 0.000000
vt 0.190779 0.375758 0.000000
vt 0.010648 0.375758 0.000000
vt 0.010108 0.222464 0.000000
vt 0.801364 0.424696 0.000000
vt 0.812399 0.409220 0.000000
vt 0.885352 0.424696 0.000000
vt 0.009879 0.176447 0.000000
vt 0.010419 0.023153 0.000000
vt 0.190550 0.023153 0.000000
vt 0.190010 0.176447 0.000000
vt 0.732537 0.424348 0.000000
vt 0.732537 0.442875 0.000000
vt 0.880312 0.442875 0.000000
vt 0.880312 0.424348 0.000000
vt 0.620912 0.434073 0.000000
vt 0.620912 0.457441 0.000000
vt 0.000000 0.457441 0.000000
vt 0.000000 0.434073 0.000000
vt 0.141140 0.994231 0.000000
vt 0.141140 0.965528 0.000000
vt 0.549325 0.965528 0.000000
vt 0.549325 0.994231 0.000000
vt 0.018190 0.549211 0.000000
vt 0.637622 0.549211 0.000000
vt 0.189834 0.194813 0.000000
vt 0.178724 0.132907 0.000000
vt 0.772329 0.965426 0.000000
vt 0.956400 0.965426 0.000000
vt 0.956400 0.935956 0.000000
vt 0.772329 0.935956 0.000000
vt 0.405934 0.988909 0.000000
vt 0.535560 0.988909 0.000000
vt 0.535560 0.967518 0.000000
vt 0.405934 0.967518 0.000000
vt 0.956400 0.912906 0.000000
vt 0.772859 0.912906 0.000000
vt 0.772859 0.964999 0.000000
vt 0.956400 0.964999 0.000000
vt 0.998103 0.442875 0.000000
vt 0.998103 0.424348 0.000000
vt 0.550022 0.003881 0.000000
vt 0.857261 0.003881 0.000000
vt 0.857261 0.195434 0.000000
vt 0.550022 0.195434 0.000000
vt 0.857134 0.171389 0.000000
vt 0.550421 0.171389 0.000000
vt 0.956400 0.845696 0.000000
vt 0.772329 0.845696 0.000000
vt 0.958182 0.739715 0.000000
vt 0.958182 0.804539 0.000000
vt 0.699106 0.804539 0.000000
vt 0.582362 0.739715 0.000000
vt 0.698335 0.669003 0.000000
vt 0.958182 0.669003 0.000000
vt 0.698335 0.804539 0.000000
vt 0.581243 0.669003 0.000000
vt 0.581243 0.804539 0.000000
vt 0.014659 0.868891 0.000000
vt 0.014659 0.986230 0.000000
vt 0.126963 0.986230 0.000000
vt 0.126963 0.868891 0.000000
vt 0.125757 0.984970 0.000000
vt 0.015866 0.984970 0.000000
vt 0.015866 0.870152 0.000000
vt 0.125757 0.870152 0.000000
vt 0.173121 0.120341 0.000000
vt 0.178762 0.132714 0.000000
vt 0.551027 0.648103 0.000000
vt 0.532257 0.648103 0.000000
vt 0.532257 0.549026 0.000000
vt 0.551027 0.549026 0.000000
vt 0.637622 0.549026 0.000000
vt 0.514918 0.549026 0.000000
vt 0.514918 0.648103 0.000000
# 105 texture coords

g Freighter_LOD_2
usemtl 01___Default
s 1
f -148/-105/-113 -147/-104/-112 -146/-103/-112 -145/-102/-113 
f -144/-101/-111 -143/-100/-111 -142/-99/-110 -141/-98/-110 
f -140/-97/-109 -139/-96/-108 -138/-95/-107 -137/-94/-106 
f -136/-93/-105 -135/-92/-104 -134/-91/-103 -133/-90/-102 
f -147/-105/-112 -132/-104/-101 -131/-103/-101 -146/-102/-112 
f -137/-94/-106 -130/-89/-100 -129/-88/-99 -140/-97/-109 
f -128/-87/-98 -127/-86/-97 -126/-85/-96 -125/-84/-95 
f -124/-105/-94 -148/-104/-113 -145/-103/-113 -123/-102/-94 
f -122/-83/-93 -121/-82/-92 -128/-81/-98 -120/-80/-91 
f -123/-105/-94 -131/-104/-101 -132/-103/-101 -124/-102/-94 
f -137/-79/-106 -138/-78/-107 -135/-77/-104 -136/-76/-105 
f -119/-75/-90 -118/-74/-89 -117/-73/-88 -116/-72/-87 
f -120/-71/-91 -128/-70/-98 -125/-83/-95 -115/-69/-86 
f -114/-68/-85 -113/-67/-84 -112/-66/-83 -111/-65/-82 
f -110/-64/-81 -122/-63/-93 -120/-62/-91 -109/-61/-80 
f -134/-60/-103 -135/-59/-104 -138/-58/-107 -139/-57/-108 
f -108/-56/-79 -107/-55/-78 -129/-54/-99 -130/-53/-100 
f -136/-76/-105 -108/-52/-79 -130/-51/-100 -137/-79/-106 
f -133/-90/-102 -107/-88/-78 -108/-50/-79 -136/-93/-105 
f -106/-88/-77 -105/-89/-76 -104/-49/-75 
f -103/-91/-74 -102/-92/-73 -101/-93/-106 -100/-90/-109 
f -102/-48/-73 -99/-47/-104 -104/-46/-75 -101/-45/-106 
f -99/-95/-104 -98/-96/-103 -104/-49/-75 
f -99/-44/-104 -102/-43/-73 -103/-42/-74 -98/-41/-103 
f -106/-40/-77 -97/-39/-72 -96/-38/-71 -105/-37/-76 
f -95/-81/-70 -94/-82/-69 -93/-83/-68 -92/-80/-67 
f -91/-83/-66 -95/-70/-70 -92/-71/-67 -90/-69/-65 
f -89/-85/-64 -88/-86/-63 -95/-87/-70 -91/-84/-66 
f -87/-69/-62 -86/-71/-61 -88/-70/-63 -89/-83/-64 
f -90/-36/-65 -92/-62/-67 -86/-61/-61 -87/-35/-62 
f -114/-34/-85 -131/-33/-101 -123/-32/-94 -113/-31/-84 
f -119/-34/-90 -124/-33/-94 -132/-32/-101 -118/-31/-89 
f -85/-34/-60 -84/-33/-59 -83/-32/-58 -82/-31/-57 
f -81/-34/-56 -80/-33/-58 -79/-32/-59 -78/-31/-55 
f -88/-30/-63 -77/-30/-54 -94/-29/-69 -95/-29/-70 
f -86/-80/-61 -110/-83/-53 -77/-82/-54 -88/-81/-63 
f -92/-62/-67 -93/-63/-68 -110/-64/-53 -86/-61/-61 
f -105/-28/-76 -96/-27/-71 -101/-45/-106 -104/-46/-75 
f -76/-26/-52 -75/-25/-51 -74/-24/-50 -73/-23/-49 
f -96/-50/-71 -97/-88/-72 -100/-90/-109 -101/-93/-106 
f -72/-34/-48 -71/-33/-47 -70/-32/-46 -69/-31/-45 
f -82/-34/-57 -83/-33/-58 -68/-32/-46 -67/-31/-44 
f -134/-77/-103 -139/-78/-108 -140/-79/-109 -133/-76/-102 
f -67/-34/-44 -68/-33/-46 -66/-32/-47 -65/-31/-43 
f -69/-34/-45 -70/-33/-46 -80/-32/-58 -81/-31/-56 
f -65/-34/-43 -66/-33/-47 -84/-32/-59 -85/-31/-60 
f -129/-51/-99 -107/-52/-78 -133/-76/-102 -140/-79/-109 
f -78/-34/-55 -79/-33/-59 -71/-32/-47 -72/-31/-48 
f -74/-22/-50 -75/-21/-51 -64/-25/-42 -63/-20/-41 
f -73/-19/-49 -74/-22/-50 -63/-20/-41 -62/-18/-40 
f -61/-17/-99 -60/-16/-39 -59/-15/-38 -58/-14/-100 
f -60/-25/-39 -57/-24/-37 -56/-23/-36 -59/-26/-38 
f -56/-25/-36 -55/-21/-35 -58/-19/-100 -59/-18/-38 
f -84/-34/-59 -79/-33/-59 -80/-32/-58 -83/-31/-58 
f -116/-34/-87 -148/-33/-113 -124/-32/-94 -119/-31/-90 
f -118/-34/-89 -132/-33/-101 -147/-32/-112 -117/-31/-88 
f -127/-70/-97 -109/-71/-80 -54/-69/-34 -126/-83/-96 
f -66/-34/-47 -71/-33/-47 -79/-32/-59 -84/-31/-59 
f -109/-61/-80 -120/-62/-91 -115/-36/-86 -54/-35/-34 
f -53/-94/-102 -52/-89/-33 -106/-88/-77 -104/-97/-75 
f -112/-34/-83 -145/-33/-113 -146/-32/-112 -111/-31/-82 
f -51/-13/-32 -64/-12/-42 -75/-11/-51 -76/-10/-52 
f -62/-23/-40 -63/-24/-41 -64/-25/-42 -51/-26/-32 
f -76/-19/-52 -73/-21/-49 -62/-25/-40 -51/-18/-32 
f -50/-25/-52 -49/-21/-31 -48/-22/-30 -47/-20/-29 
f -47/-20/-29 -48/-22/-30 -46/-19/-28 -45/-18/-27 
f -48/-24/-30 -49/-25/-31 -44/-26/-26 -46/-23/-28 
f -49/-11/-31 -50/-12/-52 -43/-13/-25 -44/-10/-26 
f -50/-25/-52 -47/-24/-29 -45/-23/-27 -43/-26/-25 
f -45/-25/-27 -46/-21/-28 -44/-19/-26 -43/-18/-25 
f -42/-22/-24 -41/-21/-100 -40/-25/-38 -39/-20/-23 
f -53/-46/-102 -98/-47/-103 -103/-48/-74 -100/-45/-109 
f -104/-97/-75 -98/-9/-103 -53/-94/-102 
f -117/-34/-88 -147/-33/-112 -148/-32/-113 -116/-31/-87 
f -38/-38/-22 -97/-39/-72 -106/-40/-77 -52/-37/-33 
f -100/-45/-109 -38/-27/-22 -52/-28/-33 -53/-46/-102 
f -100/-8/-109 -97/-88/-72 -38/-50/-22 
f -37/-101/-21 -36/-100/-21 -35/-99/-20 -34/-98/-20 
f -33/-101/-19 -32/-100/-20 -31/-99/-21 -30/-98/-21 
f -29/-7/-18 -28/-6/-17 -27/-5/-16 -26/-4/-15 
f -141/-101/-110 -142/-100/-110 -36/-99/-21 -37/-98/-21 
f -25/-101/-14 -24/-100/-14 -23/-99/-13 -22/-98/-13 
f -34/-101/-20 -35/-100/-20 -24/-99/-14 -25/-98/-14 
f -26/-4/-15 -21/-3/-100 -20/-78/-38 -29/-7/-18 
f -22/-101/-13 -23/-100/-13 -143/-99/-111 -144/-98/-111 
f -20/-88/-38 -19/-89/-39 -18/-94/-12 -29/-97/-18 
f -27/-91/-16 -17/-92/-11 -16/-93/-10 -26/-90/-15 
f -17/-5/-11 -15/-6/-9 -18/-7/-12 -16/-4/-10 
f -15/-95/-9 -28/-96/-17 -29/-97/-18 -18/-94/-12 
f -15/-6/-9 -17/-5/-11 -27/-2/-16 -28/-1/-17 
f -20/-40/-38 -21/-39/-100 -14/-38/-99 -19/-37/-39 
f -19/-78/-39 -14/-3/-99 -16/-4/-10 -18/-7/-12 
f -14/-50/-99 -21/-88/-100 -26/-90/-15 -16/-93/-10 
f -13/-19/-8 -42/-22/-24 -39/-20/-23 -12/-18/-7 
f -11/-26/-99 -41/-25/-100 -42/-24/-24 -13/-23/-8 
f -77/-82/-6 -110/-83/-81 -109/-80/-80 -127/-81/-97 
f -83/-34/-58 -80/-33/-58 -70/-32/-46 -68/-31/-46 
f -10/-15/-39 -40/-16/-38 -41/-17/-100 -11/-14/-99 
f -12/-23/-7 -39/-24/-23 -40/-25/-38 -10/-26/-39 
f -11/-19/-99 -13/-21/-8 -12/-25/-7 -10/-18/-39 
f -60/-25/-39 -61/-21/-99 -9/-22/-5 -57/-20/-37 
f -57/-20/-37 -9/-22/-5 -55/-19/-35 -56/-18/-36 
f -9/-24/-5 -61/-25/-99 -58/-26/-100 -55/-23/-35 
f -8/-101/-14 -7/-100/-14 -32/-99/-20 -33/-98/-19 
f -6/-101/-4 -5/-100/-13 -7/-99/-14 -8/-98/-14 
f -4/-101/-3 -3/-100/-3 -5/-99/-13 -6/-98/-4 
f -2/-101/-2 -1/-100/-1 -3/-99/-3 -4/-98/-3 
f -30/-101/-21 -31/-100/-21 -1/-99/-1 -2/-98/-2 
f -121/-29/-92 -77/-30/-6 -127/-30/-97 -128/-29/-98 
f -71/-34/-47 -66/-33/-47 -68/-32/-46 -70/-31/-46 
f -111/-34/-82 -146/-33/-112 -131/-32/-101 -114/-31/-85 
f -78/-73/-55 -72/-74/-48 -69/-75/-45 -81/-72/-56 
f -113/-34/-84 -123/-33/-94 -145/-32/-113 -112/-31/-83 
f -82/-66/-57 -67/-67/-44 -65/-68/-43 -85/-65/-60 
# 110 polygons - 4 triangles

