# 3ds Max Wavefront OBJ Exporter v0.97b - (c)2007 guruware
# File Created: 22.02.2011 16:46:23

mtllib Fighter_Lod1.mtl

#
# object Med
#

v  -0.000038 12.360673 -3.719459
v  -0.000038 8.954364 -36.722141
v  -10.714869 6.705679 -36.722134
v  -16.702557 6.705688 -3.719470
v  -19.004490 -5.099611 -3.719467
v  -13.016755 -5.099618 -36.722153
v  -10.714868 -6.705621 -36.722130
v  -16.702557 -6.705612 -3.719468
v  10.714791 6.705667 -36.722149
v  10.714746 -6.705633 -36.722149
v  -0.000037 -9.297047 -36.722137
v  13.016683 -5.099633 -36.722149
v  13.016682 5.099660 -36.722149
v  19.004417 5.099662 -3.719469
v  19.004419 -5.099632 -3.719467
v  -0.000037 -12.360629 -3.719454
v  16.702482 -6.705632 -3.719465
v  16.702482 -6.705626 29.378738
v  -0.000037 -12.360623 29.378754
v  19.004417 5.099668 29.378736
v  19.004419 -5.099626 29.378738
v  16.702482 6.705668 -3.719468
v  -0.000038 12.360682 29.378746
v  16.702482 6.705674 29.378738
v  -4.743670 8.216301 54.704708
v  -9.487349 0.000015 54.704723
v  0.000009 0.000010 54.704689
v  9.487366 0.000005 54.704678
v  4.743687 8.216298 54.704685
v  -4.743669 -8.216275 54.704716
v  4.743688 -8.216280 54.704689
v  -5.666324 9.814376 52.688118
v  -11.332612 0.000016 52.688126
v  -5.666323 -9.814337 52.688122
v  5.666342 9.814365 52.688107
v  5.666343 -9.814353 52.688114
v  11.332628 0.000001 52.688107
v  -0.000083 -2.200271 -54.704678
v  -4.394610 -3.725850 -50.096550
v  -4.394611 3.487859 -50.096554
v  -0.000084 1.857581 -54.704678
v  -4.394565 8.267391 -36.722137
v  -4.394564 -8.505365 -36.722134
v  4.394397 3.487857 -50.096561
v  4.394397 -3.725850 -50.096561
v  4.394443 8.267386 -36.722134
v  4.394444 -8.505365 -36.722130
v  -19.004492 5.099689 -3.719468
v  -13.016756 5.099673 -36.722153
v  -16.702557 -6.705606 29.378738
v  -19.004444 5.099695 29.378736
v  -19.004490 -5.099605 29.378740
v  -16.702557 6.705695 29.378736
v  -5.666417 9.814373 28.542467
v  -11.332750 0.000013 28.542475
v  -5.666416 -9.814342 28.542473
v  5.666296 9.814363 28.542463
v  5.666251 -9.814359 28.542467
v  11.332536 -0.000002 28.542459
# 59 vertices

vn 0.000001 0.999394 -0.034821
vn 0.000001 0.823716 -0.567003
vn -0.282592 0.656175 -0.699697
vn -0.456824 0.888575 -0.041787
vn -0.888907 -0.451271 -0.078738
vn -0.645322 -0.358374 -0.674632
vn -0.282983 -0.662386 -0.693660
vn -0.453013 -0.890298 -0.046356
vn 0.282593 0.656174 -0.699698
vn 0.282981 -0.662386 -0.693662
vn 0.000000 -0.828792 -0.559557
vn 0.645323 -0.358378 -0.674628
vn 0.645325 0.358373 -0.674629
vn 0.888907 0.451270 -0.078739
vn 0.888906 -0.451271 -0.078739
vn -0.000001 -0.998949 -0.045834
vn 0.453012 -0.890298 -0.046356
vn 0.331991 -0.657130 0.676729
vn -0.000000 -0.767085 0.641546
vn 0.698206 0.364218 0.616323
vn 0.698205 -0.364218 0.616324
vn 0.456825 0.888575 -0.041787
vn 0.000000 0.767085 0.641546
vn 0.331992 0.657129 0.676729
vn -0.251234 0.435153 0.864594
vn -0.502475 0.000001 0.864592
vn 0.000002 0.000000 1.000000
vn 0.502473 -0.000000 0.864593
vn 0.251235 0.435152 0.864595
vn -0.251234 -0.435153 0.864594
vn 0.251236 -0.435150 0.864595
vn -0.472312 0.818069 0.328152
vn -0.944626 0.000000 0.328150
vn -0.472313 -0.818069 0.328151
vn 0.472314 0.818068 0.328151
vn 0.472314 -0.818068 0.328152
vn 0.944626 -0.000001 0.328148
vn 0.000002 -0.417864 -0.908510
vn -0.718334 -0.552709 -0.422502
vn -0.722699 0.540664 -0.430568
vn 0.000002 0.407688 -0.913121
vn -0.673775 0.695839 -0.248665
vn -0.672480 -0.689683 -0.268529
vn 0.722697 0.540665 -0.430570
vn 0.718333 -0.552710 -0.422503
vn 0.673777 0.695836 -0.248669
vn 0.672481 -0.689680 -0.268533
vn -0.888907 0.451271 -0.078738
vn -0.645322 0.358374 -0.674632
vn -0.331992 -0.657129 0.676729
vn -0.698205 0.364216 0.616325
vn -0.698206 -0.364216 0.616324
vn -0.331995 0.657129 0.676728
vn -0.500000 0.866025 0.000002
vn -1.000000 -0.000001 0.000005
vn -0.500001 -0.866025 0.000003
vn 0.500003 0.866024 -0.000002
vn 0.500000 -0.866026 -0.000002
vn 1.000000 -0.000002 -0.000004
# 59 vertex normals

vt 0.531603 0.884869 0.000000
vt 0.699930 0.884869 0.000000
vt 0.699449 0.966674 0.000000
vt 0.533046 0.966475 0.000000
vt 0.241742 0.204643 0.000000
vt 0.071324 0.204643 0.000000
vt 0.071324 0.186776 0.000000
vt 0.241742 0.186776 0.000000
vt 0.059477 0.883228 0.000000
vt 0.059477 0.784569 0.000000
vt 0.140342 0.765506 0.000000
vt 0.140342 0.899769 0.000000
vt 0.071324 0.318112 0.000000
vt 0.241742 0.318112 0.000000
vt 0.362789 0.965032 0.000000
vt 0.362789 0.884869 0.000000
vt 0.241746 0.204431 0.000000
vt 0.241746 0.318083 0.000000
vt 0.071324 0.318083 0.000000
vt 0.071324 0.204431 0.000000
vt 0.593232 0.936127 0.000000
vt 0.593232 0.832709 0.000000
vt 0.516343 0.832709 0.000000
vt 0.516343 0.936127 0.000000
vt 0.705372 0.341220 0.000000
vt 0.621158 0.195357 0.000000
vt 0.789587 0.195357 0.000000
vt 0.958015 0.195357 0.000000
vt 0.873801 0.341220 0.000000
vt 0.705372 0.049494 0.000000
vt 0.873801 0.049494 0.000000
vt 0.497948 0.845094 0.000000
vt 0.497948 0.923742 0.000000
vt 0.241746 0.335978 0.000000
vt 0.071324 0.335978 0.000000
vt 0.042104 0.871413 0.000000
vt 0.042104 0.796384 0.000000
vt 0.071324 0.186535 0.000000
vt 0.241746 0.186535 0.000000
vt 0.241742 0.335978 0.000000
vt 0.683738 0.371605 0.000000
vt 0.581166 0.193946 0.000000
vt 0.621367 0.195717 0.000000
vt 0.683738 0.016286 0.000000
vt 0.705372 0.050215 0.000000
vt 0.873384 0.341220 0.000000
vt 0.888882 0.371605 0.000000
vt 0.888882 0.016286 0.000000
vt 0.873384 0.050215 0.000000
vt 0.957390 0.195717 0.000000
vt 0.991453 0.193946 0.000000
vt 0.229170 0.439271 0.000000
vt 0.189255 0.426754 0.000000
vt 0.189255 0.485940 0.000000
vt 0.229170 0.472564 0.000000
vt 0.373855 0.927414 0.000000
vt 0.526254 0.927389 0.000000
vt 0.487201 0.967390 0.000000
vt 0.373855 0.967390 0.000000
vt 0.373612 0.967454 0.000000
vt 0.487139 0.967454 0.000000
vt 0.373612 0.927415 0.000000
vt 0.073408 0.525154 0.000000
vt 0.073408 0.387540 0.000000
vt 0.575830 0.914694 0.000000
vt 0.699739 0.914695 0.000000
vt 0.699739 0.965594 0.000000
vt 0.575830 0.965594 0.000000
vt 0.699739 0.914694 0.000000
vt 0.575830 0.914695 0.000000
vt 0.575830 0.855921 0.000000
vt 0.699739 0.855921 0.000000
vt 0.575830 0.805022 0.000000
vt 0.699739 0.805022 0.000000
# 74 texture coords

g Med
usemtl 01___Default
s 1
f -59/-74/-59 -58/-73/-58 -57/-72/-57 -56/-71/-56 
f -55/-70/-55 -54/-69/-54 -53/-68/-53 -52/-67/-52 
f -51/-66/-51 -50/-65/-50 -49/-64/-49 -58/-63/-58 
f -48/-69/-48 -47/-62/-47 -46/-61/-46 -45/-70/-45 
f -44/-74/-44 -43/-71/-43 -42/-60/-42 -41/-59/-41 
f -45/-58/-45 -46/-57/-46 -40/-56/-40 -39/-55/-39 
f -38/-71/-38 -59/-74/-59 -37/-59/-37 -36/-60/-36 
f -37/-54/-37 -41/-53/-41 -42/-52/-42 -36/-51/-36 
f -35/-50/-35 -34/-49/-34 -33/-48/-33 
f -32/-47/-32 -31/-46/-31 -33/-48/-33 
f -30/-45/-30 -29/-44/-29 -33/-48/-33 
f -31/-46/-31 -35/-50/-35 -33/-48/-33 
f -34/-49/-34 -30/-45/-30 -33/-48/-33 
f -29/-44/-29 -32/-47/-32 -33/-48/-33 
f -39/-43/-39 -40/-42/-40 -36/-51/-36 -42/-52/-42 
f -40/-56/-40 -46/-57/-46 -38/-41/-38 -36/-40/-36 
f -47/-39/-47 -48/-38/-48 -50/-65/-50 -51/-66/-51 
f -45/-58/-45 -39/-55/-39 -42/-37/-42 -43/-36/-43 
f -47/-62/-47 -51/-40/-51 -38/-35/-38 -46/-61/-46 
f -49/-73/-49 -50/-72/-50 -43/-71/-43 -44/-74/-44 
f -35/-50/-35 -28/-34/-28 -27/-33/-27 -34/-32/-34 
f -34/-32/-34 -27/-33/-27 -26/-31/-26 -30/-30/-30 
f -31/-29/-31 -25/-28/-25 -28/-34/-28 -35/-50/-35 
f -30/-30/-30 -26/-31/-26 -24/-27/-24 -29/-26/-29 
f -32/-25/-32 -23/-24/-23 -25/-28/-25 -31/-29/-31 
f -29/-26/-29 -24/-27/-24 -23/-24/-23 -32/-25/-32 
f -22/-23/-22 -21/-22/-21 -20/-21/-20 -19/-20/-19 
f -58/-19/-58 -19/-18/-19 -20/-17/-20 -18/-16/-18 
f -17/-15/-17 -21/-14/-21 -22/-18/-22 -49/-13/-49 
f -18/-12/-18 -20/-21/-20 -21/-22/-21 -17/-11/-17 
f -16/-21/-16 -15/-22/-15 -22/-23/-22 -19/-20/-19 
f -16/-17/-16 -19/-18/-19 -58/-19/-58 -14/-16/-14 
f -22/-18/-22 -15/-14/-15 -13/-15/-13 -49/-13/-49 
f -15/-22/-15 -16/-21/-16 -14/-12/-14 -13/-11/-13 
f -51/-72/-51 -58/-73/-58 -59/-74/-59 -38/-71/-38 
f -50/-68/-50 -48/-69/-48 -45/-70/-45 -43/-67/-43 
f -49/-64/-49 -53/-65/-53 -57/-66/-57 -58/-63/-58 
f -12/-61/-12 -11/-62/-11 -54/-69/-54 -55/-70/-55 
f -10/-60/-10 -52/-71/-52 -44/-74/-44 -41/-59/-41 
f -9/-56/-9 -12/-57/-12 -55/-58/-55 -8/-55/-8 
f -37/-59/-37 -59/-74/-59 -56/-71/-56 -7/-60/-7 
f -10/-52/-10 -41/-53/-41 -37/-54/-37 -7/-51/-7 
f -7/-51/-7 -9/-42/-9 -8/-43/-8 -10/-52/-10 
f -56/-41/-56 -12/-57/-12 -9/-56/-9 -7/-40/-7 
f -53/-65/-53 -54/-38/-54 -11/-39/-11 -57/-66/-57 
f -10/-37/-10 -8/-55/-8 -55/-58/-55 -52/-36/-52 
f -28/-10/-28 -6/-9/-6 -5/-8/-5 -27/-7/-27 
f -27/-7/-27 -5/-8/-5 -4/-6/-4 -26/-5/-26 
f -25/-4/-25 -3/-3/-3 -6/-9/-6 -28/-10/-28 
f -26/-5/-26 -4/-6/-4 -2/-3/-2 -24/-4/-24 
f -23/-2/-23 -1/-1/-1 -3/-3/-3 -25/-4/-25 
f -24/-4/-24 -2/-3/-2 -1/-1/-1 -23/-2/-23 
f -56/-35/-56 -57/-40/-57 -11/-62/-11 -12/-61/-12 
f -52/-71/-52 -53/-72/-53 -49/-73/-49 -44/-74/-44 
# 48 polygons - 6 triangles

