# 3ds Max Wavefront OBJ Exporter v0.97b - (c)2007 guruware
# File Created: 22.02.2011 16:46:40

mtllib Fighter_Lod2.mtl

#
# object Low
#

v  -16.702595 -6.705583 29.378738
v  -16.702595 -6.705594 -37.230709
v  16.702446 -6.705615 -37.230717
v  16.702492 -6.705603 29.378738
v  -19.004482 5.099718 29.378736
v  -19.004482 5.099706 -37.230709
v  -19.004482 -5.099594 -37.230709
v  -19.004482 -5.099582 29.378740
v  16.702492 6.705697 29.378738
v  16.702446 6.705686 -37.230721
v  -16.702595 6.705706 -37.230709
v  -16.702549 6.705721 29.378736
v  -4.743708 8.216324 54.704685
v  -9.487386 0.000038 54.704697
v  -0.000028 0.000030 54.704689
v  9.487329 0.000025 54.704678
v  4.743649 8.216319 54.704685
v  -4.743706 -8.216257 54.704689
v  4.743650 -8.216263 54.704689
v  19.004381 -5.099615 -37.230717
v  19.004381 5.099679 -37.230721
v  19.004379 5.099694 29.378736
v  19.004381 -5.099603 29.378738
v  -5.666362 9.814393 52.688118
v  -11.332649 0.000039 52.688126
v  -5.666361 -9.814320 52.688122
v  5.666305 9.814385 52.688107
v  5.666306 -9.814330 52.688114
v  11.332591 0.000022 52.688107
v  -5.666408 9.814390 28.542467
v  -11.332695 0.000033 28.542475
v  -5.666407 -9.814325 28.542473
v  5.666258 9.814383 28.542463
v  5.666259 -9.814336 28.542467
v  11.332545 0.000019 28.542459
# 35 vertices

vn -0.229070 -0.728667 0.645423
vn -0.229071 -0.728667 -0.645423
vn 0.229066 -0.728668 -0.645424
vn 0.229070 -0.728667 0.645423
vn -0.698205 0.364218 0.616324
vn -0.698206 0.364214 -0.616325
vn -0.698207 -0.364215 -0.616324
vn -0.698206 -0.364214 0.616325
vn 0.229071 0.728667 0.645423
vn 0.229067 0.728667 -0.645424
vn -0.229070 0.728667 -0.645423
vn -0.229066 0.728668 0.645424
vn -0.251234 0.435151 0.864595
vn -0.502473 0.000001 0.864593
vn 0.000001 0.000000 1.000000
vn 0.502473 -0.000000 0.864593
vn 0.251235 0.435152 0.864595
vn -0.251234 -0.435151 0.864595
vn 0.251235 -0.435151 0.864595
vn 0.698205 -0.364218 -0.616323
vn 0.698205 0.364217 -0.616324
vn 0.698207 0.364214 0.616324
vn 0.698206 -0.364215 0.616325
vn -0.472313 0.818069 0.328153
vn -0.944625 0.000001 0.328151
vn -0.472313 -0.818068 0.328153
vn 0.472314 0.818068 0.328151
vn 0.472314 -0.818068 0.328152
vn 0.944626 -0.000000 0.328149
vn -0.500001 0.866025 0.000001
vn -1.000000 0.000000 0.000002
vn -0.500002 -0.866024 0.000001
vn 0.500001 0.866025 -0.000001
vn 0.500000 -0.866025 -0.000001
vn 1.000000 -0.000000 -0.000002
# 35 vertex normals

vt 0.362789 0.965032 0.000000
vt 0.533046 0.966475 0.000000
vt 0.531603 0.884869 0.000000
vt 0.362789 0.884869 0.000000
vt 0.071324 0.318083 0.000000
vt 0.241746 0.318083 0.000000
vt 0.241746 0.204431 0.000000
vt 0.071324 0.204431 0.000000
vt 0.516343 0.832709 0.000000
vt 0.593232 0.832709 0.000000
vt 0.593232 0.936127 0.000000
vt 0.516343 0.936127 0.000000
vt 0.497948 0.923742 0.000000
vt 0.497948 0.845094 0.000000
vt 0.241746 0.335978 0.000000
vt 0.071324 0.335978 0.000000
vt 0.059477 0.784569 0.000000
vt 0.042104 0.796384 0.000000
vt 0.042104 0.871413 0.000000
vt 0.059477 0.883228 0.000000
vt 0.071324 0.186535 0.000000
vt 0.241746 0.186535 0.000000
vt 0.705372 0.341220 0.000000
vt 0.621158 0.195357 0.000000
vt 0.789587 0.195357 0.000000
vt 0.958015 0.195357 0.000000
vt 0.873801 0.341220 0.000000
vt 0.705372 0.049494 0.000000
vt 0.873801 0.049494 0.000000
vt 0.140342 0.765506 0.000000
vt 0.140342 0.899769 0.000000
vt 0.683738 0.371606 0.000000
vt 0.581166 0.193946 0.000000
vt 0.621367 0.195717 0.000000
vt 0.683738 0.016286 0.000000
vt 0.705372 0.050215 0.000000
vt 0.873384 0.341220 0.000000
vt 0.888882 0.371606 0.000000
vt 0.888882 0.016286 0.000000
vt 0.873384 0.050215 0.000000
vt 0.957390 0.195717 0.000000
vt 0.991453 0.193946 0.000000
vt 0.575830 0.914694 0.000000
vt 0.699739 0.914695 0.000000
vt 0.699739 0.965594 0.000000
vt 0.575830 0.965594 0.000000
vt 0.699739 0.914694 0.000000
vt 0.575830 0.914695 0.000000
vt 0.575830 0.855921 0.000000
vt 0.699739 0.855921 0.000000
vt 0.575830 0.805022 0.000000
vt 0.699739 0.805022 0.000000
# 52 texture coords

g Low
usemtl 01___Default
s 1
f -35/-52/-35 -34/-51/-34 -33/-50/-33 -32/-49/-32 
f -31/-48/-31 -30/-47/-30 -29/-46/-29 -28/-45/-28 
f -27/-49/-27 -26/-50/-26 -25/-51/-25 -24/-52/-24 
f -35/-44/-35 -32/-43/-32 -27/-42/-27 -24/-41/-24 
f -24/-41/-24 -31/-40/-31 -28/-39/-28 -35/-44/-35 
f -25/-38/-25 -30/-47/-30 -31/-48/-31 -24/-37/-24 
f -34/-36/-34 -29/-35/-29 -30/-34/-30 -25/-33/-25 
f -35/-32/-35 -28/-45/-28 -29/-46/-29 -34/-31/-34 
f -23/-30/-23 -22/-29/-22 -21/-28/-21 
f -20/-27/-20 -19/-26/-19 -21/-28/-21 
f -18/-25/-18 -17/-24/-17 -21/-28/-21 
f -19/-26/-19 -23/-30/-23 -21/-28/-21 
f -22/-29/-22 -18/-25/-18 -21/-28/-21 
f -17/-24/-17 -20/-27/-20 -21/-28/-21 
f -33/-23/-33 -34/-36/-34 -25/-33/-25 -26/-22/-26 
f -16/-46/-16 -15/-47/-15 -14/-48/-14 -13/-45/-13 
f -16/-46/-16 -13/-45/-13 -32/-32/-32 -33/-31/-33 
f -13/-39/-13 -14/-40/-14 -27/-41/-27 -32/-44/-32 
f -15/-34/-15 -16/-35/-16 -33/-36/-33 -26/-33/-26 
f -14/-48/-14 -15/-47/-15 -26/-38/-26 -27/-37/-27 
f -23/-30/-23 -12/-21/-12 -11/-20/-11 -22/-19/-22 
f -22/-19/-22 -11/-20/-11 -10/-18/-10 -18/-17/-18 
f -19/-16/-19 -9/-15/-9 -12/-21/-12 -23/-30/-23 
f -18/-17/-18 -10/-18/-10 -8/-14/-8 -17/-13/-17 
f -20/-12/-20 -7/-11/-7 -9/-15/-9 -19/-16/-19 
f -17/-13/-17 -8/-14/-8 -7/-11/-7 -20/-12/-20 
f -12/-10/-12 -6/-9/-6 -5/-8/-5 -11/-7/-11 
f -11/-7/-11 -5/-8/-5 -4/-6/-4 -10/-5/-10 
f -9/-4/-9 -3/-3/-3 -6/-9/-6 -12/-10/-12 
f -10/-5/-10 -4/-6/-4 -2/-3/-2 -8/-4/-8 
f -7/-2/-7 -1/-1/-1 -3/-3/-3 -9/-4/-9 
f -8/-4/-8 -2/-3/-2 -1/-1/-1 -7/-2/-7 
# 26 polygons - 6 triangles

