# 3ds Max Wavefront OBJ Exporter v0.97b - (c)2007 guruware
# File Created: 22.02.2011 16:44:18

mtllib Mine_Lod0.mtl

#
# object 32
#

v  -4.682265 16.250429 1.816625
v  -4.661732 -0.022048 17.868330
v  4.661730 -0.022048 17.868330
v  4.682261 16.250429 1.816625
v  14.082107 -16.250422 -1.933440
v  -0.000001 -8.096400 -17.868328
v  4.661730 -0.022046 -17.868328
v  18.764370 -8.140507 -1.933439
v  18.764370 -8.140507 1.816623
v  14.082107 -16.250422 1.816623
v  -0.000001 -8.096402 17.868330
v  4.682261 16.250429 -1.933438
v  -4.682265 16.250429 -1.933438
v  -4.661732 -0.022046 -17.868328
v  -18.764370 -8.140507 -1.933439
v  -14.082106 -16.250425 -1.933440
v  -18.764370 -8.140507 1.816623
v  -14.082106 -16.250425 1.816623
# 18 vertices

vn -0.630167 0.716254 0.299784
vn -0.521115 0.300866 0.798698
vn 0.521115 0.300866 0.798698
vn 0.630167 0.716254 0.299784
vn 0.305080 -0.903445 -0.301186
vn 0.000000 -0.601138 -0.799145
vn 0.520601 0.300569 -0.799145
vn 0.934947 0.187515 -0.301185
vn 0.935378 0.187613 0.299783
vn 0.305211 -0.903867 0.299783
vn 0.000000 -0.601732 0.798698
vn 0.629866 0.715930 -0.301185
vn -0.629866 0.715930 -0.301185
vn -0.520601 0.300569 -0.799145
vn -0.934947 0.187515 -0.301185
vn -0.305080 -0.903445 -0.301185
vn -0.935378 0.187613 0.299783
vn -0.305211 -0.903867 0.299783
# 18 vertex normals

vt 0.763245 0.625633 0.000000
vt 0.807197 0.625688 0.000000
vt 0.807197 0.650743 0.000000
vt 0.763245 0.650798 0.000000
vt 0.763337 0.625557 0.000000
vt 0.807197 0.625613 0.000000
vt 0.763337 0.650798 0.000000
vt 0.954002 0.642335 0.000000
vt 0.911432 0.594164 0.000000
vt 0.911432 0.702196 0.000000
vt 0.954002 0.653672 0.000000
vt 0.868907 0.653724 0.000000
vt 0.911432 0.594281 0.000000
vt 0.868907 0.642400 0.000000
vt 0.868861 0.653671 0.000000
vt 0.868861 0.642335 0.000000
vt 0.911582 0.702013 0.000000
vt 0.911582 0.593717 0.000000
vt 0.868907 0.642360 0.000000
vt 0.763277 0.650743 0.000000
vt 0.807197 0.650688 0.000000
vt 0.807197 0.625679 0.000000
vt 0.763277 0.625624 0.000000
vt 0.954256 0.642360 0.000000
vt 0.954256 0.653724 0.000000
vt 0.953956 0.642400 0.000000
vt 0.953956 0.653724 0.000000
vt 0.828960 0.638178 0.000000
vt 0.828961 0.638178 0.000000
vt 0.763277 0.650688 0.000000
vt 0.751725 0.650688 0.000000
vt 0.751725 0.625617 0.000000
vt 0.763277 0.625617 0.000000
vt 0.751720 0.625676 0.000000
vt 0.763337 0.625676 0.000000
vt 0.751720 0.650798 0.000000
# 36 texture coords

g 32
usemtl 01___Default
s 1
f -18/-36/-18 -17/-35/-17 -16/-34/-16 -15/-33/-15 
f -14/-32/-14 -13/-31/-13 -12/-34/-12 -11/-30/-11 
f -11/-29/-11 -12/-28/-12 -16/-27/-16 -10/-26/-10 
f -9/-25/-9 -8/-27/-8 -13/-24/-13 -14/-23/-14 
f -10/-30/-10 -16/-34/-16 -8/-31/-8 -9/-32/-9 
f -15/-22/-15 -16/-27/-16 -12/-28/-12 -7/-21/-7 
f -6/-25/-6 -5/-20/-5 -17/-19/-17 -18/-18/-18 
f -7/-17/-7 -12/-16/-12 -5/-15/-5 -6/-14/-6 
f -4/-30/-4 -5/-34/-5 -13/-31/-13 -3/-32/-3 
f -2/-13/-2 -17/-19/-17 -5/-20/-5 -4/-12/-4 
f -1/-32/-1 -8/-31/-8 -17/-34/-17 -2/-30/-2 
f -3/-11/-3 -13/-24/-13 -8/-27/-8 -1/-10/-1 
f -8/-31/-8 -16/-9/-16 -17/-34/-17 
f -13/-31/-13 -5/-8/-5 -12/-34/-12 
f -15/-7/-15 -7/-6/-7 -6/-5/-6 -18/-4/-18 
f -3/-3/-3 -1/-2/-1 -2/-30/-2 -4/-1/-4 
f -9/-3/-9 -14/-2/-14 -11/-30/-11 -10/-1/-10 
# 15 polygons - 2 triangles

