# 3ds Max Wavefront OBJ Exporter v0.97b - (c)2007 guruware
# File Created: 22.02.2011 16:44:34

mtllib Mine_Lod1.mtl

#
# object 20
#

v  -4.682268 16.250429 -0.058407
v  -4.661732 -0.022048 17.868330
v  4.661730 -0.022048 17.868330
v  4.682258 16.250429 -0.058407
v  14.082112 -16.250422 -0.058408
v  -0.000001 -8.096400 -17.868328
v  4.661730 -0.022046 -17.868328
v  18.764374 -8.140506 -0.058408
v  -0.000001 -8.096402 17.868330
v  -4.661732 -0.022046 -17.868328
v  -18.764366 -8.140507 -0.058408
v  -14.082102 -16.250423 -0.058408
# 12 vertices

vn -0.582978 0.812487 -0.001323
vn -0.529218 0.305544 0.791562
vn 0.529218 0.305544 0.791562
vn 0.582978 0.812487 -0.001323
vn 0.412145 -0.911117 -0.001323
vn -0.000000 -0.610516 -0.792004
vn 0.528723 0.305258 -0.792004
vn 0.995123 0.098630 -0.001323
vn -0.000000 -0.611089 0.791562
vn -0.528723 0.305258 -0.792004
vn -0.995123 0.098630 -0.001323
vn -0.412145 -0.911117 -0.001323
# 12 vertex normals

vt 0.763245 0.625633 0.000000
vt 0.807197 0.625688 0.000000
vt 0.807197 0.650743 0.000000
vt 0.763245 0.650798 0.000000
vt 0.763337 0.625557 0.000000
vt 0.807197 0.625613 0.000000
vt 0.763337 0.650798 0.000000
vt 0.954525 0.647357 0.000000
vt 0.911955 0.593518 0.000000
vt 0.911955 0.701550 0.000000
vt 0.869431 0.647416 0.000000
vt 0.911955 0.593635 0.000000
vt 0.869385 0.647357 0.000000
vt 0.869431 0.647396 0.000000
vt 0.912105 0.701367 0.000000
vt 0.912105 0.593071 0.000000
vt 0.763277 0.650743 0.000000
vt 0.807197 0.650688 0.000000
vt 0.807197 0.625679 0.000000
vt 0.763277 0.625624 0.000000
vt 0.954780 0.647396 0.000000
vt 0.954479 0.647416 0.000000
vt 0.828960 0.638178 0.000000
vt 0.828961 0.638178 0.000000
# 24 texture coords

g 20
usemtl 01___Default
s 1
f -12/-24/-12 -11/-23/-11 -10/-22/-10 -9/-21/-9 
f -8/-20/-8 -7/-19/-7 -6/-22/-6 -5/-18/-5 
f -5/-17/-5 -6/-16/-6 -10/-15/-10 
f -8/-14/-8 -4/-15/-4 -7/-13/-7 
f -5/-18/-5 -10/-22/-10 -4/-19/-4 -8/-20/-8 
f -9/-12/-9 -10/-15/-10 -6/-16/-6 
f -12/-11/-12 -3/-10/-3 -11/-9/-11 
f -9/-8/-9 -6/-7/-6 -3/-6/-3 -12/-5/-12 
f -2/-18/-2 -3/-22/-3 -7/-19/-7 -1/-20/-1 
f -2/-4/-2 -11/-9/-11 -3/-10/-3 
f -1/-20/-1 -4/-19/-4 -11/-22/-11 -2/-18/-2 
f -1/-3/-1 -7/-13/-7 -4/-15/-4 
f -4/-19/-4 -10/-2/-10 -11/-22/-11 
f -7/-19/-7 -3/-1/-3 -6/-22/-6 
# 6 polygons - 8 triangles

