# 3ds Max Wavefront OBJ Exporter v0.97b - (c)2007 guruware
# File Created: 12.02.2011 05:57:01

mtllib Tiny_lod2.mtl

#
# object 129
#

v  14.898754 -29.521784 85.394669
v  8.715007 -29.521801 123.496735
v  8.715014 -37.911278 110.555969
v  14.898760 -37.911259 72.453888
v  11.167421 -23.359724 -90.155167
v  -11.167397 -23.359739 -90.155167
v  -11.167414 17.901192 -90.235718
v  11.167386 17.901207 -90.235718
v  -45.819572 29.938526 85.394707
v  -45.819572 29.938545 46.993431
v  -45.819550 1.009345 46.993427
v  -45.819553 1.009325 85.394684
v  -8.909669 45.213150 124.883064
v  8.909618 45.213165 124.883064
v  8.909615 45.213181 85.394707
v  -8.909671 45.213165 85.394707
v  14.898719 29.938568 85.394707
v  14.898718 29.938580 47.003227
v  8.909615 45.213196 53.726479
v  40.880001 2.464338 9.470111
v  40.880001 2.464314 51.412552
v  14.898734 2.376195 51.412537
v  14.898736 2.376221 -2.497041
v  14.898718 29.938587 46.993431
v  14.898773 -29.521727 -17.842785
v  -14.898735 -29.521755 -17.842766
v  -14.898751 29.938564 46.993443
v  -40.880020 25.735659 9.470120
v  -14.898747 25.735680 -2.497030
v  -14.898731 2.376202 -2.497041
v  -40.880001 2.464286 9.470111
v  -14.898733 2.376177 51.412552
v  -40.880001 2.464263 51.412552
v  -40.880016 25.735638 51.412556
v  -14.898749 25.735655 51.412556
v  40.879986 25.735706 9.470115
v  14.898721 25.735693 -2.497043
v  14.898720 25.735670 51.412556
v  40.879986 25.735683 51.412556
v  45.819546 1.009382 85.394684
v  45.819550 1.009401 46.993427
v  45.819527 29.938606 46.993431
v  45.819527 29.938581 85.394707
v  -14.898747 29.938543 85.394707
v  -14.898713 -29.521786 46.993423
v  -7.707757 17.517847 -121.636284
v  7.707727 17.517859 -121.636284
v  6.968196 -23.359716 -106.645584
v  -6.968183 -23.359724 -106.645584
v  -8.714962 -37.911289 110.555969
v  -8.714968 -29.521814 123.496788
v  -14.898709 -29.521805 85.394669
v  -14.898707 -37.911282 72.453888
v  -14.898725 -45.213165 -40.964046
v  14.898787 -45.213146 -40.964046
v  14.898783 -45.213123 -97.060280
v  14.898723 29.938547 124.883049
v  8.539456 15.129417 125.234589
v  8.539452 15.129425 85.288460
v  -14.898726 -45.213139 -97.060280
v  -8.909671 45.213181 53.726494
v  -14.898751 29.938555 47.003227
v  -14.898746 29.938526 124.883049
v  -8.848731 -16.571756 124.541451
v  -8.848734 -16.571749 85.288445
v  15.531177 -1.012097 125.586136
v  -15.531200 -1.012112 125.586136
v  8.626416 -16.571747 124.541435
v  15.531174 -1.012096 85.182228
v  -15.531199 -1.012112 85.182220
v  -8.761807 15.129407 125.234589
v  -8.761811 15.129414 85.288460
v  8.626412 -16.571739 85.288452
v  14.898753 -29.521759 46.993408
# 74 vertices

vn 0.865209 -0.170561 0.471511
vn 0.604136 -0.386733 0.696747
vn 0.533570 -0.800342 0.273414
vn 0.676173 -0.730493 -0.095758
vn 0.700099 0.172155 -0.692982
vn -0.700100 0.172154 -0.692982
vn -0.567392 0.552208 -0.610845
vn 0.567392 0.552209 -0.610846
vn -0.577351 0.577350 0.577351
vn -0.577351 0.577350 -0.577350
vn -0.716729 -0.299545 -0.629740
vn -0.716729 -0.299546 0.629740
vn -0.450939 0.661173 0.599587
vn 0.450938 0.661173 0.599587
vn 0.563454 0.826147 0.000000
vn -0.563456 0.826146 0.000000
vn 0.756956 0.362574 0.543652
vn 0.931015 0.364980 0.000168
vn 0.459731 0.770550 -0.441476
vn 0.672569 -0.602301 -0.429981
vn 0.708305 -0.705906 -0.000000
vn 0.003392 -0.999994 -0.000001
vn 0.340210 -0.587435 -0.734287
vn 0.345503 0.654535 -0.672466
vn 0.782810 -0.199147 -0.589532
vn -0.782810 -0.199149 -0.589533
vn -0.213515 0.703057 -0.678323
vn -0.671477 0.603508 -0.429996
vn -0.338676 0.587079 -0.735280
vn -0.340209 -0.587435 -0.734287
vn -0.672569 -0.602302 -0.429981
vn -0.003390 -0.999994 -0.000001
vn -0.708304 -0.705907 -0.000000
vn -0.999069 0.025735 -0.034636
vn -0.999012 0.032752 -0.030037
vn -0.707107 0.707106 0.000000
vn -0.000001 1.000000 0.000000
vn 0.671476 0.603509 -0.429996
vn 0.338675 0.587079 -0.735280
vn -0.000001 1.000000 0.000001
vn 0.707106 0.707107 0.000000
vn 0.716729 -0.299545 0.629740
vn 0.716730 -0.299544 -0.629740
vn 0.577350 0.577351 -0.577350
vn 0.577350 0.577350 0.577351
vn -0.756655 0.364975 0.542463
vn -0.564776 -0.788908 -0.242184
vn -0.522333 0.474776 -0.708348
vn 0.522332 0.474776 -0.708348
vn 0.658785 -0.269505 -0.702402
vn -0.658785 -0.269505 -0.702402
vn -0.533569 -0.800344 0.273413
vn -0.600274 -0.392332 0.696955
vn -0.865097 -0.173062 0.470805
vn -0.676172 -0.730494 -0.095758
vn 0.000001 -0.827443 0.561550
vn -0.646582 -0.729194 0.224072
vn 0.646583 -0.729193 0.224072
vn -0.000001 0.996175 -0.087382
vn 0.598319 -0.454978 -0.659553
vn 0.778057 -0.007273 0.628152
vn 0.588937 0.022694 0.807861
vn 0.999995 0.003309 -0.000000
vn -0.598318 -0.454979 -0.659553
vn -0.459747 0.770467 -0.441604
vn -0.603352 0.507379 -0.615250
vn -0.777261 -0.002224 0.629174
vn -0.634341 -0.194620 0.748154
vn -0.997495 -0.031743 0.063213
vn -0.000001 0.999925 -0.012207
vn 0.771182 -0.013175 0.636479
vn -0.769557 -0.013216 0.638442
vn 0.630544 -0.192799 0.751826
vn 0.999990 -0.004421 -0.000000
vn -0.999991 -0.004250 -0.000000
vn -0.593298 0.022879 0.804658
vn -0.999993 0.003804 0.000000
vn 0.997539 -0.030520 0.063117
vn 0.979875 -0.062951 -0.189426
vn 0.993985 -0.000213 -0.109513
vn 0.564777 -0.788907 -0.242184
vn -0.979875 -0.062952 -0.189426
vn -0.993985 -0.000214 -0.109513
vn -0.000000 1.000000 0.000001
vn 0.000001 -0.839096 0.543984
vn 0.999012 0.032753 -0.030037
vn 0.999069 0.025736 -0.034636
vn -0.000001 0.996389 0.084906
# 88 vertex normals

vt 0.231696 0.474557 0.000000
vt 0.405943 0.474557 0.000000
vt 0.346763 0.436190 0.000000
vt 0.172516 0.436190 0.000000
vt 0.440648 0.178871 0.000000
vt 0.440648 0.131129 0.000000
vt 0.312558 0.131129 0.000000
vt 0.312558 0.178871 0.000000
vt 0.091398 0.765997 0.000000
vt 0.091398 0.948579 0.000000
vt 0.141052 0.948579 0.000000
vt 0.141052 0.765997 0.000000
vt 0.634362 0.483503 0.000000
vt 0.634362 0.512859 0.000000
vt 0.737572 0.512859 0.000000
vt 0.737572 0.483503 0.000000
vt 0.634362 0.433174 0.000000
vt 0.734204 0.433174 0.000000
vt 0.713034 0.483621 0.000000
vt 0.634362 0.483621 0.000000
vt 0.756150 0.450751 0.000000
vt 0.557331 0.450751 0.000000
vt 0.557331 0.475722 0.000000
vt 0.756150 0.475722 0.000000
vt 0.743245 0.433683 0.000000
vt 0.728892 0.482310 0.000000
vt 0.695243 0.433683 0.000000
vt 0.111717 0.960998 0.000000
vt 0.111716 0.781765 0.000000
vt 0.047452 0.777458 0.000000
vt 0.047452 0.960998 0.000000
vt 0.594246 0.229843 0.000000
vt 0.628953 0.229843 0.000000
vt 0.628953 0.333748 0.000000
vt 0.594246 0.333630 0.000000
vt 0.756150 0.450011 0.000000
vt 0.557331 0.450011 0.000000
vt 0.449671 0.193164 0.000000
vt 0.449671 0.320717 0.000000
vt 0.238643 0.320717 0.000000
vt 0.238092 0.193171 0.000000
vt 0.296000 0.228000 0.000000
vt 0.396000 0.228000 0.000000
vt 0.396000 0.328000 0.000000
vt 0.296000 0.328000 0.000000
vt 0.164154 0.948579 0.000000
vt 0.047452 0.948579 0.000000
vt 0.047452 0.765594 0.000000
vt 0.164154 0.765594 0.000000
vt 0.047452 0.778473 0.000000
vt 0.326818 0.808519 0.000000
vt 0.212373 0.985797 0.000000
vt 0.281233 0.607851 0.000000
vt 0.310804 0.607851 0.000000
vt 0.310804 0.682990 0.000000
vt 0.281233 0.682990 0.000000
vt 0.270921 0.372879 0.000000
vt 0.326891 0.372879 0.000000
vt 0.326891 0.408944 0.000000
vt 0.270921 0.408944 0.000000
vt 0.238539 0.131129 0.000000
vt 0.238539 0.178649 0.000000
vt 0.450186 0.178649 0.000000
vt 0.450020 0.131129 0.000000
vt 0.180615 0.439890 0.000000
vt 0.247463 0.485257 0.000000
vt 0.409647 0.485257 0.000000
vt 0.409647 0.439890 0.000000
vt 0.737572 0.433174 0.000000
vt 0.634362 0.390845 0.000000
vt 0.737572 0.390845 0.000000
vt 0.459049 0.485530 0.000000
vt 0.438627 0.485530 0.000000
vt 0.438627 0.439967 0.000000
vt 0.459049 0.439967 0.000000
vt 0.332014 0.765997 0.000000
vt 0.184998 0.765997 0.000000
vt 0.184998 0.948579 0.000000
vt 0.332013 0.948579 0.000000
vt 0.405943 0.527466 0.000000
vt 0.231696 0.527466 0.000000
vt 0.319111 0.580616 0.000000
vt 0.319111 0.567474 0.000000
vt 0.230707 0.567474 0.000000
vt 0.230707 0.580616 0.000000
vt 0.595245 0.333634 0.000000
vt 0.595245 0.229843 0.000000
vt 0.238643 0.264279 0.000000
vt 0.321825 0.320717 0.000000
vt 0.291444 0.264279 0.000000
vt 0.714539 0.482310 0.000000
vt 0.743245 0.482310 0.000000
vt 0.772650 0.239466 0.000000
vt 0.865451 0.078265 0.000000
vt 0.912827 0.157770 0.000000
vt 0.865327 0.239124 0.000000
vt 0.691158 0.510836 0.000000
vt 0.691158 0.465445 0.000000
vt 0.804561 0.465445 0.000000
vt 0.804561 0.510836 0.000000
vt 0.478470 0.229844 0.000000
vt 0.478470 0.334372 0.000000
vt 0.181508 0.334372 0.000000
vt 0.181508 0.229844 0.000000
vt 0.692032 0.372913 0.000000
vt 0.692032 0.405847 0.000000
vt 0.804561 0.405847 0.000000
vt 0.804561 0.372913 0.000000
vt 0.726327 0.159056 0.000000
vt 0.773434 0.077312 0.000000
vt 0.521465 0.402770 0.000000
vt 0.521465 0.329005 0.000000
vt 0.442623 0.329005 0.000000
vt 0.442623 0.445212 0.000000
vt 0.232420 0.683385 0.000000
vt 0.281233 0.683385 0.000000
vt 0.232420 0.607851 0.000000
vt 0.741660 0.469622 0.000000
vt 0.640656 0.469622 0.000000
vt 0.640656 0.446520 0.000000
vt 0.741660 0.446520 0.000000
vt 0.468357 0.641031 0.000000
vt 0.469330 0.606955 0.000000
vt 0.440017 0.606955 0.000000
vt 0.440017 0.641031 0.000000
vt 0.630351 0.420905 0.000000
vt 0.592422 0.428582 0.000000
vt 0.568739 0.413228 0.000000
vt 0.052336 0.408944 0.000000
vt 0.052336 0.372878 0.000000
vt 0.091040 0.372879 0.000000
vt 0.091040 0.408944 0.000000
vt 0.404634 0.329005 0.000000
vt 0.404634 0.445212 0.000000
vt 0.413929 0.662645 0.000000
vt 0.385056 0.662645 0.000000
vt 0.365646 0.619111 0.000000
vt 0.413929 0.619111 0.000000
vt 0.358787 0.511254 0.000000
vt 0.386086 0.511254 0.000000
vt 0.386086 0.475013 0.000000
vt 0.358787 0.475013 0.000000
vt 0.386250 0.582497 0.000000
vt 0.413929 0.582497 0.000000
vt 0.462685 0.372879 0.000000
vt 0.462685 0.408944 0.000000
vt 0.021009 0.372878 0.000000
vt 0.021009 0.408944 0.000000
vt 0.713034 0.513437 0.000000
vt 0.634362 0.513437 0.000000
vt 0.386086 0.434476 0.000000
vt 0.358787 0.434476 0.000000
vt 0.113969 0.372879 0.000000
vt 0.113969 0.408944 0.000000
vt 0.258265 0.176640 0.000000
vt 0.258265 0.211288 0.000000
vt 0.459407 0.211114 0.000000
vt 0.459407 0.176465 0.000000
# 158 texture coords

g 129
usemtl 01___Default
s 1
f -74/-158/-88 -73/-157/-87 -72/-156/-86 -71/-155/-85 
f -70/-154/-84 -69/-153/-83 -68/-152/-82 -67/-151/-81 
f -66/-150/-80 -65/-149/-79 -64/-148/-78 -63/-147/-77 
f -62/-146/-76 -61/-145/-75 -60/-144/-74 -59/-143/-73 
f -58/-142/-72 -57/-141/-71 -56/-140/-70 -60/-139/-74 
f -55/-138/-69 -54/-137/-68 -53/-136/-67 -52/-135/-66 
f -51/-134/-65 -56/-133/-70 -57/-132/-71 
f -51/-131/-65 -50/-130/-64 -49/-129/-63 -48/-128/-62 
f -47/-127/-61 -46/-126/-60 -45/-125/-59 -44/-124/-58 
f -44/-123/-58 -45/-135/-59 -43/-136/-57 -42/-122/-56 
f -49/-121/-55 -48/-120/-54 -68/-119/-82 -69/-118/-83 
f -46/-135/-60 -47/-123/-61 -41/-122/-53 -40/-136/-52 
f -39/-138/-51 -38/-135/-50 -37/-136/-49 -36/-137/-48 
f -35/-117/-47 -34/-116/-46 -33/-115/-45 -32/-114/-44 
f -48/-113/-62 -65/-112/-79 -66/-111/-80 -31/-110/-43 
f -49/-109/-63 -30/-108/-42 -48/-107/-62 
f -29/-106/-41 -28/-105/-40 -27/-104/-39 -26/-103/-38 
f -25/-156/-37 -24/-157/-36 -23/-158/-35 -22/-155/-34 
f -49/-102/-33 -21/-101/-32 -20/-100/-31 -50/-99/-33 
f -48/-98/-30 -51/-97/-30 -67/-96/-81 -68/-95/-82 
f -50/-94/-64 -20/-93/-31 -19/-92/-29 -70/-91/-84 
f -58/-90/-72 -18/-142/-28 -17/-89/-27 -16/-88/-26 
f -19/-87/-29 -15/-86/-25 -69/-85/-83 -70/-84/-84 
f -14/-140/-24 -13/-141/-23 -31/-142/-43 -59/-139/-73 
f -23/-83/-35 -63/-82/-77 -64/-81/-78 -30/-80/-42 
f -62/-146/-76 -59/-143/-73 -31/-90/-43 -12/-142/-22 
f -24/-157/-36 -11/-79/-21 -10/-78/-20 -23/-158/-35 
f -58/-90/-72 -60/-143/-74 -61/-146/-75 -18/-142/-28 
f -28/-77/-40 -29/-76/-41 -68/-75/-19 -67/-74/-19 
f -55/-73/-69 -52/-125/-66 -38/-126/-50 -39/-72/-51 
f -65/-71/-79 -48/-119/-62 -30/-70/-42 -64/-69/-78 
f -14/-68/-24 -56/-67/-70 -51/-134/-65 -13/-132/-23 
f -9/-66/-18 -8/-65/-17 -11/-64/-21 -7/-63/-16 
f -6/-62/-15 -16/-61/-26 -17/-60/-27 -9/-59/-18 
f -47/-58/-61 -44/-57/-58 -42/-56/-56 -41/-55/-53 
f -5/-54/-14 -10/-53/-20 -11/-52/-21 -8/-51/-17 
f -4/-89/-13 -12/-142/-22 -31/-90/-43 -3/-88/-12 
f -9/-66/-18 -17/-50/-27 -4/-49/-13 -8/-65/-17 
f -9/-59/-18 -7/-60/-16 -2/-61/-11 -6/-62/-15 
f -8/-51/-17 -4/-52/-13 -3/-53/-12 -5/-54/-14 
f -35/-48/-47 -32/-47/-44 -58/-46/-72 -74/-45/-88 
f -70/-44/-10 -27/-43/-39 -28/-106/-40 -67/-42/-9 
f -1/-70/-8 -51/-119/-65 -33/-71/-45 -34/-69/-46 
f -29/-106/-41 -26/-43/-38 -69/-44/-7 -68/-42/-6 
f -32/-111/-44 -33/-112/-45 -51/-113/-65 -58/-110/-72 
f -34/-81/-46 -35/-82/-47 -74/-83/-88 -1/-80/-8 
f -71/-41/-85 -72/-40/-86 -25/-39/-37 -22/-38/-34 
f -54/-56/-68 -55/-57/-69 -39/-58/-51 -36/-55/-48 
f -27/-37/-49 -26/-36/-5 -69/-35/-49 -70/-34/-49 
f -30/-33/-42 -22/-32/-34 -23/-31/-35 
f -71/-30/-85 -22/-29/-34 -30/-28/-42 -1/-27/-8 
f -58/-46/-72 -31/-26/-43 -23/-25/-35 -74/-45/-88 
f -61/-24/-75 -62/-23/-76 -12/-22/-22 -18/-21/-28 
f -7/-20/-16 -11/-19/-21 -24/-18/-36 -73/-17/-87 
f -18/-21/-28 -12/-22/-22 -4/-16/-13 -17/-15/-27 
f -21/-101/-32 -15/-14/-25 -19/-13/-29 -20/-100/-31 
f -31/-46/-43 -66/-47/-80 -63/-48/-77 -23/-45/-35 
f -74/-31/-88 -71/-32/-85 -1/-33/-8 
f -23/-12/-4 -22/-29/-4 -71/-30/-4 -74/-11/-4 
f -2/-78/-11 -7/-79/-16 -73/-157/-87 -74/-158/-88 
f -67/-119/-81 -51/-120/-3 -50/-121/-2 -70/-118/-84 
f -50/-109/-64 -51/-107/-65 -1/-108/-8 
f -15/-92/-25 -21/-93/-32 -49/-94/-63 -69/-91/-83 
f -56/-10/-70 -14/-140/-24 -59/-139/-73 -60/-9/-74 
f -73/-17/-87 -24/-18/-36 -25/-8/-37 -72/-7/-86 
f -30/-6/-42 -49/-102/-63 -50/-99/-64 -1/-5/-8 
f -70/-4/-1 -69/-3/-1 -49/-2/-1 -50/-1/-1 
# 62 polygons - 5 triangles

