# 3ds Max Wavefront OBJ Exporter v0.97b - (c)2007 guruware
# File Created: 22.02.2011 18:49:40

mtllib colonizer_lod2.mtl

#
# object low
#

v  45.518913 -37.727928 216.586807
v  23.809361 -37.727932 216.588013
v  23.809362 -37.727882 287.137970
v  45.518913 -37.727882 287.137970
v  -33.718498 -37.727837 368.602753
v  -23.809443 -78.460999 357.618500
v  23.809315 -78.460991 357.618500
v  33.718323 -37.727837 368.602753
v  23.783964 -21.729826 194.939178
v  23.783966 21.729992 194.939148
v  23.809359 37.728134 216.587952
v  -0.000003 3.995528 -131.977768
v  22.105856 25.705153 -132.234924
v  22.105947 25.705000 -377.189575
v  0.000041 4.724591 -377.189575
v  23.809361 -78.461067 240.020340
v  -23.809397 -78.461075 240.020309
v  -23.809397 -37.727928 216.588013
v  78.461182 0.000043 -21.711283
v  44.780811 -0.000028 -132.234894
v  55.786228 45.519016 -21.711296
v  -23.809395 -37.727879 287.137970
v  -45.518993 -37.727932 216.586777
v  -45.519043 -37.727886 287.137970
v  -23.809395 -78.461052 287.138000
v  23.809362 -78.461029 287.138031
v  23.809361 37.728176 287.137939
v  45.518909 37.728172 287.137970
v  33.718319 37.728222 368.602722
v  23.809313 37.728214 357.618439
v  45.518909 37.728130 216.586746
v  -44.780823 -0.000193 -377.189575
v  -22.105869 25.704979 -377.189575
v  -22.105818 -25.705341 -377.189575
v  -37.728104 23.809452 171.907425
v  -27.620913 23.784088 197.725159
v  27.620829 23.784117 197.725159
v  37.728012 23.809494 171.907425
v  -55.786228 45.518951 -21.711309
v  -38.048481 23.809351 -21.311199
v  -22.105814 25.705130 -132.234970
v  -37.728104 -23.809303 171.907425
v  -27.620865 -23.783894 197.725159
v  44.780903 -0.000147 -377.189575
v  -23.809444 78.461357 357.618408
v  23.809313 78.461365 357.618439
v  23.809361 78.461319 287.137909
v  -23.809446 78.461319 287.137878
v  38.048481 23.809391 -21.311190
v  -45.519047 37.728127 216.586731
v  -23.809397 37.728123 216.587982
v  -23.809395 37.728172 287.137970
v  -45.519047 37.728176 287.137939
v  -78.461227 0.000056 171.929718
v  -55.786270 45.519058 171.901260
v  -78.461182 -0.000041 -21.711290
v  -23.809443 -37.727840 357.618469
v  23.809315 -37.727848 357.618469
v  -23.809443 37.728210 357.618469
v  -33.718502 37.728218 368.602753
v  -44.780766 -0.000075 -132.234955
v  -22.105812 -25.705254 -132.234940
v  -55.786182 -45.519020 -21.711277
v  55.786186 45.519108 171.901276
v  78.461189 0.000140 171.929718
v  0.000090 -4.724932 -377.189545
v  55.786232 -45.518883 171.901306
v  37.728058 -23.809265 171.907440
v  -38.048481 -23.809383 -21.311163
v  -55.786175 -45.518940 171.901291
v  23.809359 78.461288 240.020203
v  -23.809399 78.461281 240.020187
v  22.105949 -25.705317 -377.189575
v  22.105906 -25.705229 -132.234879
v  0.000047 -3.998454 -131.983948
v  55.786278 -45.518959 -21.711264
v  27.620876 -23.783865 197.725159
v  -23.784054 21.729994 194.939148
v  38.048527 -23.809341 -21.311153
v  -23.784054 -21.729826 194.939178
# 80 vertices

vn 0.662203 0.330860 -0.672324
vn 0.543635 -0.273048 -0.793666
vn 0.707107 0.707107 -0.000000
vn 0.858083 0.513016 0.022559
vn -0.584460 0.454876 0.671933
vn -0.464780 -0.718053 0.518053
vn 0.464780 -0.718053 0.518054
vn 0.584459 0.454876 0.671934
vn 0.814308 -0.466346 -0.345577
vn 0.814308 0.466346 -0.345577
vn 0.543635 0.273047 -0.793666
vn 0.000000 0.999651 0.026430
vn -0.020352 0.998508 -0.050670
vn 0.035704 0.817410 -0.574949
vn -0.000000 0.440247 -0.897877
vn 0.416233 -0.815847 -0.401427
vn -0.416232 -0.815848 -0.401427
vn -0.543635 -0.273048 -0.793666
vn 0.985171 0.000000 -0.171574
vn 0.987549 0.000001 -0.157314
vn 0.171824 0.979482 -0.105316
vn -0.707107 0.707107 -0.000001
vn -0.662203 0.330859 -0.672324
vn -0.858083 0.513015 0.022558
vn -0.514616 -0.857421 0.000000
vn 0.514617 -0.857420 0.000001
vn 0.707107 -0.707107 0.000001
vn 0.858083 -0.513016 0.022559
vn 0.584460 -0.454875 0.671934
vn 0.301511 -0.904534 0.301512
vn 0.662203 -0.330861 -0.672323
vn -0.811599 -0.000001 -0.584215
vn -0.035704 0.817410 -0.574949
vn -0.035705 -0.817409 -0.574951
vn -0.052904 0.779757 0.623843
vn -0.451132 0.599206 0.661387
vn 0.451131 0.599206 0.661387
vn 0.052904 0.779757 0.623842
vn -0.171824 0.979482 -0.105316
vn 0.472745 0.881123 0.011597
vn 0.020352 0.998508 -0.050670
vn -0.052904 -0.779756 0.623845
vn -0.451131 -0.599206 0.661388
vn 0.811599 -0.000000 -0.584216
vn -0.464780 0.718054 0.518053
vn 0.464780 0.718053 0.518053
vn 0.514617 0.857420 -0.000000
vn -0.514617 0.857420 -0.000001
vn -0.472746 0.881122 0.011597
vn -0.662203 -0.330860 -0.672324
vn -0.543635 0.273047 -0.793667
vn -0.707107 -0.707107 0.000000
vn -0.858083 -0.513015 0.022559
vn -0.784850 -0.000000 0.619686
vn -0.095541 0.824212 0.558163
vn -0.985171 -0.000001 -0.171574
vn -0.301511 0.904534 0.301511
vn 0.301511 0.904534 0.301511
vn -0.301511 -0.904534 0.301512
vn -0.584460 -0.454875 0.671934
vn -0.987549 -0.000000 -0.157314
vn 0.020321 -0.998509 -0.050671
vn -0.171824 -0.979482 -0.105313
vn 0.095540 0.824212 0.558163
vn 0.784850 0.000001 0.619686
vn -0.000000 -0.440246 -0.897877
vn 0.095541 -0.824212 0.558164
vn 0.052905 -0.779756 0.623844
vn 0.472743 -0.881124 0.011606
vn -0.095539 -0.824212 0.558164
vn 0.416233 0.815847 -0.401428
vn -0.416232 0.815847 -0.401428
vn 0.035706 -0.817409 -0.574950
vn -0.020320 -0.998509 -0.050671
vn -0.008400 -0.999616 0.026421
vn 0.171826 -0.979482 -0.105313
vn 0.451132 -0.599205 0.661387
vn -0.814309 0.466346 -0.345575
vn -0.472742 -0.881125 0.011606
vn -0.814309 -0.466346 -0.345575
vn -1.000000 -0.000005 -0.000000
# 81 vertex normals

vt 0.450944 0.954159 0.000000
vt 0.450950 0.853624 0.000000
vt 0.763704 0.853624 0.000000
vt 0.763704 0.954159 0.000000
vt 0.593004 0.745003 0.000000
vt 0.593004 0.835911 0.000000
vt 0.738686 0.835911 0.000000
vt 0.738686 0.745003 0.000000
vt 0.111997 0.948233 0.000000
vt 0.204427 0.948264 0.000000
vt 0.204387 0.861920 0.000000
vt 0.111916 0.798609 0.000000
vt 0.806906 0.542610 0.000000
vt 0.806906 0.470024 0.000000
vt 0.117437 0.470024 0.000000
vt 0.117437 0.542610 0.000000
vt 0.765013 0.739545 0.000000
vt 0.765013 0.833873 0.000000
vt 0.741977 0.832666 0.000000
vt 0.741977 0.738338 0.000000
vt 0.774206 0.876914 0.000000
vt 0.467910 0.878509 0.000000
vt 0.467910 0.801044 0.000000
vt 0.774206 0.799449 0.000000
vt 0.720358 0.949423 0.000000
vt 0.553218 0.949423 0.000000
vt 0.553218 0.852757 0.000000
vt 0.720358 0.852757 0.000000
vt 0.776058 0.853516 0.000000
vt 0.776058 0.953764 0.000000
vt 0.468419 0.945030 0.000000
vt 0.468419 0.853516 0.000000
vt 0.576103 0.403852 0.000000
vt 0.636021 0.403852 0.000000
vt 0.636021 0.461218 0.000000
vt 0.781217 0.849746 0.000000
vt 0.781245 0.757000 0.000000
vt 0.681668 0.757034 0.000000
vt 0.645346 0.849814 0.000000
vt 0.774206 0.738852 0.000000
vt 0.467910 0.739352 0.000000
vt 0.715170 0.850396 0.000000
vt 0.623235 0.850487 0.000000
vt 0.623235 0.935194 0.000000
vt 0.715170 0.935103 0.000000
vt 0.605947 0.832748 0.000000
vt 0.994232 0.832748 0.000000
vt 0.994232 0.738196 0.000000
vt 0.605947 0.738196 0.000000
vt 0.806906 0.378881 0.000000
vt 0.117437 0.378881 0.000000
vt 0.470343 0.949423 0.000000
vt 0.470343 0.852757 0.000000
vt 0.683525 0.832666 0.000000
vt 0.625073 0.738338 0.000000
vt 0.774993 0.851860 0.000000
vt 0.994658 0.851860 0.000000
vt 0.994642 0.742261 0.000000
vt 0.774990 0.742189 0.000000
vt 0.993569 0.929447 0.000000
vt 0.993569 0.813803 0.000000
vt 0.612123 0.813803 0.000000
vt 0.612123 0.929447 0.000000
vt 0.607719 0.748818 0.000000
vt 0.607719 0.828469 0.000000
vt 0.693967 0.843098 0.000000
vt 0.693967 0.748818 0.000000
vt 0.137042 0.827889 0.000000
vt 0.436165 0.827889 0.000000
vt 0.436165 0.730656 0.000000
vt 0.137042 0.730656 0.000000
vt 0.994232 0.738338 0.000000
vt 0.625073 0.832827 0.000000
vt 0.994232 0.832827 0.000000
vt 0.671873 0.844670 0.000000
vt 0.994646 0.850530 0.000000
vt 0.683739 0.461218 0.000000
vt 0.683739 0.403851 0.000000
vt 0.612123 0.770259 0.000000
vt 0.993569 0.770197 0.000000
vt 0.709661 0.830943 0.000000
vt 0.709661 0.697699 0.000000
vt 0.810812 0.697698 0.000000
vt 0.810812 0.830943 0.000000
vt 0.436361 0.888294 0.000000
vt 0.336047 0.825114 0.000000
vt 0.336047 0.984896 0.000000
vt 0.436349 0.984896 0.000000
vt 0.204114 0.948233 0.000000
vt 0.204114 0.866829 0.000000
vt 0.111997 0.866742 0.000000
vt 0.111997 0.948146 0.000000
vt 0.582650 0.764321 0.000000
vt 0.524617 0.935194 0.000000
vt 0.524565 0.850482 0.000000
vt 0.435423 0.730656 0.000000
vt 0.435503 0.890561 0.000000
vt 0.137042 0.827553 0.000000
vt 0.224831 0.385234 0.000000
vt 0.263237 0.423148 0.000000
vt 0.691255 0.404191 0.000000
# 101 texture coords

g low
usemtl Material__25
s 1
f -80/-101/-81 -79/-100/-80 -78/-99/-79 -77/-98/-78 
f -76/-97/-77 -75/-96/-76 -74/-95/-75 -73/-94/-74 
f -79/-93/-80 -72/-92/-73 -71/-91/-72 -70/-90/-71 
f -69/-89/-70 -68/-88/-69 -67/-87/-68 -66/-86/-67 
f -79/-85/-80 -65/-84/-66 -64/-83/-65 -63/-82/-64 
f -62/-81/-63 -61/-80/-62 -68/-79/-69 -60/-78/-61 
f -59/-99/-60 -63/-100/-64 -58/-101/-59 -57/-98/-58 
f -56/-77/-57 -64/-76/-65 -65/-75/-66 -55/-74/-56 
f -54/-73/-55 -53/-72/-54 -52/-71/-53 -51/-70/-52 
f -54/-99/-55 -70/-100/-71 -50/-101/-51 -53/-98/-54 
f -49/-69/-50 -48/-68/-49 -47/-67/-48 
f -46/-66/-47 -45/-65/-46 -44/-64/-45 -43/-63/-44 
f -42/-78/-43 -41/-62/-42 -69/-61/-70 -40/-79/-41 
f -39/-60/-40 -38/-59/-39 -45/-58/-46 -46/-57/-47 
f -74/-56/-75 -55/-55/-56 -77/-54/-78 -73/-53/-74 
f -61/-52/-62 -37/-51/-38 -67/-87/-68 -68/-88/-69 
f -36/-50/-37 -35/-49/-36 -34/-74/-35 -33/-77/-34 
f -64/-48/-65 -58/-47/-59 -63/-82/-64 
f -41/-46/-42 -46/-45/-47 -43/-44/-44 -32/-43/-33 
f -31/-101/-32 -30/-100/-31 -29/-99/-30 -28/-98/-29 
f -55/-74/-56 -74/-49/-75 -75/-50/-76 -56/-77/-57 
f -27/-42/-28 -26/-41/-27 -42/-40/-43 -25/-39/-26 
f -24/-38/-25 -76/-37/-77 -73/-36/-74 -23/-35/-24 
f -59/-34/-60 -24/-33/-25 -22/-32/-23 -29/-31/-30 
f -51/-32/-52 -23/-33/-24 -78/-34/-79 -54/-31/-55 
f -21/-71/-22 -28/-72/-29 -29/-73/-30 -22/-70/-23 
f -69/-61/-70 -32/-62/-33 -60/-78/-61 -68/-79/-69 
f -57/-30/-58 -58/-47/-59 -64/-29/-65 -56/-28/-57 
f -25/-81/-26 -20/-80/-21 -19/-79/-20 -18/-78/-19 
f -60/-40/-61 -17/-41/-18 -16/-42/-17 -62/-39/-63 
f -69/-27/-70 -41/-26/-42 -32/-44/-33 
f -57/-54/-58 -56/-55/-57 -75/-56/-76 -76/-53/-77 
f -15/-25/-16 -47/-67/-48 -48/-68/-49 -66/-24/-67 
f -32/-23/-33 -43/-22/-44 -17/-41/-18 -60/-40/-61 
f -14/-21/-15 -17/-20/-18 -43/-19/-44 -13/-18/-14 
f -12/-23/-13 -39/-22/-40 -11/-41/-12 -18/-40/-19 
f -10/-75/-11 -9/-76/-10 -33/-77/-34 -34/-74/-35 
f -8/-87/-9 -7/-88/-8 -6/-89/-7 -15/-86/-16 
f -6/-61/-7 -12/-62/-13 -18/-78/-19 -19/-79/-20 
f -7/-79/-8 -61/-80/-62 -62/-81/-63 -5/-78/-6 
f -44/-58/-45 -4/-59/-5 -13/-60/-14 -43/-57/-44 
f -20/-52/-21 -49/-51/-50 -47/-87/-48 -19/-88/-20 
f -59/-73/-60 -57/-72/-58 -76/-71/-77 -24/-70/-25 
f -24/-17/-25 -23/-16/-24 -51/-15/-52 -22/-14/-23 
f -67/-68/-68 -8/-67/-9 -15/-25/-16 -66/-24/-67 
f -4/-64/-5 -38/-65/-39 -39/-66/-40 -13/-63/-14 
f -71/-13/-72 -3/-12/-4 -30/-11/-31 -70/-10/-71 
f -26/-20/-27 -27/-9/-28 -11/-21/-12 
f -45/-8/-46 -38/-7/-39 -4/-59/-5 -44/-58/-45 
f -8/-87/-9 -37/-51/-38 -61/-52/-62 -7/-88/-8 
f -67/-68/-68 -37/-69/-38 -8/-67/-9 
f -31/-47/-32 -9/-48/-10 -30/-82/-31 
f -13/-44/-14 -39/-45/-40 -12/-46/-13 -2/-43/-3 
f -26/-41/-27 -46/-22/-47 -41/-23/-42 -42/-40/-43 
f -16/-9/-17 -17/-20/-18 -14/-21/-15 
f -53/-30/-54 -50/-47/-51 -10/-29/-11 -34/-28/-35 
f -3/-91/-4 -1/-92/-2 -63/-93/-64 -30/-90/-31 
f -46/-19/-47 -26/-20/-27 -11/-21/-12 -39/-18/-40 
f -10/-48/-11 -50/-47/-51 -70/-82/-71 
f -30/-6/-31 -63/-5/-64 -59/-4/-60 -29/-31/-30 
f -5/-78/-6 -2/-62/-3 -6/-61/-7 -7/-79/-8 
f -18/-40/-19 -11/-41/-12 -27/-42/-28 -25/-39/-26 
f -66/-3/-1 -15/-2/-1 -6/-1/-7 
f -16/-42/-17 -14/-41/-15 -5/-40/-6 -62/-39/-63 
f -2/-44/-3 -12/-26/-13 -6/-27/-7 
f -52/-36/-53 -21/-37/-22 -22/-38/-23 -51/-35/-52 
f -6/-89/-7 -19/-88/-20 -47/-87/-48 -15/-86/-16 
f -14/-41/-15 -13/-22/-14 -2/-23/-3 -5/-40/-6 
f -73/-71/-74 -77/-72/-78 -78/-73/-79 -23/-70/-24 
f -9/-83/-10 -10/-84/-11 -70/-85/-71 -30/-82/-31 
f -65/-29/-66 -80/-47/-81 -77/-30/-78 -55/-28/-56 
f -48/-87/-49 -40/-88/-41 -69/-89/-70 -66/-86/-67 
f -80/-47/-81 -65/-48/-66 -79/-82/-80 
f -40/-79/-41 -20/-80/-21 -25/-81/-26 -42/-78/-43 
f -35/-95/-36 -36/-96/-37 -21/-97/-22 -52/-94/-53 
f -78/-4/-79 -79/-5/-80 -70/-6/-71 -54/-31/-55 
f -36/-56/-37 -33/-55/-34 -28/-54/-29 -21/-53/-22 
f -53/-54/-54 -34/-55/-35 -35/-56/-36 -52/-53/-53 
f -48/-87/-49 -49/-51/-50 -20/-52/-21 -40/-88/-41 
f -9/-29/-10 -31/-47/-32 -28/-30/-29 -33/-28/-34 
f -63/-11/-64 -1/-12/-2 -72/-13/-73 -79/-10/-80 
# 70 polygons - 11 triangles

