# 3ds Max Wavefront OBJ Exporter v0.97b - (c)2007 guruware
# File Created: 27.09.2011 20:51:45

mtllib Probe_lod1.mtl

#
# object Probe
#

v  -6.5712 -3.4761 19.7700
v  -6.9778 3.9354 19.7873
v  -5.8584 0.3983 10.8064
v  5.3063 2.4441 26.8482
v  5.2864 -2.1268 26.8333
v  5.7636 -3.5307 20.0108
v  -6.8743 2.5818 -1.2286
v  -2.0504 3.7564 -8.4528
v  -6.7923 2.5950 -5.4247
v  1.2727 -3.5767 9.8285
v  1.3098 -4.3438 -8.4127
v  6.3804 -2.0877 -5.2490
v  -2.2136 3.3214 9.7821
v  7.0115 1.0209 5.3149
v  2.9490 4.5869 -7.2064
v  -5.8794 0.4060 9.7013
v  -2.1153 -4.8443 3.4824
v  -2.9612 4.4704 13.2433
v  5.4355 0.3483 11.0269
v  1.6974 -4.7475 13.3052
v  -1.6973 -3.5418 10.8753
v  -0.9591 -4.2638 7.5279
v  -2.2574 -4.7300 13.2280
v  1.9711 4.4763 26.7894
v  -3.2784 -4.7738 26.6577
v  -6.2653 -2.0444 -1.5811
v  -7.6412 0.6221 -7.4258
v  -0.9943 1.2893 -8.4400
v  -2.6582 -2.6794 -8.4850
v  -1.4577 -3.9023 -11.0119
v  -5.8580 -1.9071 -8.0603
v  -5.6323 0.5945 -17.9281
v  0.4578 0.5854 -23.3160
v  0.3332 4.1143 -16.1362
v  5.7540 2.0273 -17.0645
v  3.0132 5.4575 19.9748
v  -3.7421 5.4874 19.8429
v  5.8826 -2.0565 13.3954
v  7.9304 0.5532 -7.1218
v  6.9395 2.5206 -0.9590
v  7.6928 0.4955 4.0745
v  2.9737 -0.3752 -8.3677
v  5.0108 -1.3913 -18.8888
v  1.8518 -3.9170 -10.9473
v  -1.1166 -2.3956 -19.8923
v  -2.0467 3.7967 -10.9991
v  6.5785 0.4804 -10.8411
v  -7.0831 3.6959 25.1277
v  -6.3482 -2.0753 26.6062
v  -7.2043 1.0838 5.0374
v  1.8225 3.2739 10.9656
v  -6.4298 2.4896 -8.0575
v  -6.1459 0.5367 -11.0895
v  2.4623 -5.5011 19.9230
v  -3.4679 -5.4749 19.8073
v  6.2348 3.8769 20.0453
v  -1.9040 -4.8102 -7.3308
v  5.4997 0.3557 9.9235
v  6.3039 -2.1000 -1.3358
v  -7.8413 0.5642 3.7713
v  2.3593 -5.2079 25.2658
v  7.0215 2.5339 -5.1550
v  -6.1889 -2.0320 -5.4944
v  0.1891 -3.5099 -10.4826
v  -1.7874 -0.6881 -10.5123
v  6.1510 -1.9603 -7.8258
v  2.5079 3.7766 -10.9102
v  2.4815 4.4463 13.3495
v  0.6625 3.9071 7.5854
v  -6.4189 -2.0021 13.1553
v  11.5656 4.7993 -3.5588
v  -11.3749 4.9009 -4.0066
v  -6.9875 0.7145 7.6885
v  6.6882 0.6540 7.9555
v  -11.6032 -3.8404 -4.0387
v  11.7176 -3.9436 -3.5834
v  -15.0400 3.9685 7.8474
v  14.7568 3.8366 8.4291
# 78 vertices

vn -0.9933 -0.0542 -0.1024
vn 0.9946 -0.0353 0.0974
vn 0.9356 -0.1735 0.3075
vn 0.9950 -0.0049 0.0995
vn -0.2688 0.9623 0.0424
vn -0.2485 0.9661 -0.0702
vn -0.3635 0.9047 -0.2223
vn 0.1837 -0.9450 0.2707
vn 0.3217 -0.9461 -0.0374
vn 0.6702 -0.7282 -0.1435
vn -0.1334 0.9729 0.1891
vn 0.5226 0.5936 0.6120
vn 0.1504 0.9886 -0.0004
vn -0.6244 -0.7306 0.2764
vn -0.2111 -0.9684 0.1330
vn -0.6074 0.7301 -0.3131
vn -0.7291 -0.0807 -0.6797
vn -0.4796 0.8703 -0.1119
vn 0.6777 0.1138 -0.7265
vn 0.4457 -0.7253 -0.5246
vn -0.3030 -0.7022 -0.6443
vn -0.0028 -0.9966 -0.0821
vn -0.0024 -0.9949 -0.1007
vn -0.0025 -0.9951 -0.0993
vn -0.0615 0.0502 0.9968
vn -0.0195 -0.0032 0.9998
vn -0.7294 -0.6835 0.0286
vn -0.1531 0.0234 -0.9879
vn -0.0654 0.0014 -0.9979
vn -0.1580 0.0774 -0.9844
vn -0.3249 -0.9255 -0.1947
vn -0.6939 -0.6940 -0.1918
vn -0.6457 -0.7030 -0.2981
vn -0.0915 0.8931 -0.4405
vn -0.0422 0.9702 -0.2387
vn 0.4046 0.8975 -0.1754
vn 0.0073 0.9884 -0.1515
vn 0.0069 0.9915 -0.1301
vn 0.5177 -0.8553 0.0208
vn 0.4815 -0.7327 -0.4810
vn 0.9184 0.3951 0.0215
vn 0.2306 0.0711 -0.9704
vn 0.2184 0.0628 -0.9738
vn -0.0536 -0.0040 -0.9986
vn 0.7077 -0.5068 -0.4922
vn 0.2621 -0.9537 -0.1477
vn -0.2572 -0.8391 -0.4793
vn -0.1944 0.2201 0.9559
vn -0.0960 0.0942 0.9909
vn 0.2322 0.9511 0.2035
vn 0.3193 0.9452 0.0681
vn -0.2767 0.9603 0.0353
vn -0.7177 -0.6634 0.2117
vn -0.0426 0.1684 -0.9848
vn 0.0195 0.0032 -0.9998
vn -0.0755 0.2549 -0.9640
vn -0.5453 -0.7459 -0.3826
vn -0.4221 0.8896 -0.1744
vn -0.4153 0.8579 -0.3025
vn -0.9015 -0.0269 0.4319
vn 0.3710 -0.9283 0.0251
vn -0.3952 -0.9138 0.0932
vn -0.3964 -0.9179 0.0181
vn -0.9965 -0.0823 0.0149
vn -0.9989 -0.0426 0.0215
vn -0.9921 -0.1122 0.0553
vn 0.6607 0.6561 -0.3646
vn 0.4912 0.8710 -0.0078
vn -0.5698 0.5495 -0.6111
vn -0.6581 -0.4263 -0.6207
vn -0.5541 -0.5395 -0.6340
vn 0.0870 -0.7891 -0.6081
vn 0.6982 -0.6875 0.1998
vn 0.8240 -0.5621 0.0715
vn -0.7614 0.3766 0.5277
vn -0.9149 0.4034 -0.0153
vn -0.9171 0.3983 -0.0167
vn -0.9136 0.4064 -0.0145
vn 0.1571 -0.5623 0.8118
vn 0.6262 -0.7703 0.1202
vn 0.2033 0.9609 0.1880
vn 0.5226 0.8262 -0.2106
vn -0.2410 -0.8985 0.3669
vn -0.7985 -0.5724 -0.1865
vn -0.7110 -0.6829 -0.1679
vn -0.1768 -0.9835 -0.0374
vn 0.7744 -0.5989 -0.2039
vn 0.2185 -0.9005 0.3759
vn -0.2324 0.9563 0.1772
vn -0.9983 -0.0547 -0.0221
vn -0.1729 -0.1672 -0.9706
vn -0.7006 0.1580 -0.6958
vn 0.3825 0.2586 -0.8870
vn 0.2808 0.6384 -0.7166
vn 0.9905 -0.0636 0.1218
vn 0.9960 -0.0631 -0.0636
vn 0.7187 -0.6866 -0.1094
vn 0.3270 0.9443 0.0372
vn 0.0908 0.9376 0.3356
vn 0.0069 0.9918 -0.1274
vn 0.0063 0.9954 -0.0951
vn -0.2790 -0.9567 -0.0835
vn -0.2119 0.6084 -0.7648
vn -0.6014 0.7484 0.2796
vn -0.5426 -0.8399 -0.0054
vn -0.4688 -0.7285 -0.4996
vn -0.6206 -0.7742 0.1242
vn 0.3442 0.9067 0.2438
vn 0.7030 -0.6697 0.2395
vn 0.4445 -0.8957 0.0059
vn -0.4445 0.8957 -0.0059
vn -0.4523 -0.8918 -0.0117
vn 0.4523 0.8918 0.0117
vn 0.1999 0.2269 -0.9532
vn 0.7010 0.6890 -0.1840
vn -0.7010 -0.6890 0.1840
vn 0.6872 -0.6951 0.2111
vn -0.6872 0.6951 -0.2111
vn -0.3176 0.9482 -0.0032
vn 0.3176 -0.9482 0.0032
vn 0.3258 0.9454 0.0093
vn -0.3258 -0.9454 -0.0093
vn 0.2869 -0.9580 0.0026
vn 0.0027 0.9776 -0.2103
vn -0.9752 0.0238 -0.2202
vn -0.6521 0.6986 -0.2945
vn 0.4005 0.9099 -0.1080
vn -0.2425 0.9687 -0.0525
vn -0.9132 0.4073 -0.0142
vn 0.5706 0.6955 -0.4367
vn 0.9158 0.4012 0.0192
vn 0.0074 -0.9261 -0.3771
vn 0.7740 -0.3183 -0.5473
vn 0.7767 0.4917 -0.3936
vn 0.4824 0.8500 0.2117
vn -0.9220 0.3868 -0.0162
vn -0.7614 -0.6174 0.1979
vn 0.6048 0.6469 0.4644
vn -0.0022 -0.9936 -0.1129
vn 0.0785 -0.6054 -0.7921
vn 0.9538 -0.2745 -0.1220
vn 0.9395 -0.0218 -0.3419
vn -0.6168 0.6523 0.4406
vn -0.9649 0.2603 0.0358
vn 0.9650 0.2518 0.0735
vn -0.9968 -0.0283 -0.0751
vn 0.5351 -0.6865 0.4923
vn -0.1648 -0.8806 0.4443
vn -0.7547 0.6459 0.1147
vn 0.1648 0.8806 -0.4443
vn 0.1396 -0.8819 0.4502
vn -0.1396 0.8819 -0.4502
vn 0.7554 0.6392 0.1441
vn 0.9470 0.0931 -0.3075
vn 0.3683 -0.9279 0.0580
# 155 vertex normals

vt 0.1334 0.7664 0.0000
vt 0.1344 0.7653 0.0000
vt 0.0217 0.5506 0.0000
vt 0.0992 0.9875 0.0000
vt 0.0974 0.9882 0.0000
vt 0.7408 0.3700 0.0000
vt 0.9711 0.5460 0.0000
vt 0.9007 0.3696 0.0000
vt 0.3146 0.7096 0.0000
vt 0.9717 0.7190 0.0000
vt 0.8991 0.9171 0.0000
vt 0.3129 0.7029 0.0000
vt 0.5033 0.9325 0.0000
vt 0.9716 0.7295 0.0000
vt 0.3139 0.4606 0.0000
vt 0.5581 0.5581 0.0000
vt 0.3142 0.5695 0.0000
vt 0.2185 0.6132 0.0000
vt 0.1487 0.5492 0.0000
vt 0.1411 0.7919 0.0000
vt 0.1491 0.5495 0.0000
vt 0.2183 0.6131 0.0000
vt 0.2131 0.5464 0.0000
vt 0.3444 0.0068 0.0000
vt 0.3202 0.1493 0.0000
vt 0.3187 0.1493 0.0000
vt 0.0406 0.3187 0.0000
vt 0.0417 0.3192 0.0000
vt 0.0811 0.2607 0.0000
vt 0.7483 0.3939 0.0000
vt 0.1344 0.2236 0.0000
vt 0.1099 0.0326 0.0000
vt 0.2254 0.0828 0.0000
vt 0.4505 0.2507 0.0000
vt 0.4505 0.1019 0.0000
vt 0.8140 0.0742 0.0000
vt 0.9868 0.3110 0.0000
vt 0.7217 0.3162 0.0000
vt 0.7622 0.1301 0.0000
vt 0.2025 0.7900 0.0000
vt 0.2313 0.6283 0.0000
vt 0.2015 0.7900 0.0000
vt 0.1413 0.7917 0.0000
vt 0.2319 0.6292 0.0000
vt 0.1399 0.6151 0.0000
vt 0.9722 0.9721 0.0000
vt 0.7421 0.9402 0.0000
vt 0.5530 0.9720 0.0000
vt 0.1344 0.2251 0.0000
vt 0.1578 0.0843 0.0000
vt 0.0384 0.0652 0.0000
vt 0.8199 0.1725 0.0000
vt 0.4505 0.2523 0.0000
vt 0.8408 0.2709 0.0000
vt 0.0493 0.0578 0.0000
vt 0.2591 0.0374 0.0000
vt 0.1385 0.1711 0.0000
vt 0.0803 0.2612 0.0000
vt 0.0811 0.2612 0.0000
vt 0.2286 0.9876 0.0000
vt 0.2070 0.7885 0.0000
vt 0.2061 0.7885 0.0000
vt 0.3124 0.5751 0.0000
vt 0.4918 0.3558 0.0000
vt 0.3121 0.3913 0.0000
vt 0.0544 0.0622 0.0000
vt 0.2553 0.0453 0.0000
vt 0.1395 0.1682 0.0000
vt 0.1476 0.5495 0.0000
vt 0.2132 0.5464 0.0000
vt 0.2184 0.6131 0.0000
vt 0.4506 0.0798 0.0000
vt 0.8067 0.0799 0.0000
vt 0.1385 0.1741 0.0000
vt 0.2591 0.0404 0.0000
vt 0.2074 0.7883 0.0000
vt 0.2056 0.9918 0.0000
vt 0.2059 0.7883 0.0000
vt 0.1281 0.9154 0.0000
vt 0.2133 0.5465 0.0000
vt 0.1420 0.7919 0.0000
vt 0.1496 0.5492 0.0000
vt 0.1395 0.1686 0.0000
vt 0.2840 0.0558 0.0000
vt 0.2454 0.0521 0.0000
vt 0.0231 0.0702 0.0000
vt 0.2866 0.0511 0.0000
vt 0.1308 0.2240 0.0000
vt 0.3149 0.8578 0.0000
vt 0.7495 0.9176 0.0000
vt 0.5017 0.3748 0.0000
vt 0.5474 0.3340 0.0000
vt 0.1053 0.9914 0.0000
vt 0.2032 0.9916 0.0000
vt 0.2027 0.9187 0.0000
vt 0.2027 0.7900 0.0000
vt 0.9020 0.9400 0.0000
vt 0.9705 0.3347 0.0000
vt 0.8979 0.3936 0.0000
vt 0.9713 0.5571 0.0000
vt 0.9725 0.9754 0.0000
vt 0.5530 0.9763 0.0000
vt 0.2275 0.9876 0.0000
vt 0.2980 0.2684 0.0000
vt 0.2163 0.3152 0.0000
vt 0.2111 0.3418 0.0000
vt 0.1632 0.2901 0.0000
vt 0.2787 0.3403 0.0000
vt 0.3068 0.2900 0.0000
vt 0.4505 0.1035 0.0000
vt 0.4505 0.2255 0.0000
vt 0.4506 0.0128 0.0000
vt 0.2322 0.6283 0.0000
vt 0.3215 0.1484 0.0000
vt 0.3482 0.0050 0.0000
vt 0.3205 0.1484 0.0000
vt 0.3471 0.0158 0.0000
vt 0.3148 0.1443 0.0000
vt 0.4211 0.1425 0.0000
vt 0.0544 0.0618 0.0000
vt 0.1308 0.2233 0.0000
vt 0.3121 0.4490 0.0000
vt 0.1412 0.7917 0.0000
vt 0.1401 0.6151 0.0000
vt 0.2012 0.7900 0.0000
vt 0.1038 0.9914 0.0000
vt 0.3132 0.8684 0.0000
vt 0.4937 0.9535 0.0000
vt 0.3138 0.9008 0.0000
vt 0.4045 0.1762 0.0000
vt 0.3252 0.3435 0.0000
vt 0.4361 0.3435 0.0000
vt 0.3943 0.1810 0.0000
vt 0.4347 0.3254 0.0000
vt 0.3177 0.3254 0.0000
vt 0.2017 0.9916 0.0000
vt 0.0231 0.0797 0.0000
vt 0.3424 0.0150 0.0000
vt 0.3686 0.1473 0.0000
vt 0.4075 0.0826 0.0000
vt 0.3374 0.1481 0.0000
vt 0.3689 0.1475 0.0000
vt 0.3373 0.1481 0.0000
vt 0.3434 0.0150 0.0000
vt 0.4085 0.0826 0.0000
vt 0.3251 0.3499 0.0000
vt 0.4313 0.3629 0.0000
vt 0.3357 0.3629 0.0000
vt 0.2997 0.0817 0.0000
vt 0.3011 0.0817 0.0000
vt 0.4505 0.2252 0.0000
vt 0.3068 0.2915 0.0000
vt 0.1054 0.9904 0.0000
vt 0.1407 0.9176 0.0000
vt 0.0803 0.2607 0.0000
vt 0.2018 0.9910 0.0000
vt 0.4505 0.0140 0.0000
vt 0.2093 0.1783 0.0000
vt 0.9893 0.3094 0.0000
vt 0.4505 0.0156 0.0000
vt 0.8140 0.0758 0.0000
vt 0.2093 0.1753 0.0000
vt 0.1054 0.6127 0.0000
vt 0.2304 0.6292 0.0000
vt 0.4506 0.0124 0.0000
vt 0.0795 0.1964 0.0000
vt 0.0493 0.0548 0.0000
vt 0.6792 0.0063 0.0000
vt 0.9841 0.0116 0.0000
vt 0.9834 0.0654 0.0000
vt 0.6881 0.0287 0.0000
vt 0.9836 0.0261 0.0000
vt 0.9839 0.0662 0.0000
vt 0.2992 0.0817 0.0000
vt 0.2074 0.9202 0.0000
# 175 texture coords

g Probe
usemtl Hgn_Probe_EXPORT1_Hgn_Hgn_Probe_EXPORT_1__p
s 8
f 1/1/1 2/2/1 3/3/1 
s 2
f 4/4/2 5/5/3 6/1/4 
usemtl Hgn_Probe_EXPORT_Hgn__Hgn_Probe_EXPORT_1__p
s 1
f 7/6/5 8/7/6 9/8/7 
s 8
f 10/9/8 11/10/9 12/11/10 
s 1
f 13/12/11 14/13/12 15/14/13 
s 8
f 16/15/14 17/16/15 10/17/8 
usemtl Hgn_Probe_EXPORT1_Hgn_Hgn_Probe_EXPORT_1__p
s 1
f 18/18/16 3/19/17 2/20/18 
f 19/21/19 20/22/20 21/23/21 
s 8
f 22/24/22 20/25/23 23/26/24 
f 24/27/25 25/28/26 5/29/26 
usemtl Hgn_Probe_EXPORT_Hgn__Hgn_Probe_EXPORT_1__p
f 16/15/14 26/30/27 17/16/15 
s 2
f 27/31/28 28/32/29 29/33/30 
usemtl Hgn_Probe_EXPORT0_Hgn_Hgn_Probe_EXPORT_1__p
s 4
f 30/34/31 31/35/32 32/36/33 
s 1
f 33/37/34 34/38/35 35/39/36 
usemtl Hgn_Probe_EXPORT1_Hgn_Hgn_Probe_EXPORT_1__p
s 8
f 36/40/37 18/41/38 37/42/37 
s 1
f 6/43/39 20/44/20 38/45/40 
usemtl Hgn_Probe_EXPORT_Hgn__Hgn_Probe_EXPORT_1__p
s 4
f 39/46/41 40/47/41 41/48/41 
s 2
f 39/49/42 42/50/43 8/51/44 
usemtl Hgn_Probe_EXPORT0_Hgn_Hgn_Probe_EXPORT_1__p
s 4
f 43/52/45 44/53/46 45/54/47 
s 2
f 46/55/26 44/56/26 47/57/26 
usemtl Hgn_Probe_EXPORT1_Hgn_Hgn_Probe_EXPORT_1__p
s 8
f 24/27/25 48/58/48 49/59/49 
s 1
f 24/60/50 36/61/51 37/62/52 
usemtl Hgn_Probe_EXPORT_Hgn__Hgn_Probe_EXPORT_1__p
f 7/6/5 13/63/11 8/7/6 
s 8
f 50/64/53 26/30/27 16/65/14 
usemtl Hgn_Probe_EXPORT1_Hgn_Hgn_Probe_EXPORT_1__p
s 16
f 51/66/54 21/67/55 3/68/56 
s 1
f 3/69/17 21/70/21 23/71/57 
usemtl Hgn_Probe_EXPORT0_Hgn_Hgn_Probe_EXPORT_1__p
f 52/72/58 34/38/35 32/73/59 
s 2
f 53/74/60 30/75/26 46/55/26 
usemtl Hgn_Probe_EXPORT1_Hgn_Hgn_Probe_EXPORT_1__p
s 1
f 54/76/61 25/77/62 55/78/63 
s 2
f 48/79/64 1/1/65 49/5/66 
s 1
f 51/80/67 56/81/68 19/82/19 
s 16
f 51/66/54 19/83/55 21/67/55 
usemtl Hgn_Probe_EXPORT_Hgn__Hgn_Probe_EXPORT_1__p
s 1
f 27/31/69 29/33/70 57/84/71 
s 2
f 11/85/72 42/50/43 39/49/42 
f 13/86/26 10/87/26 58/88/26 
s 8
f 58/89/73 10/9/8 59/90/74 
s 1
f 7/6/5 50/91/75 13/63/11 
s 4
f 60/92/76 7/6/77 9/8/78 
usemtl Hgn_Probe_EXPORT1_Hgn_Hgn_Probe_EXPORT_1__p
s 2
f 5/93/3 25/94/79 61/95/79 
s 1
f 54/96/61 6/43/39 5/93/80 
usemtl Hgn_Probe_EXPORT_Hgn__Hgn_Probe_EXPORT_1__p
f 40/47/81 15/14/13 14/13/12 
f 40/47/81 62/97/82 15/14/13 
s 8
f 26/30/27 60/92/83 27/98/84 
f 63/99/85 27/98/84 57/100/86 
f 59/90/74 39/101/87 41/102/88 
f 12/11/10 11/10/9 39/101/87 
usemtl Hgn_Probe_EXPORT1_Hgn_Hgn_Probe_EXPORT_1__p
s 1
f 24/60/50 37/62/52 48/103/89 
s 2
f 48/79/64 2/2/90 1/1/65 
usemtl Hgn_Probe_EXPORT_Hgn__Hgn_Probe_EXPORT_1__p
s 1
f 64/104/91 65/105/92 42/106/93 
s 4
f 65/105/94 28/107/94 42/106/94 
usemtl Hgn_Probe_EXPORT1_Hgn_Hgn_Probe_EXPORT_1__p
s 2
f 4/4/2 6/1/4 56/2/95 
s 8
f 6/1/96 19/3/96 56/2/96 
usemtl Hgn_Probe_EXPORT0_Hgn_Hgn_Probe_EXPORT_1__p
s 1
f 34/38/35 33/37/34 32/73/59 
s 4
f 30/34/31 32/36/33 45/54/47 
usemtl Hgn_Probe_EXPORT_Hgn__Hgn_Probe_EXPORT_1__p
s 8
f 10/9/8 57/100/86 11/10/9 
s 1
f 29/108/70 64/104/91 57/109/71 
usemtl Hgn_Probe_EXPORT0_Hgn_Hgn_Probe_EXPORT_1__p
s 4
f 66/110/97 44/53/46 43/52/45 
s 1
f 67/111/98 47/112/99 35/39/36 
usemtl Hgn_Probe_EXPORT1_Hgn_Hgn_Probe_EXPORT_1__p
s 8
f 36/40/37 68/113/100 18/41/38 
f 68/114/100 69/115/101 18/116/38 
s 4
f 69/117/102 51/118/102 18/119/102 
s 16
f 51/66/54 3/68/56 18/120/103 
usemtl Hgn_Probe_EXPORT_Hgn__Hgn_Probe_EXPORT_1__p
s 2
f 13/86/26 16/121/26 10/87/26 
s 1
f 13/63/11 50/91/75 16/122/104 
usemtl Hgn_Probe_EXPORT1_Hgn_Hgn_Probe_EXPORT_1__p
f 1/123/105 70/124/106 23/71/57 
f 55/125/63 49/126/107 1/123/105 
usemtl Hgn_Probe_EXPORT_Hgn__Hgn_Probe_EXPORT_1__p
f 13/12/11 58/127/108 14/13/12 
s 8
f 14/128/109 58/129/73 59/90/74 
f 71/130/110 40/131/110 62/132/110 
s 4
f 71/133/111 62/134/111 40/135/111 
s 8
f 72/130/112 9/132/112 7/131/112 
s 4
f 72/133/113 7/135/113 9/134/113 
usemtl Hgn_Probe_EXPORT1_Hgn_Hgn_Probe_EXPORT_1__p
s 1
f 55/125/63 25/136/62 49/126/107 
s 8
f 24/27/25 49/59/49 25/28/26 
usemtl Hgn_Probe_EXPORT_Hgn__Hgn_Probe_EXPORT_1__p
s 16
f 15/137/114 39/49/114 8/51/114 
s 1
f 15/14/13 8/7/6 13/63/11 
usemtl Hgn_Probe_EXPORT1_Hgn_Hgn_Probe_EXPORT_1__p
s 4
f 73/138/115 2/139/115 3/140/115 
s 8
f 2/139/116 73/138/116 3/141/116 
f 56/142/117 19/143/117 74/144/117 
s 4
f 74/144/118 19/145/118 56/142/118 
usemtl Hgn_Probe_EXPORT_Hgn__Hgn_Probe_EXPORT_1__p
s 8
f 17/16/15 26/30/27 63/99/85 
f 26/30/27 27/98/84 63/99/85 
s 4
f 75/133/119 26/146/119 63/134/119 
f 75/130/120 63/147/120 26/148/120 
s 8
f 59/90/74 12/11/10 39/101/87 
s 4
f 76/133/121 12/134/121 59/146/121 
f 76/130/122 59/148/122 12/147/122 
s 8
f 10/9/123 12/11/123 59/90/123 
usemtl Hgn_Probe_EXPORT1_Hgn_Hgn_Probe_EXPORT_1__p
s 2
f 22/24/124 23/26/125 21/149/126 
f 22/24/124 21/150/126 20/25/127 
usemtl Hgn_Probe_EXPORT0_Hgn_Hgn_Probe_EXPORT_1__p
s 1
f 52/72/58 46/151/128 34/38/35 
f 67/111/98 35/39/36 34/38/35 
usemtl Hgn_Probe_EXPORT_Hgn__Hgn_Probe_EXPORT_1__p
s 4
f 60/92/76 9/8/78 27/98/129 
s 1
f 9/8/7 8/7/6 27/98/69 
f 62/97/82 39/46/130 15/14/13 
s 4
f 39/46/131 62/97/131 40/47/131 
s 2
f 11/152/72 57/109/132 64/104/132 
s 16
f 11/152/133 64/104/133 42/106/133 
usemtl Hgn_Probe_EXPORT1_Hgn_Hgn_Probe_EXPORT_1__p
s 1
f 68/113/134 36/40/51 56/81/68 
f 36/40/51 4/153/135 56/81/68 
usemtl Hgn_Probe_EXPORT_Hgn__Hgn_Probe_EXPORT_1__p
f 28/107/136 65/105/92 29/108/70 
f 29/108/70 65/105/92 64/104/91 
usemtl Hgn_Probe_EXPORT1_Hgn_Hgn_Probe_EXPORT_1__p
f 2/20/18 37/42/52 18/41/16 
f 48/154/89 37/42/52 2/20/18 
s 8
f 24/27/25 5/29/26 4/155/26 
s 1
f 36/40/51 24/156/50 4/153/135 
usemtl Hgn_Probe_EXPORT0_Hgn_Hgn_Probe_EXPORT_1__p
s 4
f 44/53/46 30/34/31 45/54/47 
s 2
f 46/55/26 30/75/26 44/56/26 
s 4
f 31/35/32 53/157/137 32/36/33 
s 1
f 31/158/138 30/75/138 53/74/138 
usemtl Hgn_Probe_EXPORT_Hgn__Hgn_Probe_EXPORT_1__p
s 2
f 42/50/43 28/32/29 8/51/44 
f 27/31/28 8/51/44 28/32/29 
usemtl Hgn_Probe_EXPORT1_Hgn_Hgn_Probe_EXPORT_1__p
s 1
f 6/43/39 54/96/61 20/44/20 
s 8
f 20/44/23 54/96/139 55/78/139 
usemtl Hgn_Probe_EXPORT0_Hgn_Hgn_Probe_EXPORT_1__p
s 4
f 32/36/33 33/159/140 45/54/47 
f 33/159/140 43/52/45 45/54/47 
f 47/160/141 43/52/45 35/161/142 
f 43/52/45 33/159/140 35/161/142 
s 1
f 44/56/143 66/162/143 47/57/99 
s 4
f 47/160/141 66/110/97 43/52/45 
usemtl Hgn_Probe_EXPORT1_Hgn_Hgn_Probe_EXPORT_1__p
s 1
f 3/69/17 23/71/57 70/124/106 
s 2
f 1/1/65 3/3/144 70/163/144 
s 8
f 20/44/23 55/78/139 23/164/24 
s 1
f 1/123/105 23/71/57 55/125/63 
s 2
f 6/1/4 38/163/145 19/3/145 
s 1
f 19/21/19 38/45/40 20/22/20 
usemtl Hgn_Probe_EXPORT_Hgn__Hgn_Probe_EXPORT_1__p
s 8
f 10/9/8 17/16/15 57/100/86 
f 17/16/15 63/99/85 57/100/86 
usemtl Hgn_Probe_EXPORT0_Hgn_Hgn_Probe_EXPORT_1__p
s 2
f 53/165/60 52/72/146 32/73/146 
s 4
f 46/55/147 52/166/147 53/74/137 
s 1
f 46/151/128 67/111/98 34/38/35 
s 2
f 46/55/26 47/57/26 67/167/26 
usemtl Hgn_Probe_EXPORT_Hgn__Hgn_Probe_EXPORT_1__p
s 1
f 77/168/148 60/169/148 50/170/75 
s 4
f 50/91/149 7/6/149 60/92/149 
s 8
f 50/64/53 60/92/83 26/30/27 
s 1
f 77/171/150 50/172/150 60/173/150 
f 78/168/151 14/170/12 41/169/151 
s 8
f 14/128/109 59/90/74 41/102/88 
s 1
f 78/171/152 41/173/152 14/172/152 
s 4
f 14/13/153 41/48/153 40/47/153 
usemtl Hgn_Probe_EXPORT1_Hgn_Hgn_Probe_EXPORT_1__p
s 1
f 51/80/67 68/18/134 56/81/68 
s 2
f 69/115/154 68/114/154 51/174/154 
s 1
f 54/76/61 61/175/155 25/77/62 
f 54/96/61 5/93/80 61/95/155 
# 0 polygons - 144 triangles

