# 3ds Max Wavefront OBJ Exporter v0.97b - (c)2007 guruware
# File Created: 10.03.2011 11:46:23

mtllib Large_LOD2.mtl

#
# object 140
#

v  127.782639 -57.259315 285.828156
v  49.965668 -57.259308 285.828156
v  49.965691 57.259243 213.348419
v  127.782631 57.259235 213.348419
v  -127.782639 -57.259277 285.828156
v  -49.965633 -57.259293 285.828156
v  -127.782639 -57.259289 526.645020
v  -127.782623 57.259258 526.645020
v  127.782631 57.259220 526.645020
v  -49.965645 57.259258 213.348419
v  -49.069626 57.008606 -503.332977
v  -34.929710 -34.813507 -480.210541
v  127.782639 -57.259327 526.645020
v  -127.782623 57.259274 213.348419
v  49.069691 57.008583 -503.332977
v  34.929752 -34.813530 -480.210541
v  -49.965672 2.200757 148.142746
v  -115.124107 2.200768 148.142746
v  -65.014412 2.200765 19.739140
v  -49.965672 2.200763 19.739140
v  18.190319 5.784838 -511.785034
v  18.190325 40.497238 -511.785034
v  68.014748 29.044083 -528.170532
v  68.014748 17.237965 -528.170532
v  -68.014748 17.237989 -528.170532
v  -85.793205 14.629065 -451.740692
v  -85.793198 31.653025 -451.740692
v  -68.014740 29.044107 -528.170532
v  -115.124100 46.888779 148.142746
v  -65.014435 46.888779 19.739141
v  -85.793198 31.653015 -203.574570
v  -85.793205 14.629053 -203.574570
v  -20.911375 -1.885923 -451.740570
v  -20.911375 -1.885934 -203.574570
v  -20.911385 48.167992 -203.574570
v  -20.911385 48.168003 -451.740570
v  -40.904701 -1.885942 10.509765
v  -135.776520 14.629054 10.509733
v  -135.776520 31.653015 10.509733
v  -40.904728 48.167988 10.509767
v  85.793182 14.629037 -451.740509
v  20.911343 -1.885927 -451.740509
v  171.494568 47.595879 528.170532
v  113.913231 47.595898 528.170532
v  113.913231 -47.689392 528.170532
v  171.494583 -47.689415 528.170532
v  20.911335 48.167988 -451.740509
v  85.793175 31.652992 -451.740509
v  -65.014435 46.888779 8.376971
v  -65.014412 2.200766 8.376969
v  204.824112 12.864395 528.170532
v  204.824142 -12.957941 528.170532
v  171.494568 47.595886 338.316101
v  204.824112 12.864403 338.316101
v  204.824142 -12.957933 338.316101
v  171.494583 -47.689407 338.316101
v  113.913231 -47.689384 338.316101
v  113.913231 47.595905 338.316101
v  85.793175 31.652983 -203.574570
v  85.793182 14.629025 -203.574570
v  20.911343 -1.885938 -203.574570
v  20.911335 48.167976 -203.574570
v  -49.965694 46.888775 19.739141
v  -49.965694 46.888775 8.376971
v  -113.913269 -47.689365 528.170532
v  -113.913254 47.595921 528.170532
v  -171.494553 47.595932 528.170532
v  -171.494583 -47.689354 528.170532
v  -204.824158 12.864468 528.170532
v  -204.824158 -12.957867 528.170532
v  -204.824127 -12.957859 338.316101
v  -204.824127 12.864475 338.316101
v  -171.494553 47.595940 338.316101
v  -171.494583 -47.689346 338.316101
v  -113.913269 -47.689358 338.316101
v  -113.913254 47.595928 338.316101
v  65.014412 2.200743 8.376969
v  65.014412 2.200742 19.739140
v  49.965687 2.200745 19.739140
v  49.965687 2.200746 8.376969
v  -115.124100 46.888775 253.488953
v  -49.965694 46.888763 253.488953
v  -49.965694 46.888767 148.142746
v  40.904686 -1.885953 10.509667
v  135.776489 14.629008 10.509668
v  135.776489 31.652962 10.509668
v  40.904701 48.167965 10.509669
v  -115.124107 2.200764 253.488953
v  -18.190327 40.497246 -511.785034
v  -18.190332 5.784843 -511.785034
v  115.124107 2.200728 148.142746
v  115.124107 2.200723 253.488953
v  49.965687 2.200735 253.488953
v  49.965687 2.200740 148.142746
v  65.014427 46.888756 19.739141
v  115.124107 46.888733 148.142746
v  49.965672 46.888744 148.142746
v  49.965672 46.888741 253.488953
v  115.124107 46.888729 253.488953
v  49.965672 46.888752 8.376971
v  49.965672 46.888752 19.739141
v  65.014427 46.888756 8.376971
v  -49.965672 2.200753 253.488953
v  -49.965672 2.200763 8.376969
# 104 vertices

vn 0.613649 -0.693427 -0.377616
vn 0.166701 -0.957493 -0.235410
vn 0.465371 0.837254 -0.287116
vn 0.553040 0.398456 -0.731697
vn -0.613649 -0.693427 -0.377616
vn -0.166702 -0.957493 -0.235410
vn -0.577350 -0.577350 0.577350
vn -0.577350 0.577350 0.577350
vn 0.577350 0.577350 0.577350
vn -0.465370 0.837254 -0.287116
vn -0.601045 0.472055 -0.644910
vn -0.530630 -0.675162 -0.512434
vn 0.577350 -0.577350 0.577350
vn -0.553040 0.398456 -0.731697
vn 0.601045 0.472055 -0.644910
vn 0.530630 -0.675162 -0.512434
vn -0.000000 -1.000000 -0.000000
vn -0.731543 -0.667748 -0.137686
vn -0.648679 -0.751206 -0.122090
vn -0.010567 -0.773664 -0.633508
vn -0.040089 0.763345 -0.644746
vn 0.446661 0.486436 -0.750915
vn 0.444152 -0.496214 -0.745990
vn -0.444151 -0.496214 -0.745990
vn -0.792500 -0.600877 -0.104353
vn -0.795722 0.597562 -0.098717
vn -0.446661 0.486436 -0.750915
vn -0.731543 0.667748 -0.137686
vn -0.648679 0.751206 -0.122090
vn -0.765163 0.637572 -0.089597
vn -0.762268 -0.642357 -0.079530
vn -0.241483 -0.968153 -0.066067
vn -0.241997 -0.970215 -0.010964
vn -0.232239 0.972410 -0.022003
vn -0.229867 0.971812 -0.052368
vn -0.181814 -0.982668 -0.036160
vn -0.784763 -0.592095 -0.183223
vn -0.790070 0.588040 -0.173203
vn -0.168130 0.985640 -0.015702
vn 0.792500 -0.600877 -0.104353
vn 0.241483 -0.968154 -0.066067
vn 0.301124 0.716364 0.629402
vn 0.000000 0.707107 0.707107
vn -0.000000 -0.707107 0.707107
vn 0.301124 -0.716364 0.629402
vn 0.229868 0.971812 -0.052367
vn 0.795722 0.597563 -0.098717
vn -0.707107 0.707107 0.000000
vn -0.707107 -0.707107 -0.000000
vn 0.718175 0.293090 0.631128
vn 0.718176 -0.293089 0.631128
vn 0.301124 0.716364 -0.629402
vn 0.718176 0.293090 -0.631128
vn 0.718176 -0.293089 -0.631128
vn 0.301124 -0.716364 -0.629402
vn -0.000000 -0.707107 -0.707107
vn 0.000000 0.707107 -0.707107
vn 0.765163 0.637572 -0.089597
vn 0.762268 -0.642357 -0.079530
vn 0.241997 -0.970215 -0.010964
vn 0.232239 0.972410 -0.022003
vn 0.000000 1.000000 0.000000
vn -0.301124 0.716364 0.629402
vn -0.301124 -0.716364 0.629402
vn -0.718176 0.293090 0.631128
vn -0.718176 -0.293090 0.631128
vn -0.718176 -0.293089 -0.631128
vn -0.718176 0.293090 -0.631128
vn -0.301124 0.716364 -0.629402
vn -0.301124 -0.716364 -0.629402
vn 0.707107 -0.707107 -0.000000
vn 0.648679 -0.751206 -0.122090
vn 0.181814 -0.982668 -0.036161
vn 0.784763 -0.592095 -0.183223
vn 0.790070 0.588040 -0.173203
vn 0.168131 0.985640 -0.015702
vn 0.040089 0.763345 -0.644746
vn 0.010566 -0.773664 -0.633508
vn 0.731543 -0.667748 -0.137686
vn 0.648679 0.751206 -0.122090
vn 0.731543 0.667748 -0.137686
vn 0.707107 0.707107 0.000000
vn -0.000000 1.000000 0.000000
# 83 vertex normals

vt 0.085356 0.355573 0.000000
vt 0.085356 0.503593 0.000000
vt 0.223759 0.503593 0.000000
vt 0.223759 0.355573 0.000000
vt 0.450172 0.131859 0.000000
vt 0.450172 0.266966 0.000000
vt 0.194160 0.171362 0.000000
vt 0.223089 0.867182 0.000000
vt 0.223089 0.765839 0.000000
vt 0.030509 0.765839 0.000000
vt 0.030509 0.827250 0.000000
vt 0.520006 0.398763 0.000000
vt 0.223340 0.355448 0.000000
vt 0.223340 0.503593 0.000000
vt 0.685840 0.267103 0.000000
vt 0.685840 0.372455 0.000000
vt 0.340267 0.372455 0.000000
vt 0.340267 0.267103 0.000000
vt 0.208896 0.324986 0.000000
vt 0.208896 0.201915 0.000000
vt 0.442764 0.250409 0.000000
vt 0.442764 0.324986 0.000000
vt 0.685841 0.416175 0.000000
vt 0.685841 0.472738 0.000000
vt 0.340025 0.472738 0.000000
vt 0.340025 0.416175 0.000000
vt 0.360029 0.336265 0.000000
vt 0.165087 0.336265 0.000000
vt 0.165087 0.131712 0.000000
vt 0.360029 0.131712 0.000000
vt 0.845409 0.786478 0.000000
vt 0.845409 0.929071 0.000000
vt 0.752747 0.929050 0.000000
vt 0.752747 0.786499 0.000000
vt 0.596029 0.883119 0.000000
vt 0.622620 0.883119 0.000000
vt 0.622620 0.999591 0.000000
vt 0.596029 0.999591 0.000000
vt 0.459815 0.336485 0.000000
vt 0.321727 0.336485 0.000000
vt 0.321727 0.529322 0.000000
vt 0.459815 0.529322 0.000000
vt 0.613604 0.508100 0.000000
vt 0.613604 0.366139 0.000000
vt 0.421305 0.475314 0.000000
vt 0.421305 0.508100 0.000000
vt 0.565313 0.235894 0.000000
vt 0.565313 0.320863 0.000000
vt 0.492296 0.292828 0.000000
vt 0.492296 0.263929 0.000000
vt 0.105765 0.827351 0.000000
vt 0.165114 0.827351 0.000000
vt 0.165114 0.887881 0.000000
vt 0.105765 0.887881 0.000000
vt 0.613876 0.410854 0.000000
vt 0.613876 0.508100 0.000000
vt 0.421805 0.508100 0.000000
vt 0.421805 0.410854 0.000000
vt 0.337350 0.829391 0.000000
vt 0.166311 0.829391 0.000000
vt 0.166311 0.889599 0.000000
vt 0.337350 0.889599 0.000000
vt 0.166311 0.948007 0.000000
vt 0.337350 0.948007 0.000000
vt 0.337350 0.770983 0.000000
vt 0.166311 0.770984 0.000000
vt 0.260517 0.828017 0.000000
vt 0.260517 0.768933 0.000000
vt 0.050591 0.768933 0.000000
vt 0.050591 0.828017 0.000000
vt 0.260517 0.888922 0.000000
vt 0.050591 0.888922 0.000000
vt 0.260517 0.948007 0.000000
vt 0.050591 0.948007 0.000000
vt 0.165114 0.768630 0.000000
vt 0.105307 0.768630 0.000000
vt 1.289673 0.948328 0.000000
vt 1.397926 0.948328 0.000000
vt 1.397926 0.772790 0.000000
vt 1.289673 0.772790 0.000000
vt 0.165114 0.946602 0.000000
vt 0.105307 0.946602 0.000000
vt 0.397079 0.508100 0.000000
vt 0.397079 0.410854 0.000000
vt 1.227013 0.884345 0.000000
vt 1.227013 0.836774 0.000000
vt 0.071911 0.947448 0.000000
vt 0.071911 0.767585 0.000000
vt 0.162046 0.767585 0.000000
vt 0.162046 0.947448 0.000000
vt 0.162045 0.947448 0.000000
vt 0.162045 0.767585 0.000000
vt 0.442718 0.348160 0.000000
vt 0.633484 0.348160 0.000000
vt 0.633484 0.411884 0.000000
vt 0.442718 0.411884 0.000000
vt 0.633484 0.459262 0.000000
vt 0.442718 0.459262 0.000000
vt 0.633484 0.522986 0.000000
vt 0.442718 0.522986 0.000000
vt 0.396550 0.508100 0.000000
vt 0.396550 0.475314 0.000000
vt 0.452981 0.789098 0.000000
vt 0.452981 0.931059 0.000000
vt 0.223462 0.931059 0.000000
vt 0.223462 0.789098 0.000000
vt 0.452981 0.833813 0.000000
vt 0.223734 0.931059 0.000000
vt 0.223734 0.833813 0.000000
# 109 texture coords

g 140
usemtl 01___Default
s 1
f -104/-109/-83 -103/-108/-82 -102/-107/-81 -101/-106/-80 
f -100/-105/-79 -99/-104/-78 -98/-103/-77 
f -97/-102/-76 -96/-101/-75 -102/-100/-81 -95/-99/-74 
f -96/-98/-75 -101/-97/-80 -102/-96/-81 
f -99/-95/-78 -95/-94/-74 -94/-93/-73 -93/-92/-72 
f -92/-103/-71 -103/-104/-82 -104/-105/-83 
f -95/-107/-74 -99/-108/-78 -100/-109/-79 -91/-106/-70 
f -92/-91/-71 -98/-90/-77 -99/-89/-78 -103/-88/-82 
f -95/-96/-74 -91/-97/-70 -97/-98/-76 
f -95/-87/-74 -102/-86/-81 -90/-85/-69 -94/-84/-73 
f -101/-83/-80 -96/-82/-75 -92/-81/-71 -104/-80/-83 
f -98/-81/-77 -97/-82/-76 -91/-83/-70 -100/-80/-79 
f -93/-79/-72 -94/-78/-73 -90/-77/-69 -89/-76/-68 
f -103/-75/-82 -99/-74/-78 -93/-73/-72 -89/-72/-68 
f -98/-71/-77 -92/-70/-71 -96/-69/-75 -97/-68/-76 
f -90/-93/-69 -102/-94/-81 -103/-95/-82 -89/-92/-68 
f -88/-67/-67 -87/-66/-66 -86/-65/-65 -85/-64/-67 
f -84/-63/-64 -83/-62/-63 -82/-61/-62 -81/-60/-61 
f -80/-59/-60 -79/-58/-59 -78/-57/-58 -77/-56/-57 
f -87/-55/-66 -76/-54/-56 -75/-53/-55 -86/-52/-65 
f -74/-51/-54 -78/-50/-58 -79/-49/-59 -73/-48/-53 
f -73/-48/-53 -79/-49/-59 -72/-47/-52 -71/-46/-51 
f -70/-45/-50 -69/-44/-49 -78/-50/-58 -74/-51/-54 
f -73/-43/-53 -71/-42/-51 -68/-41/-48 -67/-40/-47 
f -74/-39/-54 -73/-43/-53 -67/-40/-47 -66/-38/-46 
f -70/-37/-50 -74/-39/-54 -66/-38/-46 -65/-36/-45 
f -64/-58/-44 -63/-35/-43 -84/-34/-64 -81/-59/-61 
f -62/-33/-42 -61/-32/-41 -60/-31/-40 -59/-30/-39 
f -58/-29/-38 -57/-57/-37 -82/-56/-62 -83/-28/-63 
f -86/-52/-65 -75/-53/-55 -56/-27/-36 -55/-26/-35 
f -54/-25/-34 -62/-33/-42 -59/-30/-39 -53/-24/-33 
f -52/-33/-32 -51/-25/-31 -50/-24/-30 -49/-30/-29 
f -60/-23/-40 -48/-22/-28 -49/-21/-29 -59/-20/-39 
f -62/-19/-42 -52/-18/-32 -47/-22/-27 -61/-23/-41 
f -57/-57/-37 -64/-58/-44 -81/-59/-61 -82/-56/-62 
f -59/-17/-39 -49/-16/-29 -50/-15/-30 -53/-14/-33 
f -53/-14/-33 -50/-15/-30 -51/-13/-31 -54/-12/-34 
f -64/-49/-44 -57/-50/-37 -46/-51/-26 -45/-48/-25 
f -54/-12/-34 -51/-13/-31 -52/-11/-32 -62/-10/-42 
f -63/-47/-43 -64/-49/-44 -45/-48/-25 -44/-46/-24 
f -57/-50/-37 -58/-44/-38 -43/-45/-23 -46/-51/-26 
f -47/-32/-27 -52/-33/-32 -49/-30/-29 -48/-31/-28 
f -75/-65/-55 -42/-64/-22 -41/-9/-22 -56/-8/-36 
f -40/-31/-40 -39/-32/-41 -38/-33/-21 -37/-30/-20 
f -37/-30/-20 -38/-33/-21 -36/-25/-19 -35/-24/-18 
f -34/-24/-17 -33/-25/-16 -32/-33/-15 -31/-30/-14 
f -31/-21/-14 -30/-22/-28 -40/-23/-40 -37/-20/-20 
f -29/-22/-27 -32/-18/-15 -38/-19/-21 -39/-23/-41 
f -34/-15/-17 -31/-16/-14 -37/-17/-20 -35/-14/-18 
f -33/-13/-16 -34/-15/-17 -35/-14/-18 -36/-12/-19 
f -32/-11/-15 -33/-13/-16 -36/-12/-19 -38/-10/-21 
f -31/-30/-14 -32/-33/-15 -29/-32/-27 -30/-31/-28 
f -28/-8/-13 -27/-65/-12 -26/-64/-67 -25/-9/-67 
f -24/-7/-36 -23/-6/-22 -22/-5/-22 -76/-4/-56 
f -21/-41/-11 -44/-42/-24 -45/-43/-25 -20/-40/-10 
f -20/-40/-10 -45/-43/-25 -46/-39/-26 -19/-38/-9 
f -19/-38/-9 -46/-39/-26 -43/-37/-23 -18/-36/-8 
f -17/-3/-35 -24/-6/-36 -76/-2/-56 -87/-1/-66 
f -77/-61/-57 -16/-62/-7 -15/-63/-6 -80/-60/-60 
f -14/-4/-5 -13/-7/-13 -12/-6/-67 -11/-5/-67 
f -27/-65/-12 -14/-66/-5 -11/-67/-67 -26/-64/-67 
f -10/-53/-4 -9/-54/-3 -14/-55/-5 -27/-52/-12 
f -76/-66/-56 -22/-67/-22 -42/-64/-22 -75/-65/-55 
f -8/-5/-22 -7/-6/-22 -6/-7/-2 -9/-4/-3 
f -5/-9/-1 -4/-64/-1 -10/-65/-4 -3/-8/-2 
f -9/-2/-3 -6/-6/-2 -13/-3/-13 -14/-1/-5 
f -4/-64/-1 -8/-67/-22 -9/-66/-3 -10/-65/-4 
f -15/-34/-6 -72/-35/-52 -79/-58/-59 -80/-59/-60 
f -2/-6/-67 -17/-7/-35 -87/-4/-66 -88/-5/-67 
f -77/-56/-57 -78/-57/-58 -69/-29/-49 -16/-28/-7 
f -3/-27/-2 -10/-53/-4 -27/-52/-12 -28/-26/-13 
f -85/-64/-67 -86/-65/-65 -55/-8/-35 -1/-9/-67 
# 68 polygons - 4 triangles

