# 3ds Max Wavefront OBJ Exporter v0.97b - (c)2007 guruware
# File Created: 27.09.2011 22:40:30

mtllib Fighter_lod2.mtl

#
# object Fighter
#

v  -12.1443 4.2345 52.2530
v  -11.2447 9.6663 25.0630
v  -34.0097 -4.1252 26.5724
v  17.7477 -2.3507 17.2487
v  0.1408 -7.6845 -6.5339
v  3.9191 -2.3694 -38.0273
v  -17.5544 -2.3185 17.5227
v  -6.1353 -7.5090 -2.0944
v  -3.6249 -1.8535 49.6852
v  -10.9948 0.6379 -59.7710
v  -23.1333 -2.1399 -16.9354
v  -6.4397 -3.6333 -36.3596
v  -0.1051 7.1466 -9.7257
v  3.9428 3.4528 -35.6511
v  7.8567 6.4891 -7.8306
v  11.5775 9.6455 24.8859
v  9.9949 0.6188 -59.9339
v  4.3198 -1.8607 49.6236
v  12.8891 4.2117 52.0588
v  -10.3374 -3.9790 -12.5143
v  -1.4518 -6.2514 -20.5035
v  -2.4625 -6.9291 -40.6833
v  -2.5798 -2.7836 -34.3240
v  34.3380 -4.1874 26.0421
v  22.7915 -2.1817 -17.2917
v  15.8513 -0.5840 50.1847
v  -4.2289 9.4051 6.5901
v  -15.5124 -3.7865 49.8500
v  -31.2318 -2.8495 39.7973
v  7.1739 3.2059 46.8243
v  -6.5129 3.2183 46.9305
v  -5.1865 -12.0446 -9.2879
v  31.7680 -2.9068 39.3085
v  -5.4117 -9.1579 -35.1841
v  -6.3194 -7.2914 -20.4268
v  -10.3424 -12.1504 -12.2095
# 36 vertices

vn -0.2023 0.9654 0.1646
vn -0.2721 0.9606 0.0558
vn -0.4845 0.8748 0.0040
vn 0.4133 -0.9047 -0.1031
vn -0.0478 -0.9982 0.0359
vn -0.2376 -0.9643 0.1168
vn 0.0620 -0.2949 0.9535
vn -0.4525 0.8866 -0.0957
vn -0.5193 0.8496 -0.0918
vn -0.6863 0.6892 -0.2323
vn -0.2879 0.9370 -0.1976
vn -0.7804 0.5763 -0.2426
vn 0.1054 0.9886 -0.1078
vn 0.2730 0.9609 0.0464
vn -0.1673 0.9493 -0.2663
vn 0.1678 -0.9822 0.0845
vn 0.1267 -0.9896 0.0675
vn 0.3074 -0.8622 0.4027
vn 0.2066 0.9650 0.1614
vn -0.1402 -0.9901 -0.0060
vn -0.1229 -0.9920 -0.0285
vn -0.6108 -0.6580 -0.4404
vn 0.9925 0.1100 -0.0534
vn 0.4861 0.8739 -0.0036
vn 0.5193 0.8487 -0.0999
vn 0.1070 -0.9925 0.0594
vn 0.0193 0.9936 -0.1112
vn 0.0666 0.9816 -0.1788
vn -0.1681 -0.8253 -0.5392
vn 0.0141 -0.9997 -0.0194
vn -0.0964 -0.9953 0.0076
vn -0.2369 -0.9629 -0.1296
vn 0.8403 0.2318 -0.4900
vn 0.9506 0.2799 -0.1339
vn -0.1218 -0.8104 0.5731
vn -0.0548 -0.9917 0.1167
vn -0.1075 -0.7583 0.6430
vn 0.1676 -0.7252 0.6678
vn 0.0072 0.4805 0.8770
vn 0.0864 -0.9946 0.0572
vn 0.2259 -0.9723 -0.0608
vn -0.0079 -0.9758 -0.2186
vn -0.6534 -0.7570 0.0070
vn -0.7445 -0.6674 0.0140
vn -0.8602 -0.4749 0.1860
vn -0.5206 -0.8502 -0.0781
vn 0.6717 -0.7253 -0.1510
vn 0.4713 -0.8377 -0.2758
vn 0.3997 -0.8662 -0.2997
vn -0.1312 -0.9905 0.0406
vn -0.0795 -0.9899 0.1172
vn 0.2582 -0.4519 0.8539
vn -0.0889 0.9912 -0.0985
vn 0.1022 0.8342 -0.5419
vn -0.1512 0.6855 -0.7122
vn -0.9811 -0.1903 -0.0363
vn 0.1300 -0.9908 0.0386
vn 0.4678 -0.6228 -0.6271
vn -0.9618 0.1068 -0.2522
vn 0.5992 -0.8006 -0.0031
vn -0.7106 -0.5173 -0.4769
vn -0.8017 -0.2633 -0.5367
vn -0.8859 0.0178 0.4636
vn -1.0000 0.0003 -0.0089
vn -0.8942 -0.0161 -0.4473
vn -0.7755 -0.6166 -0.1357
vn 0.1210 -0.9875 -0.1012
vn -0.1853 -0.6768 0.7124
vn -0.0991 0.5234 0.8463
vn 0.1876 -0.6020 0.7762
vn -0.0607 0.4495 0.8912
vn 0.2090 -0.9685 0.1354
vn 0.2246 -0.8915 -0.3933
vn 0.1818 -0.8829 -0.4330
vn 0.0035 -0.9942 0.1079
vn 0.0399 -0.9941 0.1005
vn 0.3546 -0.7691 0.5317
vn -0.0001 -0.9941 0.1086
vn -0.4828 0.3326 -0.8101
vn -0.0734 -0.9687 -0.2371
vn 0.1108 0.9862 -0.1232
vn -0.4932 0.0327 0.8693
vn -0.3363 0.9416 -0.0202
vn 0.3376 0.9409 -0.0254
# 84 vertex normals

vt 0.7815 0.0228 0.0000
vt 0.8494 0.2819 0.0000
vt 0.6152 0.2819 0.0000
vt 0.9857 0.9337 0.0000
vt 0.8461 0.8256 0.0000
vt 0.9382 0.5549 0.0000
vt 0.5097 0.5238 0.0000
vt 0.4368 0.5859 0.0000
vt 0.4488 0.9793 0.0000
vt 0.2289 0.7103 0.0000
vt 0.3445 0.3039 0.0000
vt 0.2025 0.0185 0.0000
vt 0.7158 0.4407 0.0000
vt 0.9751 0.5118 0.0000
vt 0.7137 0.5115 0.0000
vt 0.0442 0.2074 0.0000
vt 0.0191 0.0185 0.0000
vt 0.0191 0.7105 0.0000
vt 0.5479 0.6567 0.0000
vt 0.8806 0.0228 0.0000
vt 0.8676 0.2819 0.0000
vt 0.1559 0.7720 0.0000
vt 0.0551 0.7030 0.0000
vt 0.2035 0.5088 0.0000
vt 0.5171 -0.3106 0.0000
vt 0.5163 -0.0929 0.0000
vt 0.4740 -0.1631 0.0000
vt 0.3648 0.0185 0.0000
vt 0.5368 0.9702 0.0000
vt 0.3802 0.2056 0.0000
vt 0.3782 0.7103 0.0000
vt 0.3512 0.4704 0.0000
vt 0.2057 0.5269 0.0000
vt 0.1605 0.9057 0.0000
vt 0.1457 0.2632 0.0000
vt 0.3198 0.4909 0.0000
vt 0.5877 0.3602 0.0000
vt 0.5953 0.1045 0.0000
vt 0.4645 0.1449 0.0000
vt 0.4676 0.1219 0.0000
vt 0.4326 0.1803 0.0000
vt 0.6123 0.9770 0.0000
vt 0.6568 0.9770 0.0000
vt 0.6123 0.7931 0.0000
vt 0.7855 0.8678 0.0000
vt 0.7313 0.7693 0.0000
vt 0.7656 0.8115 0.0000
vt 0.7033 0.9337 0.0000
vt 0.4656 -0.3274 0.0000
vt 0.5067 -0.2270 0.0000
vt 0.4778 -0.1016 0.0000
vt 0.0353 0.9881 0.0000
vt 0.9751 0.4696 0.0000
vt 0.0678 0.0185 0.0000
vt 0.6840 -0.0594 0.0000
vt 0.6365 -0.0667 0.0000
vt 0.6137 -0.0376 0.0000
vt 0.5427 -0.1510 0.0000
vt 0.5284 -0.3106 0.0000
vt 0.4810 -0.1870 0.0000
vt 0.7140 0.4500 0.0000
vt 0.6799 0.4885 0.0000
vt 0.3186 0.4708 0.0000
vt 0.4824 -0.1405 0.0000
vt 0.4544 -0.1879 0.0000
vt 0.5007 -0.1719 0.0000
vt 0.5082 -0.1016 0.0000
vt 0.7539 0.5790 0.0000
vt 0.7741 0.6922 0.0000
vt 0.6500 0.0130 0.0000
vt 0.1832 0.8526 0.0000
vt 0.3172 0.8268 0.0000
vt 0.3534 0.9074 0.0000
vt 0.3531 0.8489 0.0000
vt 0.3177 0.9298 0.0000
vt 0.4660 -0.0643 0.0000
vt 0.4661 -0.0403 0.0000
vt 0.6029 -0.0403 0.0000
vt 0.5067 -0.1948 0.0000
vt 0.5042 -0.1015 0.0000
vt 0.7186 0.6425 0.0000
vt 0.6955 0.9776 0.0000
vt 0.7186 0.6426 0.0000
vt 0.5178 -0.3276 0.0000
vt 0.9189 0.4103 0.0000
vt 0.0801 0.0675 0.0000
vt 0.6123 0.7235 0.0000
vt 0.6568 0.8508 0.0000
vt 0.6568 0.4546 0.0000
vt 0.6123 0.4975 0.0000
vt 0.1980 0.2074 0.0000
vt 0.1212 0.2277 0.0000
vt 0.5204 0.0697 0.0000
vt 0.7042 0.0649 0.0000
vt 0.2370 0.7242 0.0000
vt 0.2370 0.8028 0.0000
vt 0.3211 0.8028 0.0000
vt 0.5204 0.0698 0.0000
vt 0.4347 0.2741 0.0000
vt 0.6334 0.1527 0.0000
# 100 texture coords

g Fighter
usemtl Hgn_InterceptorA_EXPO_Hgn_InterceptorA_EXPO
s 1
f 1/1/1 2/2/2 3/3/3 
s 16
f 4/4/4 5/5/4 6/6/4 
s 8
f 7/7/5 8/8/6 9/9/7 
s 1
f 10/10/8 11/11/9 2/12/2 
f 12/13/10 13/14/11 14/15/12 
f 15/16/13 16/17/14 17/18/15 
s 2
f 4/19/16 18/9/17 5/8/18 
s 1
f 19/20/19 2/21/2 1/20/1 
s 8
f 20/22/20 11/23/21 12/24/22 
s 16
f 21/25/23 22/26/23 23/27/23 
s 1
f 16/12/14 24/28/24 25/11/25 
s 2
f 26/29/26 18/9/17 4/19/16 
f 15/30/27 17/31/27 14/32/28 
s 8
f 6/33/29 25/23/30 4/34/31 
f 11/23/21 10/35/32 12/24/22 
s 4
f 12/36/33 10/31/34 27/30/34 
s 1
f 2/12/2 11/11/9 3/28/3 
s 8
f 7/37/5 28/38/35 29/39/36 
f 28/29/35 7/7/5 9/9/7 
f 30/40/37 31/40/38 18/41/39 
s 4
f 5/42/40 21/43/41 6/44/42 
s 1
f 8/45/43 20/46/44 32/47/45 
f 7/48/46 20/46/44 8/45/43 
s 32
f 5/49/47 32/50/48 21/51/49 
s 8
f 25/23/30 24/52/50 4/34/31 
f 4/37/31 33/39/51 26/38/52 
s 1
f 13/14/11 12/13/10 27/53/53 
f 27/54/53 16/17/14 15/16/13 
s 8
f 22/55/54 12/56/22 23/57/55 
f 34/58/56 35/59/56 12/60/22 
f 11/23/21 20/22/20 7/34/5 
f 11/23/21 7/34/5 3/52/57 
s 1
f 16/21/14 2/21/2 19/20/19 
f 19/1/19 24/3/24 16/2/14 
s 2
f 12/61/58 14/15/28 23/62/58 
s 1
f 6/63/59 14/32/12 17/31/15 
s 32
f 21/25/49 34/58/60 22/26/60 
s 4
f 34/58/61 12/64/33 22/26/62 
s 16
f 36/65/63 20/66/64 35/67/65 
s 1
f 12/68/10 35/69/66 20/46/44 
f 16/12/14 25/11/25 17/10/15 
s 8
f 25/23/30 6/33/29 17/35/67 
f 33/39/51 19/70/68 26/38/52 
s 1
f 26/71/69 30/72/69 18/73/69 
s 8
f 1/70/70 29/39/36 28/38/35 
s 1
f 28/71/71 9/74/71 31/75/71 
s 4
f 21/76/41 35/77/72 34/78/61 
s 32
f 36/79/73 35/80/74 21/51/49 
s 4
f 5/81/40 18/82/75 8/83/76 
s 2
f 8/84/77 32/50/77 5/49/18 
s 1
f 16/21/14 27/85/53 2/21/2 
f 10/18/8 2/17/2 27/86/53 
s 4
f 18/82/75 9/82/78 8/83/76 
s 8
f 31/40/38 9/41/7 18/41/39 
f 14/87/79 6/44/29 23/88/55 
s 4
f 23/88/80 6/44/42 21/43/41 
s 16
f 13/89/81 15/90/81 14/87/81 
s 1
f 27/86/53 15/91/13 13/92/11 
s 8
f 30/40/37 19/93/68 31/40/38 
f 30/94/37 26/38/52 19/70/68 
s 32
f 32/50/48 36/79/73 21/51/49 
s 16
f 20/95/64 36/96/63 32/97/82 
s 8
f 31/94/38 1/70/70 28/38/35 
f 1/98/70 31/40/38 19/93/68 
f 3/99/57 7/37/5 29/39/36 
s 1
f 29/100/83 1/1/1 3/3/3 
s 8
f 24/99/50 33/39/51 4/37/31 
s 1
f 33/100/84 24/3/24 19/1/19 
# 0 polygons - 68 triangles

