# 3ds Max Wavefront OBJ Exporter v0.97b - (c)2007 guruware
# File Created: 17.11.2010 11:40:23

mtllib terrakin_mine_LOW.mtl

#
# object Mine_Low
#

v  -0.000000 0.000010 0.898277
v  0.898277 0.000010 0.000000
v  0.000000 0.898287 -0.000000
v  0.000000 0.000010 -0.898277
v  -0.898277 0.000010 -0.000000
v  -0.000000 -0.898267 0.000000
# 6 vertices

vn -0.000000 0.000000 1.000000
vn 1.000000 0.000000 0.000000
vn -0.000000 1.000000 -0.000000
vn 0.000000 -0.000000 -1.000000
vn -1.000000 0.000000 -0.000000
vn 0.000000 -1.000000 0.000000
# 6 vertex normals

vt 0.691288 0.816068 0.000000
vt 0.723156 0.847936 0.000000
vt 0.755024 0.816068 0.000000
# 3 texture coords

g Mine_Low
usemtl 01___Default
s 1
f -6/-3/-6 -5/-2/-5 -4/-1/-4 
f -5/-2/-5 -3/-3/-3 -4/-1/-4 
f -3/-3/-3 -2/-2/-2 -4/-1/-4 
f -2/-2/-2 -6/-3/-6 -4/-1/-4 
f -5/-2/-5 -6/-1/-6 -1/-3/-1 
f -3/-1/-3 -5/-2/-5 -1/-3/-1 
f -2/-2/-2 -3/-1/-3 -1/-3/-1 
f -6/-1/-6 -2/-2/-2 -1/-3/-1 
# 0 polygons - 8 triangles

