# 3ds Max Wavefront OBJ Exporter v0.97b - (c)2007 guruware
# File Created: 17.11.2010 11:40:01

mtllib terrakin_mine_HIGH.mtl

#
# object Mine_High
#

v  -0.899248 0.000010 -0.000000
v  -0.600700 0.000010 0.298547
v  -0.600700 0.298557 0.000000
v  -0.125473 0.663996 0.000000
v  -0.545806 0.243663 0.000000
v  -0.545806 0.000010 0.243653
v  -0.125473 0.000010 0.663986
v  -0.125473 0.000010 -0.663986
v  -0.545806 0.000010 -0.243653
v  -0.600700 0.000010 -0.298547
v  -0.600700 -0.298538 -0.000000
v  -0.545806 -0.243643 -0.000000
v  -0.125473 -0.663977 -0.000000
v  0.000000 0.905531 0.000000
v  -0.125473 0.780058 0.000000
v  -0.125473 0.000010 0.780049
v  0.000000 0.000010 0.905521
v  0.000000 0.000010 -0.905521
v  -0.125473 0.000010 -0.780049
v  -0.125473 -0.780039 -0.000000
v  0.000000 -0.905512 -0.000000
v  0.600700 0.000010 0.298547
v  0.899248 0.000010 -0.000000
v  0.600700 0.298557 0.000000
v  0.545806 0.000010 0.243653
v  0.545806 0.243663 0.000000
v  0.125473 0.663996 0.000000
v  0.125473 0.000010 0.663986
v  0.545806 0.000010 -0.243653
v  0.125473 0.000010 -0.663986
v  0.600700 0.000010 -0.298547
v  0.600700 -0.298538 -0.000000
v  0.545806 -0.243643 -0.000000
v  0.125473 -0.663977 -0.000000
v  0.125473 0.000010 0.780049
v  0.125473 0.780058 0.000000
v  0.125473 0.000010 -0.780049
v  0.125473 -0.780039 -0.000000
# 38 vertices

vn -1.000000 0.000000 -0.000000
vn 0.000000 -0.000000 1.000000
vn 0.000000 1.000000 0.000000
vn -0.979781 0.200073 0.000000
vn -0.000000 -0.000000 1.000000
vn -0.979781 -0.000000 0.200073
vn -0.979781 0.000000 -0.200073
vn 0.000000 0.000000 -1.000000
vn 0.000000 -1.000000 -0.000000
vn -0.000000 -1.000000 -0.000000
vn -0.979781 -0.200073 -0.000000
vn -0.000000 1.000000 -0.000000
vn -0.855131 0.518412 -0.000000
vn -0.855131 0.000000 0.518412
vn -0.000000 0.000000 1.000000
vn -0.000000 -0.000000 -1.000000
vn -0.855131 -0.000000 -0.518412
vn -0.855131 -0.518412 0.000000
vn -0.000000 -1.000000 0.000000
vn 1.000000 0.000000 -0.000000
vn -0.000000 1.000000 0.000000
vn 0.979781 0.200073 -0.000000
vn 0.979781 0.000000 0.200073
vn 0.979781 -0.000000 -0.200073
vn -0.000000 0.000000 -1.000000
vn 0.979781 -0.200073 0.000000
vn 0.855131 0.000000 0.518412
vn 0.855131 0.518412 -0.000000
vn 0.855131 -0.000000 -0.518412
vn 0.855131 -0.518412 0.000000
# 30 vertex normals

vt 0.723790 0.844516 0.000000
vt 0.696149 0.816875 0.000000
vt 0.751430 0.816875 0.000000
vt 0.937222 0.972243 0.000000
vt 0.889679 0.924700 0.000000
vt 0.834561 0.924700 0.000000
vt 0.787019 0.972243 0.000000
vt 0.723789 0.844516 0.000000
vt 0.293976 0.682709 0.000000
vt 0.277646 0.666379 0.000000
vt 0.074603 0.666379 0.000000
vt 0.058273 0.682709 0.000000
vt 0.936662 0.895536 0.000000
vt 0.952802 0.911676 0.000000
vt 0.777239 0.911676 0.000000
vt 0.793379 0.895536 0.000000
vt 0.262541 0.651274 0.000000
vt 0.089709 0.651274 0.000000
vt 0.089708 0.651274 0.000000
# 19 texture coords

g Mine_High
usemtl 01___Default
s 1
f -38/-19/-30 -37/-18/-29 -36/-17/-28 
f -35/-16/-27 -34/-15/-28 -33/-14/-26 -32/-13/-25 
f -31/-13/-24 -30/-14/-23 -34/-15/-28 -35/-16/-27 
f -29/-17/-23 -38/-19/-30 -36/-18/-28 
f -37/-18/-29 -38/-19/-30 -28/-17/-22 
f -32/-13/-25 -33/-14/-26 -27/-15/-21 -26/-16/-20 
f -26/-16/-20 -27/-15/-21 -30/-14/-23 -31/-13/-24 
f -38/-12/-30 -29/-18/-23 -28/-17/-22 
f -25/-11/-19 -24/-10/-18 -23/-9/-17 -22/-8/-16 
f -21/-8/-15 -20/-9/-14 -24/-10/-18 -25/-11/-19 
f -22/-8/-16 -23/-9/-17 -19/-10/-13 -18/-11/-12 
f -18/-11/-12 -19/-10/-13 -20/-9/-14 -21/-8/-15 
f -34/-7/-28 -36/-6/-28 -37/-5/-29 -33/-4/-26 
f -30/-7/-23 -29/-6/-23 -36/-5/-28 -34/-4/-28 
f -33/-7/-26 -37/-6/-29 -28/-5/-22 -27/-4/-21 
f -27/-4/-21 -28/-5/-22 -29/-6/-23 -30/-7/-23 
f -24/-10/-18 -35/-3/-27 -32/-2/-25 -23/-9/-17 
f -20/-9/-14 -31/-1/-24 -35/-3/-27 -24/-10/-18 
f -23/-9/-17 -32/-1/-25 -26/-3/-20 -19/-10/-13 
f -19/-10/-13 -26/-3/-20 -31/-2/-24 -20/-9/-14 
f -17/-18/-26 -16/-19/-11 -15/-17/-10 
f -14/-14/-29 -13/-15/-28 -12/-16/-9 -11/-13/-8 
f -13/-15/-28 -10/-14/-23 -9/-13/-7 -12/-16/-9 
f -16/-19/-11 -8/-17/-6 -15/-18/-10 
f -16/-19/-11 -17/-18/-26 -7/-17/-21 
f -6/-15/-22 -14/-14/-29 -11/-13/-8 -5/-16/-5 
f -10/-14/-23 -6/-15/-22 -5/-16/-5 -9/-13/-7 
f -8/-18/-6 -16/-12/-11 -7/-17/-21 
f -4/-9/-4 -3/-10/-3 -25/-11/-19 -22/-8/-16 
f -3/-10/-3 -2/-9/-2 -21/-8/-15 -25/-11/-19 
f -1/-10/-1 -4/-9/-4 -22/-8/-16 -18/-11/-12 
f -2/-9/-2 -1/-10/-1 -18/-11/-12 -21/-8/-15 
f -17/-5/-26 -15/-6/-10 -13/-7/-28 -14/-4/-29 
f -15/-5/-10 -8/-6/-6 -10/-7/-23 -13/-4/-28 
f -7/-5/-21 -17/-6/-26 -14/-7/-29 -6/-4/-22 
f -8/-6/-6 -7/-5/-21 -6/-4/-22 -10/-7/-23 
f -11/-2/-8 -12/-3/-9 -3/-10/-3 -4/-9/-4 
f -12/-3/-9 -9/-1/-7 -2/-9/-2 -3/-10/-3 
f -5/-3/-5 -11/-1/-8 -4/-9/-4 -1/-10/-1 
f -9/-2/-7 -5/-3/-5 -1/-10/-1 -2/-9/-2 
# 32 polygons - 8 triangles

