# 3ds Max Wavefront OBJ Exporter v0.97b - (c)2007 guruware
# File Created: 10.08.2010 20:35:31

mtllib Terrakin_Small 2 - LOD2.mtl

#
# object cylinder8_1
#

v  -483.668823 13.977300 27.818899
v  -483.668823 30.193401 -0.268200
v  -483.668823 -2.238800 -0.268200
v  -396.991302 13.977300 27.818899
v  -396.991302 30.193401 -0.268200
v  -396.991302 13.977300 -28.355398
v  -483.668823 13.977300 -28.355398
v  -483.668823 -18.455000 27.818899
v  -396.991302 -18.455000 27.818899
v  -483.668823 -34.671101 -0.268200
v  -396.991302 -34.671101 -0.268200
v  -396.991302 -18.455000 -28.355398
v  -483.668823 -18.455000 -28.355398
v  -232.407303 -30.285999 48.639103
v  -232.407303 -58.348503 0.033400
v  -232.407303 -2.223500 0.033400
v  -396.907288 -30.285999 48.639103
v  -396.907288 -58.348503 0.033400
v  -437.452087 -2.223500 0.033400
v  -232.407303 25.839001 48.639103
v  -396.907288 25.839001 48.639103
v  -232.407303 53.901501 0.033400
v  -396.907288 53.901501 0.033400
v  -232.407303 25.839001 -48.572201
v  -396.907288 25.839001 -48.572201
v  -232.407303 -30.285999 -48.572201
v  -396.907288 -30.285999 -48.572201
v  -125.843002 71.012596 -24.099300
v  -126.167908 -1.883000 -13.035400
v  -138.131500 34.731400 -40.907803
v  -241.227386 -24.590202 26.294601
v  -126.167908 -24.590202 26.294601
v  -126.167908 -1.883000 13.184600
v  -241.227386 -1.883000 13.184600
v  -241.227386 15.722699 -19.350399
v  -193.742096 31.345299 -32.422699
v  -241.227386 -1.883000 -13.035400
v  -193.742096 31.345299 32.571899
v  -190.238312 62.432404 13.789100
v  -241.463486 32.918201 6.833300
v  -241.227386 15.722699 19.499599
v  -241.227386 -47.297401 13.184600
v  -126.167908 -47.297401 13.184600
v  -138.131409 35.017399 41.056999
v  -241.227386 -47.297401 -13.035400
v  -126.167908 -47.297401 -13.035400
v  -241.463486 32.918201 -7.650900
v  -190.238312 62.432404 -13.639900
v  -241.463486 32.918201 -0.408800
v  -190.238312 62.432404 0.074600
v  -241.227386 -24.590202 -26.145399
v  -126.167908 -24.590202 -26.145399
v  -125.843002 71.012596 0.074604
v  -125.843002 71.012596 24.248501
v  -126.167908 -1.883000 0.074600
v  -140.646088 -44.134899 -40.378799
v  -140.646088 -73.503296 0.043300
v  -140.574509 -31.000998 0.043300
v  120.122696 -42.064499 -34.006802
v  405.021088 -42.064499 -34.006802
v  405.021088 -66.803406 0.043300
v  120.122696 -66.803406 0.043300
v  413.432648 -56.212002 0.043300
v  413.432648 -38.791599 -23.933800
v  423.420685 -31.000998 0.043300
v  -140.646088 3.384100 -24.938898
v  120.122696 -2.036200 -21.000801
v  405.021088 -2.036200 -21.000801
v  413.432648 -10.604800 -14.775400
v  -140.646088 3.384100 25.025499
v  120.122696 -2.036200 21.087502
v  405.021088 -2.036200 21.087502
v  413.432648 -10.604800 14.862000
v  -140.646088 -44.134899 40.465397
v  120.122696 -42.064499 34.093498
v  405.021088 -42.064499 34.093498
v  413.432648 -38.791599 24.020500
v  104.734001 -73.503296 0.043300
v  104.734001 -44.134899 -40.378799
v  104.734001 -44.134899 40.465397
v  104.734001 3.384100 25.025499
v  104.734001 3.384100 -24.938898
v  430.436279 96.780792 -22.953100
v  -118.108994 96.780792 -22.953100
v  -118.108994 7.781700 -22.953100
v  430.436279 7.781700 -22.953100
v  -118.108994 -32.850197 -57.312603
v  -118.108994 -29.074600 -61.088200
v  430.436279 -29.074600 -61.088200
v  430.436279 -32.850197 -57.312603
v  430.436279 9.963500 -28.292599
v  430.436279 96.780792 -28.292599
v  -118.108994 96.780792 -28.292599
v  -118.108994 9.963500 -28.292599
v  -125.794991 -55.138397 -18.428900
v  -125.794991 81.500999 -18.428900
v  399.304047 81.500999 -18.428900
v  437.726410 11.325600 -18.428900
v  437.726410 11.325600 17.431700
v  -125.794991 -55.138397 17.431700
v  -125.794991 81.500999 17.431700
v  399.304047 81.500999 17.431700
v  -118.108994 96.780792 23.523100
v  430.436279 96.780792 23.523100
v  430.436279 7.781700 23.523100
v  -118.108994 7.781700 23.523100
v  430.436279 -32.850197 57.882599
v  430.436279 -29.074600 61.658195
v  -118.108994 -29.074600 61.658195
v  -118.108994 -32.850197 57.882599
v  -118.108994 9.963500 28.862598
v  -118.108994 96.780792 28.862598
v  430.436279 96.780792 28.862598
v  430.436279 9.963500 28.862598
# 114 vertices

vn -1.000000 0.000000 -0.000000
vn 0.000000 0.866025 0.500000
vn 0.000000 0.866026 -0.499999
vn 0.000000 0.000000 1.000000
vn 0.000000 -0.866025 0.500000
vn 0.000000 0.000000 -1.000000
vn 0.000000 -0.866026 -0.499999
vn 1.000000 0.000000 -0.000000
vn 0.000000 -0.500000 0.866025
vn -0.404909 -0.457179 0.791856
vn -0.404909 -0.914357 -0.000000
vn 0.000000 -1.000000 -0.000000
vn -1.000000 -0.000000 -0.000000
vn 0.000000 0.500000 0.866025
vn -0.404909 0.457179 0.791856
vn 0.000000 1.000000 -0.000000
vn -0.404909 0.914357 -0.000000
vn 0.000000 0.500000 -0.866026
vn -0.404909 0.457178 -0.791857
vn 0.000000 -0.500000 -0.866026
vn -0.404909 -0.457178 -0.791857
vn 0.987844 -0.027621 -0.152974
vn 0.992598 -0.022537 -0.119336
vn 0.876089 -0.076165 -0.476095
vn 0.000000 0.500000 0.866026
vn -0.146451 -0.333988 -0.931131
vn -0.033202 -0.515982 -0.855956
vn -0.084079 -0.409797 -0.908294
vn -0.290216 0.523084 0.801348
vn -0.324000 0.839429 0.436330
vn -0.484244 0.757553 0.437746
vn -0.384326 0.544099 0.745821
vn 0.000000 -0.500000 0.866026
vn -0.048065 -0.574489 0.817100
vn -0.078734 -0.616981 0.783029
vn -0.032689 -0.515275 0.856401
vn -0.084079 -0.409797 0.908294
vn -0.049589 -0.576648 -0.815486
vn -0.081251 -0.620379 -0.780082
vn -0.482296 0.749171 -0.454019
vn -0.321374 0.840591 -0.436033
vn -0.282812 0.520065 -0.805946
vn -0.381033 0.516508 -0.766834
vn -0.499230 0.866469 -0.000000
vn -0.321759 0.946822 -0.000000
vn -0.132075 0.991240 -0.000000
vn -0.190448 0.866222 0.461940
vn -0.146451 -0.333988 0.931131
vn -0.189509 0.487527 0.852293
vn -0.188580 0.485552 -0.853626
vn -0.190589 0.865340 -0.463532
vn 0.875673 -0.076277 0.476843
vn 0.992651 -0.022472 0.118909
vn 0.987714 -0.027744 0.153787
vn 0.999990 -0.004457 -0.000000
vn -0.999999 0.000520 0.001602
vn -0.999999 0.001684 0.000000
vn -1.000000 0.000000 0.000000
vn 0.221003 -0.301375 -0.927540
vn 0.381332 -0.285666 -0.879193
vn 0.381332 -0.924438 -0.000001
vn 0.221002 -0.975273 -0.000001
vn 0.840955 -0.541104 -0.000001
vn 0.840955 -0.167211 -0.514621
vn 1.000000 -0.000001 -0.000000
vn -0.999999 -0.001362 0.000990
vn 0.221001 0.789013 -0.573251
vn 0.381332 0.747886 -0.543371
vn 0.840955 0.437763 -0.318055
vn -0.999999 -0.001362 -0.000990
vn 0.220999 0.789013 0.573252
vn 0.381333 0.747886 0.543371
vn 0.840956 0.437763 0.318052
vn -0.999999 0.000520 -0.001602
vn 0.221000 -0.301375 0.927541
vn 0.381332 -0.285667 0.879193
vn 0.840955 -0.167210 0.514621
vn 0.190102 -0.981764 -0.000000
vn 0.190103 -0.303381 -0.933713
vn 0.190101 -0.303382 0.933714
vn 0.190101 0.794265 0.577066
vn 0.190102 0.794264 -0.577066
vn 0.000000 -0.309016 -0.951057
vn 0.000000 -0.309016 0.951057
vn 0.000000 0.809017 0.587785
vn 0.000000 0.809017 -0.587785
vn 0.000000 -0.343814 0.939038
vn 0.000000 -0.707107 -0.707107
vn 0.000000 0.342294 -0.939593
vn 0.000000 -0.645709 0.763584
vn 0.000000 0.643233 -0.765670
vn 0.117132 -0.993116 -0.000000
vn 0.877133 0.480247 -0.000000
vn 0.000000 -0.343814 -0.939038
vn 0.000000 -0.707107 0.707107
vn 0.000000 0.342294 0.939593
vn 0.000000 -0.645709 -0.763584
vn 0.000000 0.643233 0.765670
# 98 vertex normals

vt 0.100344 0.979476 0.000000
vt 0.040940 0.979197 0.000000
vt 0.070884 0.927891 0.000000
vt 0.772263 0.770941 0.000000
vt 0.956246 0.770941 0.000000
vt 0.956246 0.805362 0.000000
vt 0.772263 0.805362 0.000000
vt 0.772264 0.667680 0.000000
vt 0.956246 0.667680 0.000000
vt 0.956246 0.702100 0.000000
vt 0.772264 0.702100 0.000000
vt 0.130288 0.928170 0.000000
vt 0.772263 0.702100 0.000000
vt 0.011480 0.927612 0.000000
vt 0.100828 0.876585 0.000000
vt 0.772263 0.667680 0.000000
vt 0.772264 0.770941 0.000000
vt 0.041424 0.876306 0.000000
vt 0.772264 0.805362 0.000000
vt 0.900592 0.840410 0.000000
vt 0.938137 0.903961 0.000000
vt 0.864329 0.904701 0.000000
vt 0.815984 0.816049 0.000000
vt 0.816085 0.994813 0.000000
vt 0.768109 0.994833 0.000000
vt 0.768009 0.816069 0.000000
vt 0.864074 0.841637 0.000000
vt 0.918315 0.872953 0.000000
vt 0.864074 0.904269 0.000000
vt 0.826783 0.841150 0.000000
vt 0.911934 0.816009 0.000000
vt 0.912035 0.994773 0.000000
vt 0.918315 0.935586 0.000000
vt 0.790520 0.905441 0.000000
vt 0.959909 0.815988 0.000000
vt 0.960010 0.994753 0.000000
vt 0.864074 0.966902 0.000000
vt 0.828065 0.968991 0.000000
vt 0.809832 0.935586 0.000000
vt 0.901874 0.968251 0.000000
vt 0.809832 0.872953 0.000000
vt 0.904274 0.967467 0.000000
vt 0.885723 0.845242 0.000000
vt 0.932457 0.906634 0.000000
vt 0.795310 0.928836 0.000000
vt 0.970658 0.928836 0.000000
vt 0.970658 0.967431 0.000000
vt 0.795310 0.967431 0.000000
vt 0.727234 0.732555 0.000000
vt 0.770726 0.750008 0.000000
vt 0.727275 0.715594 0.000000
vt 0.768285 0.708938 0.000000
vt 0.780582 0.723953 0.000000
vt 0.733613 0.729526 0.000000
vt 0.728413 0.719398 0.000000
vt 0.795310 0.890242 0.000000
vt 0.970658 0.890242 0.000000
vt 0.830714 0.715594 0.000000
vt 0.821495 0.755863 0.000000
vt 0.770713 0.750011 0.000000
vt 0.821528 0.755610 0.000000
vt 0.795310 0.884116 0.000000
vt 0.970658 0.884116 0.000000
vt 0.970658 0.928681 0.000000
vt 0.795310 0.928681 0.000000
vt 0.733613 0.741119 0.000000
vt 0.780582 0.745907 0.000000
vt 0.768285 0.760959 0.000000
vt 0.728413 0.750493 0.000000
vt 0.733613 0.735322 0.000000
vt 0.780582 0.734930 0.000000
vt 0.830714 0.734942 0.000000
vt 0.727231 0.732552 0.000000
vt 0.810410 0.702159 0.000000
vt 0.810321 0.767763 0.000000
vt 0.830714 0.754290 0.000000
vt 0.795026 0.907114 0.000000
vt 0.841760 0.845242 0.000000
vt 0.823209 0.967467 0.000000
vt 0.863742 0.967467 0.000000
vt 0.863742 0.845242 0.000000
vt 0.790821 0.881687 0.000000
vt 0.863501 0.827679 0.000000
vt 0.591205 0.718262 0.000000
vt 0.956246 0.718262 0.000000
vt 0.956246 0.666827 0.000000
vt 0.591205 0.666827 0.000000
vt 0.679734 0.891180 0.000000
vt 0.721409 0.921458 0.000000
vt 0.679734 0.934999 0.000000
vt 0.819726 0.967499 0.000000
vt 0.956246 0.801485 0.000000
vt 0.591205 0.801485 0.000000
vt 0.705491 0.970450 0.000000
vt 0.910270 0.966526 0.000000
vt 0.430314 1.529882 0.000000
vt 0.430314 2.039743 0.000000
vt 0.380551 2.047480 0.000000
vt 0.380551 1.537619 0.000000
vt 0.653978 0.970450 0.000000
vt 0.937325 0.880113 0.000000
vt 0.638059 0.921458 0.000000
vt 0.738917 0.915769 0.000000
vt 0.679734 0.872770 0.000000
vt 0.716311 0.985343 0.000000
vt 0.643157 0.985343 0.000000
vt 0.620551 0.915769 0.000000
vt 0.585986 0.681180 0.000000
vt 0.608891 0.669521 0.000000
vt 0.608891 0.720630 0.000000
vt 0.585986 0.724233 0.000000
vt 0.585986 0.793893 0.000000
vt 0.608891 0.803326 0.000000
vt 0.560061 0.510500 0.000000
vt 0.552367 0.512469 0.000000
vt 0.552367 0.487487 0.000000
vt 0.560061 0.489456 0.000000
vt 0.591026 0.667680 0.000000
vt 0.956246 0.718789 0.000000
vt 0.591026 0.718789 0.000000
vt 0.591026 0.801485 0.000000
vt 0.429677 0.512469 0.000000
vt 0.429677 0.487487 0.000000
vt 0.998693 0.112140 0.000000
vt 0.306610 0.112140 0.000000
vt 0.306610 0.225733 0.000000
vt 0.998693 0.225733 0.000000
vt -0.004668 0.480527 0.000000
vt -0.004668 0.453657 0.000000
vt 0.913227 0.453657 0.000000
vt 0.913227 0.480527 0.000000
vt 0.183456 0.455393 0.000000
vt -0.004668 0.455302 0.000000
vt 0.183501 0.480527 0.000000
vt -0.003148 0.480527 0.000000
vt -0.003148 0.460595 0.000000
vt 0.913227 0.460595 0.000000
vt 0.998693 0.164433 0.000000
vt 0.998693 0.277836 0.000000
vt 0.282164 0.277836 0.000000
vt 0.282164 0.164433 0.000000
vt 0.305268 0.073871 0.000000
vt 0.305268 0.125974 0.000000
vt 0.996737 0.125974 0.000000
vt 0.996737 0.073871 0.000000
vt 0.310856 0.456199 0.000000
vt 0.310856 0.481957 0.000000
vt 0.282164 0.113440 0.000000
vt 0.998693 0.113440 0.000000
vt 0.192565 0.880765 0.000000
vt 0.192565 0.802991 0.000000
vt 0.513316 0.802991 0.000000
vt 0.513316 0.842934 0.000000
vt 0.566511 0.800691 0.000000
vt 0.566511 0.827898 0.000000
vt 0.138960 0.827898 0.000000
vt 0.138960 0.800691 0.000000
vt 0.643759 0.670465 0.000000
vt 0.643759 0.803326 0.000000
vt 0.608891 0.670465 0.000000
vt 0.342253 0.961495 0.000000
vt 0.342253 0.926545 0.000000
vt 0.405872 0.926545 0.000000
vt 0.405872 0.961495 0.000000
vt 0.191798 0.827898 0.000000
vt 0.566511 0.849112 0.000000
vt 0.191798 0.849112 0.000000
vt 0.913227 0.454021 0.000000
vt 0.007786 0.480527 0.000000
vt 0.007786 0.454021 0.000000
vt 0.996736 0.073871 0.000000
vt 0.996736 0.125974 0.000000
vt 0.310856 0.481956 0.000000
# 173 texture coords

g cylinder8_1
usemtl _Terrakin_Small_2Mat_4
s 1
f -114/-173/-98 -113/-172/-98 -112/-171/-98 
s 2
f -114/-170/-97 -111/-169/-97 -110/-168/-97 -113/-167/-97 
s 4
f -113/-166/-96 -110/-165/-96 -109/-164/-96 -108/-163/-96 
s 1
f -107/-162/-98 -114/-173/-98 -112/-171/-98 
s 4
f -107/-161/-95 -106/-164/-95 -111/-169/-95 -114/-170/-95 
s 1
f -113/-172/-98 -108/-160/-98 -112/-171/-98 
f -105/-159/-98 -107/-162/-98 -112/-171/-98 
s 2
f -105/-158/-94 -104/-165/-94 -106/-164/-94 -107/-161/-94 
f -108/-163/-93 -109/-164/-93 -103/-169/-93 -102/-157/-93 
s 1
f -102/-156/-98 -105/-159/-98 -112/-171/-98 
s 4
f -102/-157/-92 -103/-169/-92 -104/-168/-92 -105/-155/-92 
s 1
f -108/-160/-98 -102/-156/-98 -112/-171/-98 
f -101/-154/-91 -100/-153/-91 -99/-152/-91 
s 2
f -101/-151/-90 -98/-150/-89 -97/-149/-88 -100/-148/-87 
f -97/-147/-88 -98/-146/-89 -96/-145/-86 
s 1
f -95/-144/-91 -101/-154/-91 -99/-152/-91 
s 2
f -95/-143/-85 -94/-142/-84 -98/-150/-89 -101/-151/-90 
f -98/-146/-89 -94/-141/-84 -96/-145/-86 
s 1
f -93/-140/-91 -95/-144/-91 -99/-152/-91 
s 2
f -93/-139/-83 -92/-138/-82 -94/-142/-84 -95/-143/-85 
f -94/-141/-84 -92/-137/-82 -96/-145/-86 
s 1
f -91/-136/-91 -93/-140/-91 -99/-152/-91 
s 2
f -91/-142/-81 -90/-143/-80 -92/-139/-82 -93/-138/-83 
f -92/-137/-82 -90/-135/-80 -96/-145/-86 
s 1
f -89/-134/-91 -91/-136/-91 -99/-152/-91 
s 2
f -89/-150/-79 -88/-151/-78 -90/-143/-80 -91/-142/-81 
f -90/-135/-80 -88/-133/-78 -96/-145/-86 
s 1
f -100/-153/-91 -89/-134/-91 -99/-152/-91 
s 2
f -100/-149/-87 -97/-148/-88 -88/-151/-78 -89/-150/-79 
f -88/-133/-78 -97/-147/-88 -96/-145/-86 
s 1
f -87/-132/-77 -86/-131/-76 -85/-130/-75 
s 2
f -84/-129/-74 -83/-128/-74 -82/-127/-74 -81/-126/-74 
f -80/-125/-73 -79/-124/-72 -78/-123/-71 
s 4
f -77/-122/-70 -76/-121/-69 -75/-120/-68 -74/-119/-67 
s 1
f -73/-118/-66 -72/-117/-66 -83/-128/-66 -84/-129/-66 
s 8
f -82/-116/-65 -71/-115/-64 -77/-114/-63 -81/-123/-62 
s 2
f -86/-116/-61 -78/-123/-71 -79/-124/-72 -85/-113/-60 
f -70/-112/-87 -69/-111/-87 -72/-110/-87 -73/-109/-87 
s 4
f -68/-108/-59 -67/-107/-58 -79/-106/-57 -80/-105/-56 
f -68/-108/-59 -66/-104/-55 -65/-103/-54 -67/-107/-58 
s 1
f -64/-129/-79 -63/-128/-79 -69/-117/-79 -70/-118/-79 
s 4
f -62/-102/-53 -65/-103/-54 -76/-121/-69 -61/-116/-52 
s 8
f -81/-123/-62 -77/-114/-63 -74/-101/-51 
s 4
f -78/-126/-81 -86/-127/-81 -63/-128/-81 -64/-129/-81 
f -71/-100/-50 -61/-116/-52 -76/-121/-69 -77/-122/-70 
f -85/-99/-49 -79/-106/-57 -67/-107/-58 -87/-98/-48 
s 1
f -71/-97/-47 -82/-96/-46 -61/-95/-45 
f -62/-94/-44 -60/-93/-44 -86/-131/-76 -87/-132/-77 
f -59/-92/-43 -58/-91/-42 -57/-152/-41 
s 2
f -56/-90/-40 -55/-89/-39 -54/-88/-38 -53/-87/-37 
f -52/-86/-36 -51/-85/-35 -50/-84/-34 
s 1
f -49/-83/-33 -59/-92/-43 -57/-152/-41 
s 2
f -48/-82/-32 -47/-81/-31 -55/-90/-39 -56/-89/-40 
f -51/-85/-35 -46/-80/-30 -50/-84/-34 
s 1
f -45/-79/-29 -49/-83/-33 -57/-152/-41 
s 2
f -44/-78/-28 -43/-77/-27 -47/-76/-31 -48/-75/-32 
f -46/-80/-30 -42/-74/-26 -50/-84/-34 
s 1
f -41/-73/-25 -45/-79/-29 -57/-152/-41 
s 2
f -40/-90/-24 -39/-89/-23 -43/-82/-27 -44/-81/-28 
f -42/-74/-26 -38/-72/-22 -50/-84/-34 
s 1
f -58/-91/-42 -41/-73/-25 -57/-152/-41 
s 2
f -53/-87/-37 -54/-88/-38 -39/-89/-23 -40/-90/-24 
f -38/-72/-22 -52/-86/-36 -50/-84/-34 
f -55/-71/-39 -51/-85/-35 -52/-86/-36 -54/-70/-38 
f -47/-69/-31 -46/-80/-30 -51/-85/-35 -55/-71/-39 
f -43/-68/-27 -42/-74/-26 -46/-80/-30 -47/-69/-31 
f -39/-67/-23 -38/-72/-22 -42/-74/-26 -43/-68/-27 
f -54/-70/-38 -52/-86/-36 -38/-72/-22 -39/-67/-23 
f -53/-66/-37 -37/-65/-21 -36/-64/-20 -56/-63/-40 
f -40/-63/-24 -35/-64/-19 -37/-65/-21 -53/-66/-37 
f -44/-62/-28 -34/-61/-18 -35/-64/-19 -40/-63/-24 
f -48/-60/-32 -33/-59/-17 -34/-58/-18 -44/-57/-28 
f -56/-63/-40 -36/-64/-20 -33/-61/-17 -48/-62/-32 
f -37/-56/-21 -58/-165/-87 -59/-55/-16 -36/-54/-20 
f -35/-54/-19 -41/-55/-15 -58/-165/-87 -37/-56/-21 
f -34/-53/-18 -45/-82/-14 -41/-55/-15 -35/-54/-19 
f -33/-59/-17 -49/-52/-13 -45/-51/-14 -34/-58/-18 
f -36/-54/-20 -59/-55/-16 -49/-82/-13 -33/-53/-17 
s 1
f -32/-50/-95 -31/-49/-95 -30/-48/-12 -29/-47/-12 
s 2
f -28/-46/-11 -27/-45/-11 -26/-44/-11 -25/-43/-11 
s 4
f -24/-42/-91 -23/-41/-91 -32/-46/-91 -29/-40/-91 
f -31/-46/-98 -22/-41/-98 -21/-42/-98 -30/-40/-98 
s 2
f -23/-43/-83 -22/-39/-83 -31/-38/-83 -32/-37/-83 
s 1
f -21/-36/-10 -22/-35/-93 -23/-34/-93 -24/-33/-10 
f -30/-32/-12 -28/-31/-9 -25/-30/-9 -29/-29/-12 
s 4
f -21/-42/-98 -27/-28/-98 -28/-27/-98 -30/-40/-98 
s 1
f -24/-33/-10 -26/-26/-8 -27/-25/-8 -21/-36/-10 
s 4
f -24/-42/-91 -29/-40/-91 -25/-27/-91 -26/-28/-91 
s 1
f -20/-24/-93 -19/-23/-93 -18/-22/-93 -17/-21/-93 
s 2
f -17/-20/-7 -16/-19/-7 -15/-18/-7 -20/-17/-7 
s 4
f -15/-16/-98 -14/-15/-98 -19/-61/-98 -20/-14/-98 
f -18/-13/-6 -13/-12/-6 -16/-11/-6 -17/-10/-6 
s 2
f -14/-9/-83 -13/-19/-83 -18/-8/-83 -19/-7/-83 
s 1
f -15/-24/-95 -16/-21/-95 -13/-22/-95 -14/-23/-95 
f -12/-49/-93 -11/-50/-93 -10/-47/-5 -9/-48/-5 
s 2
f -8/-6/-4 -7/-43/-4 -6/-5/-4 -5/-4/-4 
s 4
f -4/-42/-98 -3/-41/-98 -12/-46/-98 -9/-40/-98 
f -11/-46/-91 -2/-41/-91 -1/-42/-91 -10/-40/-91 
s 2
f -3/-38/-83 -2/-37/-83 -11/-43/-83 -12/-39/-83 
s 1
f -1/-33/-3 -2/-34/-95 -3/-35/-95 -4/-36/-3 
f -10/-3/-5 -8/-2/-2 -5/-31/-2 -9/-32/-5 
s 4
f -1/-42/-91 -7/-28/-91 -8/-1/-91 -10/-40/-91 
s 1
f -4/-36/-3 -6/-25/-1 -7/-26/-1 -1/-33/-3 
s 4
f -4/-42/-98 -9/-40/-98 -5/-27/-98 -6/-28/-98 
f -75/-120/-68 -76/-121/-69 -65/-103/-54 -66/-104/-55 
f -62/-102/-53 -87/-98/-48 -67/-107/-58 -65/-103/-54 
s 1
f -62/-94/-44 -61/-95/-45 -82/-96/-46 -60/-93/-44 
# 75 polygons - 32 triangles

