# 3ds Max Wavefront OBJ Exporter v0.97b - (c)2007 guruware
# File Created: 17.11.2010 11:50:58

mtllib terrakin_Station_LOD w 182 triangles.mtl

#
# object 182
#

v  0.720522 0.569778 -1.247114
v  1.391602 0.569778 -0.372542
v  0.468853 0.333454 -0.125292
v  0.241580 0.328482 -0.417559
v  0.111943 -1.539832 0.064658
v  0.033712 -1.539832 0.124686
v  -0.007354 -1.539832 -0.028574
v  -0.212404 -0.078153 0.057250
v  -0.196357 -0.838358 0.052950
v  -0.101465 -0.838358 0.176616
v  1.247716 0.569778 0.720399
v  0.373149 0.569778 1.391480
v  0.125229 0.328482 0.466231
v  0.420401 0.333454 0.242747
v  -0.124081 -1.539832 0.033584
v  -0.017566 -1.539832 -0.034470
v  -0.013681 -1.539832 -0.029407
v  -0.111210 -1.539832 -0.064181
v  -0.534972 1.111522 0.143682
v  0.480338 1.111521 0.277352
v  0.535705 1.111521 -0.143205
v  -0.276745 1.111521 0.480212
v  0.143810 1.111521 0.535579
v  -0.064052 -1.539832 0.111815
v  -0.479605 1.111522 -0.276875
v  0.277477 1.111521 -0.479735
v  -0.143078 1.111521 -0.535102
v  -0.002291 -2.178041 -0.032459
v  -0.009512 -2.178041 -0.036628
v  -0.001458 -2.178041 -0.038786
v  -0.032979 -1.539832 -0.124210
v  -0.176011 -0.838358 -0.101594
v  -0.052346 -0.838358 -0.196486
v  -0.007354 -2.178041 -0.028574
v  -0.002291 -1.539832 -0.032459
v  -0.005343 -2.178041 -0.043850
v  0.197090 -0.838358 -0.052474
v  0.213136 -0.078153 -0.056773
v  0.191131 -0.078153 0.110377
v  1.369698 0.690914 -0.366673
v  1.228077 0.690914 0.709061
v  -0.242140 0.333454 0.420274
v  -0.468121 0.333454 0.125769
v  -0.388999 0.107540 0.104569
v  -0.201184 0.107539 0.349335
v  0.104697 0.107539 0.389605
v  -0.063601 -0.177528 0.111033
v  0.033478 -0.177528 0.123814
v  -0.011670 -1.539832 -0.044683
v  -0.016733 -1.539832 -0.040798
v  -0.001458 -1.539832 -0.038786
v  0.124814 -1.539832 -0.033107
v  -0.005343 -1.539832 -0.043850
v  0.064785 -1.539832 -0.111339
v  0.349462 0.107539 0.201790
v  -0.125165 0.333454 -0.468251
v  0.201916 0.107539 -0.348858
v  -0.103964 0.107539 -0.389128
v  -0.056645 -0.078153 -0.212532
v  0.110504 -0.078153 -0.190526
v  0.102198 -0.838358 -0.176139
v  0.176744 -0.838358 0.102070
v  0.053078 -0.838358 0.196963
v  0.057378 -0.078153 0.213009
v  -0.109771 -0.078153 0.191003
v  -0.348729 0.107540 -0.201313
v  -0.110428 -0.177528 -0.063729
v  -0.123209 -0.177528 0.033350
v  -0.719789 0.569778 1.247591
v  -0.504001 0.768637 -0.290959
v  -0.562181 0.768637 0.150973
v  0.836162 0.828349 -0.223713
v  -0.016733 -2.178041 -0.040798
v  -0.150368 0.768637 -0.562311
v  0.064333 -0.177528 -0.110557
v  -0.032746 -0.177528 -0.123337
v  -0.290829 0.768637 0.504607
v  -0.017566 -2.178041 -0.034470
v  0.749721 0.828349 0.432881
v  0.224318 0.828349 0.836038
v  0.367279 0.690914 1.369576
v  -1.246983 0.569778 -0.719922
v  -0.372416 0.569778 -1.391003
v  -0.417430 0.328482 -0.240978
v  0.291562 0.768637 -0.504129
v  0.151101 0.768637 0.562788
v  0.000366 0.680278 0.000238
v  -0.011670 -2.178041 -0.044683
v  0.562914 0.768637 -0.150496
v  0.504733 0.768637 0.291436
v  0.389731 0.107539 -0.104092
v  -1.390870 0.569778 0.373019
v  -0.190398 -0.078153 -0.109900
v  0.123942 -0.177528 -0.032874
v  -0.013681 -2.178041 -0.029407
v  0.709184 0.690915 -1.227475
v  -0.748989 0.828349 -0.432404
v  -0.835430 0.828349 0.224189
v  0.111161 -0.177528 0.064206
v  -1.227344 0.690914 -0.708584
v  -1.368965 0.690914 0.367150
v  -0.223586 0.828349 -0.835561
v  -0.432273 0.828349 0.749595
v  -0.366547 0.690914 -1.369099
v  -0.708451 0.690914 1.227952
v  0.433006 0.828349 -0.749118
# 106 vertices

vn 0.440373 -0.475374 -0.761637
vn 0.849306 -0.476330 -0.227571
vn 0.573526 -0.804922 -0.152208
vn 0.302073 -0.800975 -0.516905
vn 0.643122 -0.669720 0.371306
vn 0.192202 -0.669720 0.717310
vn 0.153837 -0.804183 0.574129
vn -0.965695 -0.021847 0.258757
vn -0.963984 -0.063367 0.258299
vn -0.498996 -0.063367 0.864285
vn 0.762009 -0.475767 0.439303
vn 0.227169 -0.475373 0.849949
vn 0.151910 -0.800975 0.579104
vn 0.515046 -0.805894 0.291997
vn -0.717310 -0.669720 0.192203
vn -0.574132 -0.804179 0.153845
vn -0.297186 -0.804190 0.514741
vn -0.643122 -0.669720 -0.371306
vn -0.725005 0.660780 0.194264
vn 0.650022 0.660779 0.375289
vn 0.725005 0.660779 -0.194265
vn -0.375291 0.660779 0.650021
vn 0.194265 0.660779 0.725005
vn -0.371307 -0.669720 0.643122
vn -0.650022 0.660779 -0.375289
vn 0.375291 0.660779 -0.650021
vn -0.194265 0.660779 -0.725005
vn 0.672368 -0.630260 0.388192
vn -0.000000 -1.000000 -0.000000
vn 0.749926 -0.630267 -0.200933
vn -0.192203 -0.669720 -0.717309
vn -0.864285 -0.063367 -0.498994
vn -0.258299 -0.063367 -0.963984
vn 0.200942 -0.630265 0.749926
vn 0.514741 -0.804190 0.297186
vn 0.388201 -0.630258 -0.672365
vn 0.963984 -0.063367 -0.258299
vn 0.965695 -0.021847 -0.258757
vn 0.865819 -0.021848 0.499880
vn 0.753234 0.626022 -0.201828
vn 0.675332 0.626021 0.389902
vn -0.297917 -0.804923 0.513170
vn -0.570666 -0.805894 0.157719
vn -0.832251 -0.507571 0.223001
vn -0.430545 -0.507327 0.746492
vn 0.222808 -0.506378 0.833029
vn -0.359746 -0.694502 0.623097
vn 0.186218 -0.694502 0.694974
vn -0.153838 -0.804182 -0.574129
vn -0.514741 -0.804193 -0.297178
vn 0.574135 -0.804179 -0.153832
vn 0.717309 -0.669720 -0.192203
vn 0.297190 -0.804193 -0.514734
vn 0.371307 -0.669720 -0.643122
vn 0.746176 -0.507572 0.430803
vn -0.156290 -0.806065 -0.570817
vn 0.431493 -0.506378 -0.746589
vn -0.223409 -0.507329 -0.832289
vn -0.258757 -0.021848 -0.965695
vn 0.499881 -0.021847 -0.865818
vn 0.498996 -0.063367 -0.864285
vn 0.864285 -0.063367 0.498994
vn 0.258299 -0.063367 0.963984
vn 0.258757 -0.021848 0.965695
vn -0.499881 -0.021848 0.865818
vn -0.746590 -0.506378 -0.431491
vn -0.623098 -0.694501 -0.359745
vn -0.694976 -0.694501 0.186218
vn -0.439634 -0.476330 0.761467
vn -0.863119 0.081877 -0.498320
vn -0.962683 0.081877 0.257950
vn 0.085087 0.996113 -0.022799
vn -0.672374 -0.630258 -0.388185
vn -0.257950 0.081877 -0.962683
vn 0.359746 -0.694502 -0.623097
vn -0.186218 -0.694502 -0.694975
vn -0.498322 0.081879 0.863117
vn -0.749922 -0.630267 0.200950
vn 0.076287 0.996113 0.044044
vn 0.022799 0.996113 0.085087
vn 0.201828 0.626023 0.753234
vn -0.761638 -0.475374 -0.440370
vn -0.228186 -0.475766 -0.849457
vn -0.516906 -0.800975 -0.302071
vn 0.498323 0.081877 -0.863117
vn 0.257951 0.081878 0.962682
vn -0.000000 1.000000 0.000000
vn -0.200942 -0.630265 -0.749925
vn 0.962682 0.081878 -0.257950
vn 0.863118 0.081878 0.498320
vn 0.832291 -0.507326 -0.223410
vn -0.849457 -0.475767 0.228186
vn -0.865819 -0.021847 -0.499880
vn 0.694976 -0.694501 -0.186218
vn -0.388192 -0.630260 0.672368
vn 0.389904 0.626021 -0.675331
vn -0.076287 0.996113 -0.044044
vn -0.085087 0.996113 0.022799
vn 0.623098 -0.694501 0.359745
vn -0.675332 0.626022 -0.389902
vn -0.753234 0.626022 0.201828
vn -0.022799 0.996113 -0.085087
vn -0.044044 0.996113 0.076286
vn -0.201828 0.626023 -0.753233
vn -0.389904 0.626022 0.675331
vn 0.044044 0.996113 -0.076286
# 106 vertex normals

vt 0.616721 0.558565 0.000000
vt 0.616721 0.464033 0.000000
vt 0.720857 0.507168 0.000000
vt 0.720857 0.515430 0.000000
vt 0.977144 0.075409 0.000000
vt 0.977018 0.137332 0.000000
vt 0.908663 0.109467 0.000000
vt 0.542560 0.817530 0.000000
vt 0.542560 0.613219 0.000000
vt 0.590998 0.613219 0.000000
vt 0.683565 0.397189 0.000000
vt 0.778097 0.397189 0.000000
vt 0.734962 0.501325 0.000000
vt 0.726700 0.501325 0.000000
vt 0.871067 0.180925 0.000000
vt 0.898491 0.113652 0.000000
vt 0.904477 0.113652 0.000000
vt 0.826484 0.137332 0.000000
vt 0.864937 0.460350 0.000000
vt 0.598032 0.458492 0.000000
vt 0.597263 0.569047 0.000000
vt 0.787307 0.381631 0.000000
vt 0.676751 0.380861 0.000000
vt 0.933420 0.180925 0.000000
vt 0.864168 0.570905 0.000000
vt 0.674893 0.647766 0.000000
vt 0.785449 0.648536 0.000000
vt 0.982937 0.992747 0.000000
vt 0.988752 0.990376 0.000000
vt 0.986290 0.996099 0.000000
vt 0.543084 0.986812 0.000000
vt 0.504257 0.986812 0.000000
vt 0.504257 0.827225 0.000000
vt 0.543084 0.827225 0.000000
vt 0.988778 0.626229 0.000000
vt 0.992068 0.626229 0.000000
vt 0.992068 0.982364 0.000000
vt 0.988778 0.982364 0.000000
vt 0.991085 0.996099 0.000000
vt 0.150244 0.968521 0.000000
vt 0.317045 0.968521 0.000000
vt 0.322068 0.980650 0.000000
vt 0.807357 0.648998 0.000000
vt 0.929446 0.699020 0.000000
vt 0.908068 0.719102 0.000000
vt 0.807025 0.677703 0.000000
vt 0.825788 0.075683 0.000000
vt 0.894144 0.103549 0.000000
vt 0.894211 0.109467 0.000000
vt 0.908596 0.103549 0.000000
vt 0.904316 0.099363 0.000000
vt 0.931740 0.032090 0.000000
vt 0.985488 0.982364 0.000000
vt 0.985488 0.626229 0.000000
vt 0.581911 0.827225 0.000000
vt 0.581911 0.986812 0.000000
vt 0.992069 0.982364 0.000000
vt 0.992069 0.626229 0.000000
vt 0.869387 0.032090 0.000000
vt 0.898330 0.099363 0.000000
vt 0.706221 0.719844 0.000000
vt 0.664707 0.820840 0.000000
vt 0.635397 0.821948 0.000000
vt 0.145221 0.980650 0.000000
vt 0.930146 0.942714 0.000000
vt 0.808347 0.993632 0.000000
vt 0.807845 0.962931 0.000000
vt 0.908648 0.920790 0.000000
vt 0.590998 0.817530 0.000000
vt 0.494121 0.817530 0.000000
vt 0.494121 0.613219 0.000000
vt 0.685419 0.699584 0.000000
vt 0.844942 0.464033 0.000000
vt 0.740805 0.507168 0.000000
vt 0.313511 0.406873 0.000000
vt 0.305073 0.359909 0.000000
vt 0.525660 0.359909 0.000000
vt 0.514472 0.406873 0.000000
vt 0.182740 0.890071 0.000000
vt 0.447118 0.855600 0.000000
vt 0.284549 0.890071 0.000000
vt 0.356539 0.818081 0.000000
vt 0.434990 0.850576 0.000000
vt 0.778097 0.625409 0.000000
vt 0.683565 0.625409 0.000000
vt 0.726700 0.521273 0.000000
vt 0.734962 0.521273 0.000000
vt 0.307121 0.406696 0.000000
vt 0.142037 0.406696 0.000000
vt 0.153438 0.359955 0.000000
vt 0.950163 0.819793 0.000000
vt 0.686258 0.943610 0.000000
vt 0.706801 0.921531 0.000000
vt 0.844942 0.558565 0.000000
vt 0.740805 0.515430 0.000000
vt 0.994567 0.988006 0.000000
vt 0.991214 0.984654 0.000000
vt 0.685558 0.699916 0.000000
vt 0.980307 0.820682 0.000000
vt 0.032299 0.850576 0.000000
vt 0.020171 0.855600 0.000000
vt 0.982991 0.988006 0.000000
vt 0.284549 0.644281 0.000000
vt 0.182740 0.644281 0.000000
vt 0.150244 0.565830 0.000000
vt 0.317045 0.565830 0.000000
vt 0.986419 0.984654 0.000000
vt 0.994513 0.992747 0.000000
vt 0.110750 0.716271 0.000000
vt 0.032299 0.683776 0.000000
vt 0.145221 0.553702 0.000000
vt 0.322068 0.553702 0.000000
vt 0.356539 0.716271 0.000000
vt 0.434990 0.683776 0.000000
vt 0.020171 0.678752 0.000000
vt 0.110750 0.818081 0.000000
vt 0.447118 0.678752 0.000000
# 117 texture coords

g 182
usemtl 01___Default
s 1
f -106/-117/-106 -105/-116/-105 -104/-115/-104 
f -104/-115/-104 -103/-114/-103 -106/-117/-106 
f -102/-113/-102 -101/-112/-101 -100/-111/-100 
f -99/-110/-99 -98/-109/-98 -97/-108/-97 
f -96/-107/-96 -95/-106/-95 -94/-105/-94 
f -94/-105/-94 -93/-104/-93 -96/-107/-96 
f -92/-103/-92 -91/-102/-91 -90/-101/-90 
f -91/-102/-91 -92/-103/-92 -89/-100/-89 
f -88/-99/-88 -87/-98/-87 -86/-97/-86 
f -85/-96/-85 -84/-95/-84 -87/-98/-87 
f -83/-94/-83 -90/-101/-90 -100/-111/-100 
f -82/-93/-82 -88/-99/-88 -81/-92/-81 
f -81/-92/-81 -88/-99/-88 -86/-97/-86 
f -88/-99/-88 -85/-96/-85 -87/-98/-87 
f -80/-91/-80 -82/-93/-82 -81/-92/-81 
f -79/-90/-79 -78/-89/-78 -77/-88/-77 
f -76/-87/-76 -89/-86/-89 -75/-85/-75 
f -75/-85/-75 -74/-84/-74 -76/-87/-76 
f -73/-83/-73 -79/-82/-79 -72/-81/-72 
f -72/-81/-72 -100/-80/-100 -73/-83/-73 
f -77/-88/-77 -78/-89/-78 -71/-79/-71 
f -70/-110/-70 -69/-109/-69 -68/-108/-68 
f -67/-78/-67 -66/-77/-66 -96/-76/-96 
f -65/-75/-65 -64/-74/-64 -63/-73/-63 
f -63/-73/-63 -62/-72/-62 -65/-75/-65 
f -61/-87/-61 -62/-86/-62 -60/-85/-60 
f -60/-85/-60 -59/-84/-59 -61/-87/-61 
f -76/-71/-76 -58/-70/-58 -57/-69/-57 
f -57/-69/-57 -89/-100/-89 -76/-71/-76 
f -72/-68/-72 -56/-67/-56 -55/-66/-55 
f -55/-66/-55 -102/-113/-102 -72/-68/-72 
f -77/-80/-77 -71/-65/-71 -54/-64/-54 
f -54/-64/-54 -56/-83/-56 -77/-80/-77 
f -92/-84/-92 -83/-63/-83 -97/-62/-97 
f -79/-61/-79 -77/-80/-77 -56/-83/-56 
f -56/-83/-56 -72/-60/-72 -79/-61/-79 
f -76/-71/-76 -53/-59/-53 -54/-58/-54 
f -54/-58/-54 -58/-70/-58 -76/-71/-76 
f -61/-57/-61 -52/-56/-52 -93/-55/-93 
f -96/-76/-96 -105/-54/-105 -67/-78/-67 
f -51/-53/-51 -103/-52/-103 -50/-51/-50 
f -50/-51/-50 -49/-50/-49 -51/-53/-51 
f -74/-110/-74 -48/-109/-48 -47/-108/-47 
f -47/-108/-47 -46/-49/-46 -74/-110/-74 
f -102/-62/-102 -55/-87/-55 -70/-84/-70 
f -70/-84/-70 -45/-63/-45 -102/-62/-102 
f -44/-109/-44 -43/-110/-43 -42/-48/-42 
f -42/-48/-42 -97/-47/-97 -44/-109/-44 
f -100/-111/-100 -101/-112/-101 -83/-94/-83 
f -90/-101/-90 -83/-94/-83 -92/-103/-92 
f -63/-87/-63 -41/-86/-41 -40/-85/-40 
f -40/-85/-40 -39/-84/-39 -63/-87/-63 
f -97/-62/-97 -98/-87/-98 -92/-84/-92 
f -94/-46/-94 -65/-75/-65 -62/-72/-62 
f -95/-106/-95 -38/-45/-38 -65/-44/-65 
f -82/-43/-82 -37/-42/-37 -36/-41/-36 
f -36/-41/-36 -88/-40/-88 -82/-43/-82 
f -66/-77/-66 -67/-78/-67 -35/-39/-35 
f -91/-80/-91 -57/-65/-57 -34/-64/-34 
f -80/-43/-80 -33/-42/-33 -37/-41/-37 
f -37/-41/-37 -82/-40/-82 -80/-43/-80 
f -49/-87/-49 -50/-86/-50 -32/-85/-32 
f -32/-85/-32 -31/-84/-31 -49/-87/-49 
f -88/-43/-88 -36/-42/-36 -30/-41/-30 
f -30/-41/-30 -85/-40/-85 -88/-43/-88 
f -95/-38/-95 -96/-76/-96 -66/-77/-66 
f -34/-64/-34 -29/-83/-29 -91/-80/-91 
f -28/-37/-28 -27/-36/-27 -26/-35/-26 
f -26/-35/-26 -66/-77/-66 -28/-37/-28 
f -25/-34/-25 -24/-33/-24 -51/-32/-51 
f -51/-32/-51 -23/-31/-23 -25/-34/-25 
f -81/-43/-81 -22/-42/-22 -33/-41/-33 
f -33/-41/-33 -80/-40/-80 -81/-43/-81 
f -105/-116/-105 -96/-107/-96 -93/-104/-93 
f -93/-104/-93 -104/-115/-104 -105/-116/-105 
f -85/-43/-85 -30/-42/-30 -21/-41/-21 
f -21/-41/-21 -84/-40/-84 -85/-43/-85 
f -53/-62/-53 -76/-87/-76 -74/-84/-74 
f -74/-84/-74 -46/-63/-46 -53/-62/-53 
f -103/-114/-103 -51/-32/-51 -24/-33/-24 
f -28/-30/-28 -35/-29/-35 -20/-28/-20 
f -100/-111/-100 -72/-68/-72 -102/-113/-102 
f -35/-39/-35 -28/-37/-28 -66/-77/-66 
f -19/-80/-19 -34/-65/-34 -57/-64/-57 
f -57/-64/-57 -58/-83/-58 -19/-80/-19 
f -41/-27/-41 -63/-73/-63 -64/-74/-64 
f -39/-84/-39 -60/-63/-60 -62/-62/-62 
f -22/-41/-22 -81/-40/-81 -86/-43/-86 
f -86/-43/-86 -18/-42/-18 -22/-41/-22 
f -84/-43/-84 -21/-42/-21 -17/-41/-17 
f -17/-41/-17 -87/-40/-87 -84/-43/-84 
f -62/-72/-62 -61/-57/-61 -94/-46/-94 
f -53/-59/-53 -55/-66/-55 -56/-67/-56 
f -104/-26/-104 -93/-55/-93 -52/-56/-52 
f -52/-56/-52 -16/-25/-16 -104/-26/-104 
f -15/-24/-15 -25/-34/-25 -23/-31/-23 
f -23/-31/-23 -64/-23/-64 -15/-24/-15 
f -34/-22/-34 -78/-89/-78 -29/-21/-29 
f -66/-77/-66 -26/-35/-26 -95/-38/-95 
f -98/-109/-98 -99/-110/-99 -14/-48/-14 
f -14/-48/-14 -75/-47/-75 -98/-109/-98 
f -93/-55/-93 -94/-20/-94 -61/-57/-61 
f -64/-23/-64 -65/-44/-65 -38/-45/-38 
f -18/-41/-18 -86/-40/-86 -87/-43/-87 
f -87/-43/-87 -17/-42/-17 -18/-41/-18 
f -50/-62/-50 -16/-87/-16 -13/-84/-13 
f -13/-84/-13 -32/-63/-32 -50/-62/-50 
f -29/-83/-29 -12/-82/-12 -90/-81/-90 
f -90/-81/-90 -91/-80/-91 -29/-83/-29 
f -56/-67/-56 -54/-58/-54 -53/-59/-53 
f -45/-108/-45 -68/-49/-68 -43/-110/-43 
f -64/-74/-64 -23/-19/-23 -41/-27/-41 
f -11/-18/-11 -67/-78/-67 -105/-54/-105 
f -105/-54/-105 -106/-17/-106 -11/-18/-11 
f -62/-62/-62 -63/-87/-63 -39/-84/-39 
f -38/-45/-38 -15/-24/-15 -64/-23/-64 
f -73/-16/-73 -78/-89/-78 -79/-90/-79 
f -41/-62/-41 -49/-87/-49 -31/-84/-31 
f -10/-30/-10 -9/-29/-9 -20/-28/-20 
f -52/-62/-52 -61/-87/-61 -59/-84/-59 
f -59/-84/-59 -8/-63/-8 -52/-62/-52 
f -31/-84/-31 -40/-63/-40 -41/-62/-41 
f -68/-108/-68 -45/-49/-45 -70/-110/-70 
f -89/-85/-89 -92/-84/-92 -98/-87/-98 
f -98/-87/-98 -75/-86/-75 -89/-85/-89 
f -43/-110/-43 -44/-109/-44 -45/-108/-45 
f -89/-100/-89 -57/-69/-57 -91/-102/-91 
f -9/-15/-9 -10/-14/-10 -7/-13/-7 
f -7/-13/-7 -6/-12/-6 -9/-15/-9 
f -12/-11/-12 -78/-89/-78 -73/-16/-73 
f -5/-30/-5 -10/-29/-10 -20/-28/-20 
f -16/-87/-16 -52/-86/-52 -8/-85/-8 
f -29/-21/-29 -78/-89/-78 -12/-11/-12 
f -9/-30/-9 -4/-29/-4 -20/-28/-20 
f -48/-109/-48 -74/-110/-74 -75/-48/-75 
f -55/-87/-55 -53/-86/-53 -46/-85/-46 
f -19/-10/-19 -78/-89/-78 -34/-22/-34 
f -46/-85/-46 -70/-84/-70 -55/-87/-55 
f -10/-14/-10 -5/-9/-5 -3/-8/-3 
f -3/-8/-3 -7/-13/-7 -10/-14/-10 
f -6/-12/-6 -7/-13/-7 -25/-7/-25 
f -25/-7/-25 -15/-6/-15 -6/-12/-6 
f -4/-5/-4 -9/-15/-9 -6/-12/-6 
f -6/-12/-6 -2/-4/-2 -4/-5/-4 
f -101/-84/-101 -102/-63/-102 -45/-62/-45 
f -1/-30/-1 -5/-29/-5 -20/-28/-20 
f -45/-62/-45 -44/-87/-44 -101/-84/-101 
f -97/-108/-97 -42/-49/-42 -99/-110/-99 
f -49/-50/-49 -41/-27/-41 -23/-19/-23 
f -4/-30/-4 -27/-29/-27 -20/-28/-20 
f -12/-64/-12 -73/-83/-73 -100/-80/-100 
f -75/-48/-75 -14/-47/-14 -48/-109/-48 
f -7/-13/-7 -3/-8/-3 -24/-3/-24 
f -24/-3/-24 -25/-7/-25 -7/-13/-7 
f -5/-9/-5 -1/-2/-1 -11/-18/-11 
f -11/-18/-11 -3/-8/-3 -5/-9/-5 
f -71/-79/-71 -78/-89/-78 -19/-10/-19 
f -8/-85/-8 -13/-84/-13 -16/-87/-16 
f -2/-4/-2 -6/-12/-6 -15/-6/-15 
f -15/-6/-15 -38/-1/-38 -2/-4/-2 
f -27/-36/-27 -4/-5/-4 -2/-4/-2 
f -2/-4/-2 -26/-35/-26 -27/-36/-27 
f -100/-80/-100 -90/-65/-90 -12/-64/-12 
f -35/-30/-35 -1/-29/-1 -20/-28/-20 
f -65/-44/-65 -94/-105/-94 -95/-106/-95 
f -27/-30/-27 -28/-29/-28 -20/-28/-20 
f -23/-19/-23 -51/-53/-51 -49/-50/-49 
f -24/-33/-24 -106/-117/-106 -103/-114/-103 
f -71/-61/-71 -19/-80/-19 -58/-83/-58 
f -58/-83/-58 -54/-60/-54 -71/-61/-71 
f -103/-52/-103 -104/-26/-104 -16/-25/-16 
f -16/-25/-16 -50/-51/-50 -103/-52/-103 
f -3/-8/-3 -11/-18/-11 -106/-17/-106 
f -106/-17/-106 -24/-3/-24 -3/-8/-3 
f -1/-2/-1 -35/-39/-35 -67/-78/-67 
f -67/-78/-67 -11/-18/-11 -1/-2/-1 
f -83/-85/-83 -101/-84/-101 -44/-87/-44 
f -47/-47/-47 -69/-109/-69 -70/-110/-70 
f -44/-87/-44 -97/-86/-97 -83/-85/-83 
f -70/-110/-70 -46/-48/-46 -47/-47/-47 
f -26/-35/-26 -2/-4/-2 -38/-1/-38 
f -38/-1/-38 -95/-38/-95 -26/-35/-26 
# 0 polygons - 182 triangles

