# 3ds Max Wavefront OBJ Exporter v0.97b - (c)2007 guruware
# File Created: 28.09.2011 00:35:29

#
# object Bomber
#

v  -35.5079 5.6984 34.0252
v  -25.3164 -12.9245 -58.7847
v  -6.4704 -24.0344 15.0348
v  -10.8212 29.5567 42.8068
v  -9.9283 31.2022 -18.0934
v  -42.8467 15.7485 22.3674
v  34.8280 3.6043 35.0001
v  -10.4751 15.1045 119.5691
v  11.3936 29.6806 43.1242
v  0.8898 -14.9693 -96.2965
v  -5.4895 -23.1999 -53.9382
v  43.5563 13.6023 -10.5509
v  12.2640 30.5417 -17.7852
v  43.0709 13.1897 23.5593
v  -29.9867 8.2511 82.5805
v  -30.0062 12.9838 81.9651
v  -42.3613 16.1612 -11.7428
v  -19.5485 -0.0410 -59.3448
v  1.2871 -5.8182 -105.3483
v  0.8857 5.2202 -52.6429
v  28.1252 6.5206 83.3854
v  7.8251 20.2233 123.1796
v  86.0333 -1.9896 29.5679
v  86.5904 -1.4796 -9.5085
v  59.3632 21.9517 -16.6240
v  46.5237 -11.4018 -101.9713
v  59.1031 -14.4655 -76.0835
v  42.3951 -10.6533 28.8420
v  -57.5283 25.4322 -18.2439
v  -86.2883 3.6678 -11.9046
v  -86.8443 3.1579 27.1708
v  -48.5727 12.5620 -35.4015
v  -43.7959 -8.0873 27.6470
v  -44.3366 -8.6965 -103.2318
v  8.6166 4.9898 -52.5364
v  26.4838 -4.1092 -61.9692
v  26.6599 -9.5822 -86.4255
v  26.1213 -14.4563 -58.0710
v  -57.7883 -10.9851 -77.7044
v  -57.1392 10.8049 -77.7341
v  50.1363 9.6222 -34.0334
v  59.8783 7.4309 -84.9500
v  47.0275 5.4854 -102.0338
v  -26.0824 17.9060 125.2767
v  -61.5401 -2.0766 111.2238
v  -44.8455 16.6967 42.5610
v  -63.9168 17.2650 42.2968
v  44.5045 14.0365 43.8000
v  63.5748 13.4692 44.0642
v  23.6269 16.6220 125.9679
v  58.2031 -5.6420 112.8847
v  28.4436 11.2431 82.7761
v  63.9495 -10.3441 -34.0785
v  64.8383 2.0223 -71.6395
v  -63.5420 -6.5482 -35.8459
v  -43.8338 8.1907 -103.2932
v  63.0044 -5.7967 43.8225
v  -64.4871 -2.0008 42.0552
v  9.1430 0.6134 -99.9101
v  -24.7789 -8.0504 -87.1392
v  -58.8205 -2.2937 66.6374
v  56.6517 -5.7321 68.2379
v  49.2024 13.4067 68.3638
v  -50.2520 16.3680 66.9846
v  8.9013 -9.7471 -104.7544
v  -61.2565 -2.2271 90.2111
v  58.4939 -5.7936 91.8709
v  1.1264 9.9079 -59.9653
# 68 vertices

vn -0.6258 -0.7121 0.3182
vn -0.5241 -0.8484 -0.0748
vn -0.1061 -0.9281 0.3570
vn -0.3006 0.9475 0.1093
vn -0.1853 0.9826 0.0153
vn -0.5273 0.8048 0.2725
vn -0.0765 -0.9900 0.1184
vn 0.0515 -0.9780 0.2021
vn 0.0102 -0.9943 0.1063
vn 0.3294 0.9375 0.1121
vn -0.4973 -0.7957 -0.3458
vn 0.2100 -0.9746 -0.0782
vn 0.5542 0.8323 -0.0116
vn 0.2425 0.9700 0.0168
vn 0.5759 0.7662 0.2851
vn -0.7173 0.5470 0.4316
vn -0.9936 0.0105 0.1124
vn -0.7691 0.6391 0.0060
vn 0.3059 -0.9498 0.0655
vn -0.4453 0.7607 -0.4723
vn -0.3432 0.7855 -0.5149
vn -0.1990 0.9070 -0.3712
vn -0.2146 0.9523 -0.2168
vn -0.0822 0.8901 -0.4483
vn -0.5361 -0.8437 0.0281
vn -0.0284 -0.9761 0.2157
vn 0.6136 0.7878 0.0541
vn 0.6676 0.6935 -0.2708
vn 0.6553 0.6904 -0.3063
vn -0.9773 -0.2103 0.0263
vn 0.1894 -0.9815 -0.0282
vn -0.7995 -0.5934 0.0936
vn -0.6044 0.7280 -0.3238
vn -0.6174 0.7318 -0.2886
vn -0.5669 0.8229 0.0377
vn 0.8834 0.4618 -0.0793
vn 0.9963 0.0091 0.0857
vn 0.9982 0.0172 0.0570
vn 0.3780 0.8580 -0.3479
vn 0.3176 0.9078 -0.2741
vn 0.5013 0.8592 -0.1025
vn 0.2970 -0.9537 -0.0471
vn 0.1748 -0.9846 0.0039
vn -0.2197 -0.9740 0.0560
vn -0.3753 -0.9246 -0.0648
vn -0.8856 0.0251 -0.4639
vn -0.8853 0.0257 -0.4642
vn -0.8855 0.0254 -0.4640
vn -0.8625 0.4978 -0.0906
vn -0.1345 0.9886 -0.0683
vn -0.9329 0.3596 0.0208
vn -0.2224 0.9736 0.0520
vn -0.4582 0.8881 -0.0367
vn 0.0081 0.9883 0.1525
vn 0.9270 0.2726 0.2577
vn -0.2948 0.9547 0.0404
vn -0.9159 0.3275 0.2322
vn 0.3499 0.9355 0.0494
vn 0.4208 0.9064 0.0378
vn 0.5125 0.8583 -0.0251
vn 0.8122 0.5827 0.0278
vn 0.7437 0.4948 0.4496
vn 0.9890 -0.0486 0.1399
vn 0.8236 -0.2377 -0.5150
vn 0.8622 -0.1735 -0.4759
vn 0.8584 -0.1269 -0.4970
vn 0.3940 0.9191 -0.0073
vn 0.9991 0.0259 0.0322
vn 0.9821 -0.1844 -0.0375
vn 0.5467 -0.7821 0.2990
vn 0.4234 0.7511 -0.5065
vn 0.4926 0.6757 -0.5485
vn -0.4856 0.8722 -0.0588
vn -0.8500 -0.5268 0.0069
vn 0.4797 0.8700 -0.1137
vn -0.9891 0.0959 -0.1115
vn -0.9817 0.1738 -0.0781
vn 0.9758 0.2117 0.0545
vn 0.1499 0.9861 -0.0713
vn -0.0238 0.9929 0.1162
vn 0.2292 -0.9722 0.0481
vn 0.2029 -0.9774 0.0595
vn 0.2965 -0.9536 0.0519
vn 0.4332 -0.7483 0.5024
vn 0.5293 -0.0263 0.8480
vn -0.5532 0.0059 0.8330
vn -0.3541 -0.9342 0.0429
vn -0.2623 -0.9635 0.0531
vn -0.2879 -0.9568 0.0409
vn 0.8166 -0.5764 0.0300
vn -0.4190 -0.7358 -0.5320
vn 0.5422 0.8372 -0.0713
vn 0.2971 -0.9530 0.0592
vn -0.3548 -0.9336 0.0502
vn -0.2239 -0.9292 -0.2939
vn -0.2394 0.9440 -0.2270
vn 0.8977 -0.0284 -0.4396
vn -0.8857 0.0247 -0.4636
vn -0.8791 -0.3201 0.3532
vn 0.9079 -0.3096 0.2828
vn 0.8484 -0.3715 0.3771
vn 0.0650 0.2288 0.9713
vn 0.6241 0.6391 0.4494
vn -0.2892 -0.3672 0.8840
vn -0.8744 0.0198 0.4847
vn -0.9086 0.2497 0.3348
vn 0.4880 0.8705 -0.0641
vn 0.0276 0.9903 0.1365
vn 0.2680 -0.9458 -0.1836
vn 0.0377 -0.8659 -0.4989
vn -0.8840 0.3842 -0.2662
vn -0.9105 0.4100 0.0532
vn -0.8939 0.3906 -0.2199
vn -0.4403 0.8978 -0.0124
vn 0.1523 -0.9669 0.2047
vn 0.3861 -0.9176 0.0945
vn -0.3522 -0.9183 0.1806
vn -0.4440 -0.8920 0.0849
vn 0.4931 0.8700 0.0005
vn 0.5935 0.8020 -0.0675
vn -0.2414 0.8376 -0.4900
vn 0.5159 0.8514 -0.0946
vn 0.0321 0.8036 -0.5943
vn 0.0322 0.8036 -0.5943
vn 0.2755 0.4019 -0.8733
vn -0.0580 0.6850 -0.7262
vn -0.7312 0.6760 -0.0912
vn 0.7723 0.6313 -0.0704
vn -0.8900 0.4047 0.2100
vn -0.2519 -0.9666 0.0466
vn 0.1926 -0.9799 0.0527
vn -0.4252 -0.9049 -0.0179
vn -0.5215 0.4846 -0.7023
vn 0.3710 -0.9286 -0.0068
vn 0.5687 0.4521 -0.6872
vn 0.6848 0.2955 -0.6661
vn 0.0295 0.9994 0.0200
vn 0.8906 -0.4125 0.1916
vn 0.7599 -0.6500 0.0029
vn -0.7970 -0.6036 -0.0186
vn -0.1947 -0.1273 -0.9726
vn 0.3201 -0.9473 0.0111
vn -0.3761 -0.9266 0.0015
vn 0.2138 -0.1392 -0.9669
vn -0.9995 0.0297 -0.0138
vn 0.0177 0.8418 0.5395
vn 0.9844 -0.0912 -0.1505
vn 0.9892 -0.0809 -0.1227
vn 0.9995 -0.0298 0.0139
vn 0.8893 -0.1983 -0.4120
vn 0.8474 0.5206 -0.1042
# 151 vertex normals

vt 0.2635 -0.9224 0.0000
vt 0.3328 -0.5396 0.0000
vt 0.3823 -0.8410 0.0000
vt 0.1799 -0.5898 0.0000
vt 0.1799 -0.3218 0.0000
vt 0.0787 -0.4844 0.0000
vt 0.2554 -0.5313 0.0000
vt 0.3154 -0.1875 0.0000
vt 0.2386 -0.5703 0.0000
vt 0.3823 -0.5399 0.0000
vt 0.0782 -0.3505 0.0000
vt 0.0730 -0.5742 0.0000
vt 0.0940 -0.7717 0.0000
vt 0.1075 -0.7687 0.0000
vt 0.2554 -0.3516 0.0000
vt 0.1512 -0.1055 0.0000
vt 0.1109 -0.0806 0.0000
vt 0.0458 -0.2557 0.0000
vt 0.1109 -0.2785 0.0000
vt 0.9254 0.4885 0.0000
vt 0.7989 0.4897 0.0000
vt 0.7773 0.2999 0.0000
vt 0.5657 -0.9471 0.0000
vt 0.5382 -0.8660 0.0000
vt 0.5657 -0.3127 0.0000
vt 0.4541 -0.4991 0.0000
vt 0.4934 -0.7970 0.0000
vt 0.4882 -0.2069 0.0000
vt 0.4714 -0.1240 0.0000
vt 0.4415 -0.2125 0.0000
vt 0.3683 -0.2125 0.0000
vt 0.3636 -0.2346 0.0000
vt 0.4278 -0.2221 0.0000
vt 0.4285 -0.3196 0.0000
vt 0.6278 -0.6814 0.0000
vt 0.5940 -0.9109 0.0000
vt 0.6403 -0.9864 0.0000
vt 0.1408 -0.9609 0.0000
vt 0.0998 -0.8054 0.0000
vt 0.0180 -0.9063 0.0000
vt 0.1877 -0.9453 0.0000
vt 0.4164 -0.8587 0.0000
vt 0.9735 0.3321 0.0000
vt 0.0999 -0.9109 0.0000
vt 0.0393 -0.9109 0.0000
vt 0.3638 -0.3101 0.0000
vt 0.3212 -0.1063 0.0000
vt 0.3212 -0.0532 0.0000
vt 0.2070 -0.1056 0.0000
vt 0.9585 0.7361 0.0000
vt 0.8492 0.5544 0.0000
vt 0.8493 0.5543 0.0000
vt 0.1955 -0.1406 0.0000
vt 0.2164 -0.1406 0.0000
vt 0.2633 -0.6724 0.0000
vt 0.5940 -0.8720 0.0000
vt 0.9327 0.1809 0.0000
vt 0.9835 0.2817 0.0000
vt 0.6826 0.2901 0.0000
vt 0.5753 -0.0664 0.0000
vt 0.5283 -0.0981 0.0000
vt 0.5762 -0.1532 0.0000
vt 0.3288 -0.9173 0.0000
vt 0.2460 -0.9392 0.0000
vt 0.3884 -0.9283 0.0000
vt 0.4178 -0.5313 0.0000
vt 0.3991 -0.3241 0.0000
vt 0.4334 -0.3238 0.0000
vt 0.3340 -0.1234 0.0000
vt 0.1945 -0.0250 0.0000
vt 0.3552 -0.3750 0.0000
vt 0.0281 -0.1280 0.0000
vt 0.4525 -0.2070 0.0000
vt 0.5382 -0.3127 0.0000
vt 0.4764 -0.8562 0.0000
vt 0.4164 -0.8560 0.0000
vt 0.4696 -0.9685 0.0000
vt 0.5802 -0.1532 0.0000
vt 0.6494 -0.1441 0.0000
vt 0.5794 -0.0664 0.0000
vt 0.6501 -0.3088 0.0000
vt 0.5729 -0.3089 0.0000
vt 0.5940 -0.5858 0.0000
vt 0.2578 -0.7293 0.0000
vt 0.2243 -0.6289 0.0000
vt 0.2243 -0.7342 0.0000
vt 0.0263 -0.5313 0.0000
vt 0.0028 -0.5117 0.0000
vt 0.0263 -0.4688 0.0000
vt 0.0898 -0.7343 0.0000
vt 0.0536 -0.6101 0.0000
vt 0.0492 -0.7264 0.0000
vt 0.3928 -0.9943 0.0000
vt 0.0183 -0.8125 0.0000
vt 0.8136 0.0217 0.0000
vt 0.7772 0.1701 0.0000
vt 0.6921 0.0217 0.0000
vt 0.8138 0.0215 0.0000
vt 0.6922 0.0215 0.0000
vt 0.7773 0.1699 0.0000
vt 0.0054 -0.7891 0.0000
vt 0.0028 -0.5703 0.0000
vt 0.0263 -0.7500 0.0000
vt 0.6497 -0.0833 0.0000
vt 0.5404 -0.2101 0.0000
vt 0.8072 0.1821 0.0000
vt 0.0159 -0.9590 0.0000
vt 0.1458 -0.9913 0.0000
vt 0.0147 -0.9958 0.0000
vt 0.0171 -0.9590 0.0000
vt 0.0159 -0.9958 0.0000
vt 0.1450 -0.9913 0.0000
vt 0.0739 -0.0416 0.0000
vt 0.0042 -0.0635 0.0000
vt 0.0739 -0.0698 0.0000
vt 0.2578 -0.6062 0.0000
vt 0.2554 -0.1875 0.0000
vt 0.4286 -0.9655 0.0000
vt 0.6274 -0.1974 0.0000
vt 0.0340 -0.5287 0.0000
vt 0.3551 -0.5039 0.0000
vt 0.6932 0.2044 0.0000
vt 0.6792 0.0607 0.0000
vt 0.6792 0.2135 0.0000
vt 0.7164 0.1677 0.0000
vt 0.7165 0.1676 0.0000
vt 0.6792 0.2136 0.0000
vt 0.6792 0.0608 0.0000
vt 0.2268 -0.4381 0.0000
vt 0.2450 -0.3525 0.0000
vt 0.2268 -0.3525 0.0000
vt 0.0237 -0.7891 0.0000
vt 0.0792 -0.7109 0.0000
vt 0.1074 -0.0230 0.0000
vt 0.1258 -0.0882 0.0000
vt 0.1796 -0.0634 0.0000
vt 0.5727 -0.8499 0.0000
# 137 texture coords

g Bomber
s 2
f 1/1/1 2/2/2 3/3/3 
s 1
f 4/4/4 5/5/5 6/6/6 
s 8
f 7/7/7 8/8/8 1/9/9 
s 1
f 4/4/4 9/4/10 5/5/5 
s 2
f 10/10/11 3/3/3 11/10/12 
s 1
f 12/11/13 13/5/14 14/6/15 
f 1/12/16 15/13/17 16/14/18 
s 8
f 1/9/9 8/8/8 15/15/19 
s 4
f 17/11/20 5/5/21 18/16/22 
f 19/17/23 18/18/22 20/19/24 
s 8
f 7/7/7 21/15/25 22/8/26 
s 1
f 9/4/10 14/6/15 13/5/14 
s 16
f 23/20/27 24/21/28 25/22/29 
s 1
f 26/23/30 27/24/31 28/25/32 
s 2
f 29/22/33 30/21/34 31/20/35 
s 1
f 32/26/36 33/27/37 34/28/38 
s 4
f 35/29/39 36/30/40 37/31/41 
s 2
f 3/3/3 10/10/11 38/2/42 
s 4
f 34/23/43 33/25/44 39/24/45 
s 8
f 34/32/46 39/33/47 40/34/48 
s 1
f 41/26/49 26/28/30 28/27/32 
f 41/35/49 42/36/50 43/37/51 
f 44/38/52 16/39/18 45/40/53 
f 4/4/4 8/41/54 9/4/10 
f 32/26/36 46/42/55 33/27/37 
s 2
f 47/43/56 29/22/33 31/20/35 
s 1
f 41/26/49 28/27/32 48/42/57 
s 16
f 49/43/58 23/20/27 25/22/29 
s 1
f 50/44/59 51/45/60 52/14/61 
f 7/12/62 52/14/61 21/13/63 
s 8
f 42/34/64 27/33/65 43/46/66 
s 1
f 25/47/67 53/48/68 54/49/69 
s 2
f 7/1/70 3/3/3 38/2/42 
f 3/50/3 7/51/70 1/52/1 
s 4
f 12/11/71 35/53/39 13/5/72 
f 5/5/21 20/54/24 18/16/22 
s 1
f 6/6/6 5/5/5 17/11/73 
s 2
f 17/55/74 2/2/2 1/1/1 
s 4
f 29/47/75 40/49/76 55/48/77 
s 1
f 56/37/78 40/56/79 32/35/36 
f 22/41/80 9/4/10 8/41/54 
s 8
f 22/8/26 8/8/8 7/7/7 
s 2
f 23/57/81 57/58/82 53/59/83 
s 4
f 57/60/84 23/61/85 49/62/85 
s 8
f 58/60/86 47/62/86 31/61/86 
s 1
f 55/59/87 58/58/88 31/57/89 
s 4
f 35/63/39 12/64/71 36/65/40 
s 2
f 7/1/70 38/2/42 12/55/90 
f 11/66/12 19/67/91 10/68/11 
s 4
f 59/69/92 35/29/39 37/31/41 
s 2
f 57/60/82 27/70/93 53/48/83 
s 1
f 53/48/68 27/70/31 54/49/69 
f 58/60/88 55/48/87 39/70/94 
s 4
f 40/49/76 39/70/45 55/48/77 
s 2
f 19/67/91 11/66/12 60/71/95 
s 4
f 19/17/23 60/72/96 18/18/22 
s 1
f 43/73/51 26/28/30 41/26/49 
s 8
f 26/32/97 43/46/66 27/33/65 
f 56/46/98 34/32/46 40/34/48 
s 1
f 56/73/78 32/26/36 34/28/38 
s 4
f 33/25/44 58/74/99 39/24/45 
s 1
f 33/75/37 46/76/55 61/77/100 
f 27/24/31 57/74/101 28/25/32 
f 28/75/32 62/77/102 48/76/57 
f 7/12/62 9/4/10 52/14/61 
f 50/38/59 52/14/61 9/4/10 
f 49/78/103 63/79/104 57/80/101 
f 48/81/57 49/82/103 25/83/67 
s 4
f 47/78/105 58/80/99 64/79/106 
s 1
f 46/81/55 29/83/107 47/82/108 
s 2
f 10/84/11 37/85/109 38/86/42 
f 19/87/91 65/88/110 10/89/11 
s 1
f 18/90/111 60/91/112 2/92/113 
f 17/64/73 18/65/111 2/93/113 
f 16/39/18 66/94/114 45/40/53 
s 8
f 44/95/115 45/96/116 15/97/19 
f 50/98/117 21/99/25 51/100/118 
s 1
f 52/14/61 51/45/60 67/94/119 
f 35/101/120 59/102/121 68/103/122 
s 8
f 20/54/123 13/5/124 35/53/123 
s 1
f 59/102/121 65/88/125 19/87/126 
f 68/103/122 59/102/121 19/87/126 
f 25/83/67 42/36/50 41/35/49 
s 4
f 48/81/127 25/83/127 41/35/127 
f 32/35/128 29/83/75 46/81/128 
s 1
f 32/35/36 40/56/79 29/83/107 
f 4/4/4 1/12/16 16/14/18 
f 44/38/52 4/4/4 16/14/18 
s 4
f 58/80/99 61/104/129 64/79/106 
s 16
f 58/74/130 33/25/130 61/105/130 
s 1
f 63/79/104 62/104/102 57/80/101 
s 4
f 57/74/84 62/105/131 28/25/131 
s 1
f 30/106/132 55/59/87 31/57/89 
s 2
f 55/107/133 30/108/34 29/109/33 
f 24/106/134 23/57/81 53/59/83 
s 16
f 53/110/135 25/111/29 24/112/28 
f 59/113/136 37/114/136 65/115/136 
s 2
f 65/116/110 37/85/109 10/84/11 
s 8
f 8/8/8 44/117/115 15/15/19 
s 1
f 4/4/4 44/38/52 8/41/54 
f 62/77/102 63/118/104 48/76/57 
s 16
f 48/81/137 63/119/137 49/82/58 
s 1
f 46/76/55 64/118/138 61/77/100 
s 2
f 46/81/137 47/82/56 64/119/137 
f 7/120/70 12/11/90 14/6/139 
s 1
f 7/12/62 14/6/15 9/4/10 
f 9/4/10 22/41/80 50/38/59 
s 8
f 21/15/25 50/117/117 22/8/26 
s 2
f 1/120/1 6/6/140 17/11/74 
s 1
f 4/4/4 6/6/6 1/12/16 
s 2
f 11/10/12 3/3/3 2/2/2 
f 11/66/12 2/121/2 60/71/95 
s 1
f 9/4/10 13/5/14 5/5/5 
s 8
f 5/5/124 13/5/124 20/54/123 
s 2
f 15/122/141 66/123/141 16/124/141 
s 8
f 15/97/19 45/96/116 66/125/142 
f 21/99/25 67/126/143 51/100/118 
s 4
f 21/122/144 52/127/144 67/128/144 
s 16
f 19/129/145 20/130/145 68/131/145 
s 2
f 20/132/146 35/101/146 68/103/146 
s 1
f 12/64/13 38/93/147 36/65/148 
f 38/92/147 37/91/149 36/133/148 
s 8
f 42/134/64 54/135/150 27/136/65 
s 2
f 25/83/151 54/137/151 42/36/151 
# 0 polygons - 124 triangles

