# 3ds Max Wavefront OBJ Exporter v0.97b - (c)2007 guruware
# File Created: 10.03.2011 11:44:56

mtllib Huge_LOD3.mtl

#
# object 144
#

v  276.916626 -90.218697 1461.279053
v  276.916504 -90.218712 1152.943848
v  276.916504 51.795734 1152.943848
v  276.916626 51.795731 1461.279053
v  118.256027 -90.218712 1152.943970
v  60.585587 -90.218704 1461.279419
v  60.585587 51.795731 1461.279419
v  118.256027 51.795731 1152.943970
v  0.362424 95.904449 861.283386
v  0.362424 95.904465 653.141479
v  -454.810577 95.904472 653.141235
v  -304.716736 95.904449 861.282898
v  -140.923874 -208.112534 -651.434143
v  -140.924515 -208.112503 -1613.676758
v  0.362170 -208.112518 -1613.447144
v  0.362967 -208.112549 -651.434143
v  60.585831 51.795731 1654.682007
v  170.000351 51.795731 1654.682129
v  0.362424 -128.569885 1073.608154
v  0.362424 -128.569885 1169.618896
v  -208.882858 -128.569885 1169.618286
v  -208.882889 -128.569901 1073.607666
v  60.585831 -90.218719 1654.682007
v  0.362424 95.904465 1073.608154
v  -208.882889 95.904457 1073.607666
v  0.362424 95.904434 1169.618896
v  209.607193 95.904434 1169.618408
v  209.607193 95.904457 1073.607666
v  0.362170 -143.578598 -1661.157715
v  141.648895 -143.578598 -1661.157837
v  141.648849 -208.112503 -1613.676880
v  141.649780 -208.112518 -651.434143
v  141.649902 175.447205 -651.434143
v  141.650253 178.671616 476.682007
v  141.649597 -208.112503 476.682129
v  455.535309 95.904472 653.141174
v  305.441528 95.904457 861.282837
v  -101.966599 -128.569885 1363.021606
v  -101.966599 95.904449 1363.021606
v  -208.882858 95.904442 1169.618286
v  0.362424 -128.569885 1363.021606
v  170.000366 -90.218712 1654.682129
v  -304.716736 -128.569885 861.282898
v  0.362424 -128.569885 861.283508
v  0.362892 -208.112549 476.574005
v  0.362967 175.447128 -651.434143
v  0.362170 175.447189 -1613.677368
v  -140.924652 175.447220 -1613.676758
v  -140.924103 175.447174 -651.434143
v  0.362424 95.904457 1363.021606
v  -454.810577 -128.569885 653.141235
v  -454.810455 -128.569870 -335.662506
v  0.362531 -128.569885 -335.662262
v  0.362424 -128.569885 653.141479
v  141.648972 175.447235 -1613.676880
v  455.535400 95.904495 -335.662537
v  0.362531 95.904488 -335.662262
v  141.649139 110.913284 -1661.157837
v  209.607193 -128.569870 1169.618408
v  209.607193 -128.569870 1073.607666
v  102.690926 95.904457 1363.021484
v  -454.810455 95.904495 -335.662506
v  -276.192291 51.795734 1461.279175
v  -276.192291 -90.218712 1461.279175
v  -169.276016 -90.218712 1654.682129
v  -169.276031 51.795734 1654.682129
v  455.535400 -128.569885 -335.662537
v  455.535309 -128.569901 653.141174
v  305.441528 -128.569870 861.282837
v  0.362170 110.913284 -1661.157715
v  -276.192139 51.795727 1152.943848
v  -276.192139 -90.218719 1152.943848
v  0.362892 175.447189 476.574066
v  102.690926 -128.569901 1363.021484
v  -117.531693 -90.218719 1152.944092
v  -59.861256 -90.218704 1461.279663
v  -140.924805 110.913284 -1661.157715
v  -140.924561 -143.578613 -1661.157715
v  -59.861256 51.795734 1461.279663
v  -117.531693 51.795731 1152.944092
v  -140.925476 175.447205 476.682159
v  -59.861496 51.795734 1654.682007
v  -59.861496 -90.218719 1654.682007
v  -140.925476 -208.112534 476.682159
# 84 vertices

vn 0.731701 -0.654961 0.188785
vn 0.707107 -0.707107 -0.000000
vn 0.707107 0.707107 -0.000000
vn 0.731701 0.654961 0.188785
vn -0.655408 -0.745261 -0.122586
vn -0.723643 -0.686906 -0.067092
vn -0.723643 0.686906 -0.067092
vn -0.655408 0.745261 -0.122586
vn -0.000000 1.000000 0.000000
vn -0.727976 0.644033 0.235101
vn -0.591272 0.730376 0.341978
vn -0.707106 -0.707107 -0.000000
vn -0.600224 -0.663527 -0.446613
vn -0.000000 -0.830369 -0.557213
vn 0.000000 -1.000000 0.000000
vn -0.577350 0.577350 0.577350
vn 0.403088 0.608656 0.683416
vn 0.000000 -1.000000 -0.000000
vn -0.731701 -0.654961 0.188785
vn -0.638024 -0.757673 0.137318
vn -0.577350 -0.577350 0.577350
vn -0.638025 0.757673 0.137318
vn 0.638024 0.757673 0.137319
vn -0.000000 -0.192296 -0.981337
vn 0.666366 -0.143050 -0.731774
vn 0.600224 -0.663527 -0.446614
vn 0.707110 0.707104 -0.000146
vn 0.691356 0.722504 -0.003738
vn 0.707279 -0.706935 0.000000
vn 0.727976 0.644033 0.235101
vn 0.591272 0.730375 0.341979
vn -0.403089 -0.608656 0.683416
vn -0.403089 0.608656 0.683415
vn -0.731701 0.654961 0.188785
vn 0.000001 -0.707107 0.707107
vn 0.403089 -0.608656 0.683416
vn -0.591272 -0.730376 0.341978
vn -0.000000 1.000000 -0.000000
vn -0.000000 0.829630 -0.558313
vn -0.600418 0.663446 -0.446473
vn -0.707106 0.707107 -0.000000
vn 0.000000 0.707107 0.707107
vn -0.727976 -0.644033 0.235101
vn -0.577350 -0.577350 -0.577350
vn 0.000000 -0.707107 -0.707107
vn 0.600417 0.663446 -0.446473
vn 0.577350 0.577350 -0.577350
vn -0.000000 0.707107 -0.707107
vn 0.666368 0.143049 -0.731772
vn 0.638024 -0.757673 0.137319
vn 0.403089 0.608656 0.683415
vn -0.577350 0.577350 -0.577350
vn -0.403088 -0.608656 0.683416
vn -0.403089 0.608656 0.683416
vn 0.577350 -0.577350 -0.577350
vn 0.727976 -0.644033 0.235101
vn 0.591272 -0.730375 0.341978
vn -0.000000 0.191851 -0.981424
vn -0.707107 0.707107 -0.000000
vn -0.707107 -0.707107 -0.000000
vn -0.019002 0.999817 -0.002380
vn 0.403089 -0.608656 0.683415
vn 0.655407 -0.745261 -0.122586
vn 0.723643 -0.686906 -0.067092
vn -0.666368 0.143049 -0.731772
vn -0.666366 -0.143050 -0.731773
vn 0.723643 0.686906 -0.067092
vn 0.655407 0.745261 -0.122586
vn -0.707279 0.706934 -0.000001
vn 0.577350 0.577350 0.577350
vn 0.577350 -0.577350 0.577350
vn -0.707280 -0.706934 -0.000001
# 72 vertex normals

vt 0.595455 0.553608 0.000000
vt 0.431890 0.553608 0.000000
vt 0.431890 0.693947 0.000000
vt 0.595455 0.693947 0.000000
vt 0.848664 0.841489 0.000000
vt 0.848664 0.967426 0.000000
vt 0.680131 0.967426 0.000000
vt 0.680131 0.841489 0.000000
vt 0.364267 0.361220 0.000000
vt 0.625112 0.361220 0.000000
vt 0.625112 0.510144 0.000000
vt 0.364267 0.510144 0.000000
vt 0.561511 0.372746 0.000000
vt 0.320263 0.373200 0.000000
vt 0.320263 0.504942 0.000000
vt 0.561511 0.504488 0.000000
vt 0.317091 0.518934 0.000000
vt 0.033163 0.518934 0.000000
vt 0.033163 0.435793 0.000000
vt 0.317091 0.435793 0.000000
vt 0.850124 0.924713 0.000000
vt 0.850124 0.837596 0.000000
vt 0.725177 0.752468 0.000000
vt 0.725177 0.924713 0.000000
vt 0.799397 0.373338 0.000000
vt 0.692143 0.373338 0.000000
vt 0.692143 0.504942 0.000000
vt 0.799397 0.504942 0.000000
vt 0.725177 0.817051 0.000000
vt 0.848761 0.817050 0.000000
vt 0.848761 0.903245 0.000000
vt 0.725177 0.903245 0.000000
vt 0.799397 0.372951 0.000000
vt 0.561511 0.372951 0.000000
vt 0.561511 0.504942 0.000000
vt 0.535451 0.645877 0.000000
vt 0.535451 0.552126 0.000000
vt 0.474516 0.552126 0.000000
vt 0.474516 0.645876 0.000000
vt 0.440106 0.730915 0.000000
vt 0.440106 0.987899 0.000000
vt 0.047215 0.987899 0.000000
vt 0.047215 0.730915 0.000000
vt 0.358946 0.728928 0.000000
vt 0.078244 0.728928 0.000000
vt 0.078244 0.987144 0.000000
vt 0.358946 0.987144 0.000000
vt 0.476092 0.373338 0.000000
vt 0.476092 0.399058 0.000000
vt 0.963146 0.367257 0.000000
vt 0.848314 0.367257 0.000000
vt 0.848314 0.512895 0.000000
vt 0.963146 0.512895 0.000000
vt 0.317091 0.518935 0.000000
vt 0.493303 0.434834 0.000000
vt 0.686584 0.434834 0.000000
vt 0.686584 0.518934 0.000000
vt 0.493303 0.518934 0.000000
vt 0.048682 0.988888 0.000000
vt 0.295812 0.988888 0.000000
vt 0.295812 0.727616 0.000000
vt 0.048682 0.727616 0.000000
vt 0.048370 0.728928 0.000000
vt 0.048370 0.987144 0.000000
vt 0.849636 0.806937 0.000000
vt 0.796605 0.806937 0.000000
vt 0.796605 0.913785 0.000000
vt 0.849636 0.913785 0.000000
vt 0.880044 0.552779 0.000000
vt 0.447865 0.552779 0.000000
vt 0.447865 0.694484 0.000000
vt 0.880044 0.694484 0.000000
vt 0.271885 0.382658 0.000000
vt 0.271885 0.487011 0.000000
vt 0.321555 0.513472 0.000000
vt 0.321555 0.356197 0.000000
vt 0.829732 0.503650 0.000000
vt 0.829732 0.377012 0.000000
vt 0.980792 0.376489 0.000000
vt 0.980792 0.503127 0.000000
vt 0.444998 0.728046 0.000000
vt 0.444998 0.988888 0.000000
vt 0.048682 0.728046 0.000000
vt 0.290944 0.988888 0.000000
vt 0.290944 0.727616 0.000000
vt 0.317092 0.518934 0.000000
vt 0.317092 0.434834 0.000000
vt 0.493303 0.434835 0.000000
vt 0.088102 0.321465 0.000000
vt 0.088102 0.147024 0.000000
vt 0.450846 0.147024 0.000000
vt 0.450846 0.321465 0.000000
vt 0.320263 0.504488 0.000000
vt 0.320263 0.372746 0.000000
vt 0.561511 0.373200 0.000000
vt 0.607013 0.513472 0.000000
vt 0.607013 0.356197 0.000000
vt 0.754266 0.646640 0.000000
vt 0.870515 0.646640 0.000000
vt 0.870515 0.553520 0.000000
vt 0.754266 0.553520 0.000000
# 101 texture coords

g 144
usemtl 01___Default
s 1
f -84/-101/-72 -83/-100/-71 -82/-99/-70 -81/-98/-69 
f -80/-97/-68 -83/-96/-71 -84/-95/-72 -79/-94/-67 
f -80/-93/-68 -79/-92/-67 -78/-91/-66 -77/-90/-65 
f -76/-89/-64 -75/-88/-64 -74/-87/-63 -73/-86/-62 
f -72/-85/-61 -71/-84/-60 -70/-83/-59 -69/-82/-58 
f -68/-81/-57 -67/-80/-56 -81/-79/-69 -78/-78/-66 
f -66/-77/-58 -65/-76/-55 -64/-75/-54 -63/-74/-53 
f -79/-73/-67 -62/-72/-52 -68/-71/-57 -78/-70/-66 
f -61/-69/-64 -76/-68/-64 -73/-67/-62 -60/-74/-51 
f -59/-76/-64 -58/-75/-69 -57/-74/-50 -61/-77/-64 
f -56/-66/-49 -55/-65/-48 -54/-64/-47 -70/-63/-59 
f -53/-62/-71 -52/-61/-46 -51/-60/-45 -50/-59/-44 
f -49/-87/-43 -75/-88/-64 -76/-89/-64 -48/-86/-42 
f -70/-83/-59 -54/-84/-47 -53/-85/-71 -69/-82/-58 
f -64/-58/-54 -47/-57/-41 -46/-56/-40 -45/-55/-39 
f -65/-76/-55 -44/-54/-38 -47/-53/-41 -64/-75/-54 
f -62/-52/-52 -43/-51/-37 -67/-50/-56 -68/-49/-57 
f -63/-74/-53 -42/-67/-36 -41/-68/-58 -66/-69/-58 
f -69/-83/-58 -53/-84/-71 -50/-48/-44 -40/-82/-58 
f -39/-47/-35 -38/-46/-34 -37/-45/-33 -36/-44/-32 
f -60/-43/-51 -73/-42/-62 -42/-41/-36 -63/-40/-53 
f -46/-56/-40 -47/-57/-41 -44/-39/-38 -35/-38/-31 
f -63/-37/-53 -64/-36/-54 -45/-35/-39 -60/-34/-51 
f -34/-33/-30 -33/-32/-29 -32/-31/-28 -31/-30/-58 
f -43/-80/-37 -62/-81/-52 -79/-78/-67 -84/-79/-72 
f -30/-45/-27 -38/-46/-34 -39/-47/-35 -52/-44/-46 
f -29/-32/-26 -28/-31/-25 -75/-30/-64 -49/-33/-43 
f -55/-29/-48 -27/-28/-24 -30/-27/-27 -54/-26/-47 
f -26/-75/-72 -65/-76/-55 -66/-77/-58 -25/-74/-23 
f -35/-54/-31 -24/-53/-22 -58/-75/-69 -59/-76/-64 
f -75/-30/-64 -28/-31/-25 -23/-32/-21 -74/-33/-63 
f -48/-67/-42 -76/-68/-64 -61/-69/-64 -57/-74/-50 
f -22/-25/-39 -21/-24/-54 -20/-23/-20 -19/-22/-19 
f -18/-21/-18 -29/-20/-26 -49/-43/-43 -17/-19/-17 
f -17/-40/-17 -49/-43/-43 -48/-18/-42 -16/-17/-16 
f -27/-65/-24 -15/-66/-15 -38/-63/-34 -30/-64/-27 
f -32/-31/-28 -18/-32/-18 -17/-33/-17 -31/-30/-58 
f -14/-99/-14 -13/-100/-13 -21/-101/-54 -22/-98/-39 
f -52/-16/-46 -39/-15/-35 -12/-14/-12 -51/-44/-45 
f -24/-56/-22 -11/-57/-11 -26/-58/-72 -58/-55/-69 
f -11/-53/-11 -44/-54/-38 -65/-76/-55 -26/-75/-72 
f -41/-68/-58 -16/-67/-16 -25/-74/-23 -66/-69/-58 
f -16/-41/-16 -48/-42/-42 -57/-43/-50 -25/-40/-23 
f -44/-39/-38 -11/-57/-11 -24/-56/-22 -35/-38/-31 
f -78/-94/-66 -81/-95/-69 -82/-96/-70 -77/-97/-65 
f -21/-95/-54 -13/-96/-13 -10/-97/-10 -9/-94/-9 
f -28/-13/-25 -29/-12/-26 -18/-11/-18 -32/-10/-28 
f -31/-9/-58 -17/-8/-17 -16/-7/-16 -41/-67/-58 
f -54/-26/-47 -30/-27/-27 -52/-6/-46 -53/-5/-71 
f -37/-27/-33 -8/-28/-8 -7/-29/-7 -71/-26/-60 
f -74/-43/-63 -23/-20/-21 -33/-21/-29 -34/-19/-30 
f -73/-18/-62 -74/-43/-63 -34/-40/-30 -42/-17/-36 
f -38/-63/-34 -15/-66/-15 -8/-65/-8 -37/-64/-33 
f -6/-91/-6 -9/-92/-9 -10/-93/-10 -5/-90/-5 
f -58/-35/-69 -26/-36/-72 -25/-37/-23 -57/-34/-50 
f -56/-4/-49 -15/-3/-15 -27/-2/-24 -55/-1/-48 
f -43/-23/-37 -84/-24/-72 -81/-25/-69 -67/-22/-56 
f -12/-14/-12 -39/-15/-35 -36/-16/-32 -4/-44/-4 
f -45/-75/-39 -46/-53/-40 -35/-54/-31 -59/-76/-64 
f -3/-71/-3 -2/-72/-2 -9/-73/-9 -6/-70/-6 
f -22/-79/-39 -19/-80/-19 -3/-81/-3 -6/-78/-6 
f -60/-74/-51 -45/-75/-39 -59/-76/-64 -61/-77/-64 
f -19/-50/-19 -20/-51/-20 -2/-52/-2 -3/-49/-3 
f -14/-96/-14 -22/-95/-39 -6/-94/-6 -5/-97/-5 
f -33/-11/-29 -23/-12/-21 -28/-13/-25 -32/-10/-28 
f -42/-7/-36 -34/-8/-30 -31/-9/-58 -41/-67/-58 
f -36/-6/-32 -37/-27/-33 -71/-26/-60 -72/-5/-61 
f -8/-2/-8 -15/-3/-15 -56/-4/-49 -7/-1/-7 
f -9/-78/-9 -2/-81/-2 -20/-80/-20 -21/-79/-54 
f -71/-64/-60 -7/-65/-7 -56/-66/-49 -70/-63/-59 
f -1/-48/-1 -72/-84/-61 -69/-83/-58 -40/-82/-58 
f -4/-60/-4 -36/-61/-32 -72/-62/-61 -1/-59/-1 
# 72 polygons

