# 3ds Max Wavefront OBJ Exporter v0.97b - (c)2007 guruware
# File Created: 17.11.2010 11:45:22

mtllib terrakin_FighterMK2_HIGH.mtl

#
# object FighterMK2
#

v  -0.071093 0.315047 -0.251243
v  -2.007220 0.201664 -0.251243
v  -2.007220 0.427805 -0.000000
v  -0.071093 0.475248 0.000000
v  -2.007220 0.201664 0.251242
v  -0.071093 0.315047 0.251243
v  -0.071093 -0.475248 -0.000000
v  -2.154848 -0.416279 -0.000001
v  -2.154847 -0.190138 -0.251243
v  -0.071093 -0.249107 -0.251243
v  -0.071093 -0.249107 0.251243
v  -2.154847 -0.190139 0.251242
v  -0.863536 -0.251241 0.378870
v  -0.863536 -0.335741 0.378870
v  -1.938784 -0.335743 0.378869
v  -1.938784 -0.251242 0.378869
v  -1.938785 0.251243 -0.479159
v  -1.938785 0.335743 -0.548712
v  -1.938784 0.000001 -0.874311
v  -1.938784 0.000001 -0.722811
v  -1.938785 0.251243 -0.378870
v  -1.938785 0.335743 -0.378870
v  1.357301 0.315047 -0.251242
v  1.357300 0.475248 -0.000000
v  1.357301 0.315047 0.251242
v  -0.863537 0.000000 0.722810
v  -0.863537 0.000000 0.874311
v  -0.863536 -0.335741 0.548711
v  -1.938784 -0.335743 0.548711
v  -1.938785 0.000000 0.874310
v  -1.938785 0.000000 0.722810
v  -0.863536 0.000001 -0.722811
v  -0.863536 0.000001 -0.874311
v  -0.863536 0.335743 -0.548712
v  -0.863536 0.251242 -0.479158
v  -1.938785 0.335743 0.548711
v  -1.938785 0.251243 0.378870
v  2.167621 -0.249107 0.251242
v  2.167621 -0.475248 -0.000000
v  2.167622 -0.249107 -0.251242
v  -0.863536 0.251242 0.378870
v  -0.863536 0.335742 0.378870
v  -0.863536 0.335742 0.548711
v  -1.938784 -0.251242 -0.378871
v  -1.938784 -0.335742 -0.548712
v  -1.938784 -0.335742 -0.378871
v  -0.863536 -0.335741 -0.378870
v  -0.863536 -0.251241 -0.378870
v  0.424923 0.251242 -0.479158
v  0.424923 0.251242 -0.378870
v  0.424922 0.000000 -0.378870
v  0.424922 0.000000 -0.479245
v  -0.863536 -0.335741 -0.548712
v  0.424923 -0.251241 -0.378870
v  0.424923 -0.251241 -0.479158
v  -0.863536 0.335742 -0.378870
v  -0.863536 0.251242 -0.378870
v  -1.938785 0.335743 0.378870
v  1.297700 0.319690 0.121978
v  1.297700 -0.249108 0.121978
v  1.297700 -0.249108 -0.121979
v  1.297700 0.319690 -0.121979
v  -0.071093 -0.249107 0.121978
v  -0.071093 0.319689 0.121978
v  -0.071093 0.319689 -0.121978
v  -0.071093 -0.249107 -0.121978
v  -0.881915 0.360778 -0.335743
v  0.137958 0.360778 -0.335742
v  0.137958 0.249107 -0.335742
v  -0.881915 0.249107 -0.335743
v  -0.881916 0.574860 -0.000000
v  0.137957 0.574860 -0.000000
v  -0.881915 0.360778 0.335743
v  0.137958 0.360778 0.335741
v  -0.881915 0.249107 0.335743
v  0.137958 0.249107 0.335741
v  -0.881915 -0.360778 -0.335743
v  0.137958 -0.360778 -0.335742
v  0.137957 -0.574860 -0.000001
v  -0.881916 -0.574860 -0.000000
v  -0.881915 -0.249107 -0.335743
v  0.137958 -0.249107 -0.335742
v  -0.881915 -0.360778 0.335742
v  0.137958 -0.360778 0.335741
v  0.137958 -0.249107 0.335741
v  -0.881915 -0.249107 0.335742
v  -0.881916 0.249107 -0.251243
v  0.137958 0.249107 -0.251242
v  -0.881916 0.475248 -0.000000
v  0.137957 0.475248 -0.000000
v  -0.881915 0.249107 0.251242
v  0.137958 0.249107 0.251241
v  -0.881916 -0.249107 -0.251243
v  -0.881916 -0.475248 -0.000000
v  0.137957 -0.475248 -0.000001
v  0.137958 -0.249107 -0.251242
v  -0.881915 -0.249107 0.251242
v  0.137958 -0.249107 0.251241
v  -1.083938 0.251243 0.479158
v  -2.167621 0.208909 0.479158
v  -2.167622 0.000000 0.722810
v  -1.083938 -0.000000 0.722810
v  -2.167621 -0.208908 0.479158
v  -1.083938 -0.251243 0.479158
v  -1.083938 0.000000 -0.722811
v  -2.167621 0.000001 -0.722811
v  -2.167621 0.208909 -0.479159
v  -1.083938 0.251243 -0.479158
v  -1.083937 -0.251242 -0.479159
v  -2.167621 -0.208908 -0.479159
v  0.424922 0.251242 0.479158
v  0.087693 0.000000 0.722810
v  0.424922 0.000000 0.479322
v  -2.167621 0.208909 0.378870
v  -1.083938 0.251243 0.378870
v  -2.167622 0.000000 0.378870
v  0.424922 -0.251242 0.479158
v  -2.167621 -0.208908 0.378869
v  -1.083938 -0.251243 0.378870
v  0.087694 0.000001 -0.722810
v  -2.167621 0.208909 -0.378871
v  -2.167621 0.000001 -0.378871
v  -1.083938 0.251243 -0.378870
v  -2.167621 -0.208908 -0.378871
v  -1.083937 -0.251242 -0.378870
v  -2.167621 0.208909 -0.000001
v  -1.083938 0.251243 -0.000000
v  -2.167621 -0.208908 -0.000001
v  -1.083937 -0.251243 -0.000000
v  0.424922 0.251242 0.378870
v  0.424922 0.000000 0.378870
v  -1.083938 0.000000 0.378870
v  0.424922 -0.251241 0.378870
v  -1.083938 0.000000 -0.378870
v  0.359176 0.121979 -0.378871
v  0.359176 0.121979 0.378871
v  0.359176 -0.121978 0.378871
v  0.359176 -0.121977 -0.378871
v  -1.083938 0.121978 0.378870
v  -1.083938 0.121979 -0.378870
v  -1.083937 -0.121978 -0.378870
v  -1.083938 -0.121978 0.378870
# 142 vertices

vn 0.434311 0.354666 -0.828001
vn -0.202171 0.387632 -0.899371
vn -0.610180 0.792244 0.005519
vn -0.015371 0.999875 0.003675
vn -0.194029 0.393516 0.898609
vn 0.428153 0.360310 0.828771
vn -0.010914 -0.999940 -0.000000
vn -0.606965 -0.794729 -0.000000
vn -0.255262 -0.516937 -0.817079
vn 0.403680 -0.267912 -0.874794
vn 0.403680 -0.267913 0.874794
vn -0.255262 -0.516937 0.817078
vn 0.798288 0.000003 -0.602276
vn 0.577352 -0.577349 -0.577350
vn -0.577350 -0.577350 -0.577350
vn -0.798289 -0.000000 -0.602275
vn -1.000000 -0.000000 0.000000
vn -0.640073 0.725634 -0.252511
vn -0.566153 -0.000000 -0.824300
vn -1.000000 -0.000000 -0.000000
vn -0.707107 -0.000000 0.707107
vn -0.577350 0.577350 0.577350
vn 0.540339 -0.189925 -0.819733
vn 0.620226 0.784423 0.000000
vn 0.540339 -0.189925 0.819733
vn 1.000000 0.000000 -0.000000
vn 0.566153 0.000000 0.824300
vn 0.640074 -0.725633 0.252511
vn -0.640072 -0.725635 0.252511
vn -0.566154 -0.000000 0.824299
vn -1.000000 -0.000001 -0.000000
vn 1.000000 0.000001 0.000001
vn 0.566154 0.000000 -0.824299
vn 0.640073 0.725634 -0.252511
vn 1.000000 -0.000001 -0.000000
vn -0.640072 0.725635 0.252512
vn -0.798289 0.000000 -0.602275
vn 0.542877 0.250109 0.801704
vn 0.598758 -0.800930 0.000000
vn 0.542878 0.250109 -0.801704
vn 0.798289 -0.000001 -0.602275
vn 0.577352 0.577349 -0.577350
vn 0.640073 0.725634 0.252512
vn -0.798289 -0.000000 0.602275
vn -0.640072 -0.725635 -0.252512
vn -0.577350 -0.577351 0.577350
vn 0.577352 -0.577349 0.577350
vn 0.798288 0.000003 0.602276
vn 0.657958 0.634235 -0.406003
vn 0.577351 0.577349 0.577351
vn 0.707106 -0.000000 0.707107
vn 0.891237 0.000000 -0.453538
vn 0.640074 -0.725633 -0.252511
vn 0.577351 -0.577350 0.577350
vn 0.657958 -0.634234 -0.406003
vn 0.577351 0.577349 0.577350
vn 0.707106 -0.000002 0.707107
vn -0.577350 0.577351 -0.577350
vn 0.707108 -0.000000 0.707106
vn 0.707106 0.000000 -0.707108
vn 0.707106 0.000000 -0.707107
vn 0.000000 -0.000000 1.000000
vn -0.000000 0.000000 -1.000000
vn -0.605149 0.421348 -0.675471
vn 0.605150 0.421348 -0.675470
vn 0.577352 -0.577350 -0.577349
vn -0.577350 -0.577350 -0.577351
vn -0.620228 0.784422 0.000000
vn 0.620227 0.784422 -0.000000
vn -0.605148 0.421348 0.675472
vn 0.605150 0.421347 0.675470
vn -0.577349 -0.577350 0.577352
vn 0.577351 -0.577350 0.577349
vn -0.605149 -0.421348 -0.675471
vn 0.605150 -0.421348 -0.675470
vn 0.620227 -0.784422 -0.000000
vn -0.620228 -0.784422 0.000000
vn -0.577350 0.577350 -0.577351
vn 0.577352 0.577350 -0.577349
vn -0.605148 -0.421348 0.675471
vn 0.605150 -0.421348 0.675470
vn 0.577351 0.577350 0.577349
vn -0.577349 0.577350 0.577352
vn -0.850204 -0.526453 -0.000000
vn 0.850204 -0.526453 0.000001
vn -1.000000 0.000000 0.000000
vn 1.000000 -0.000001 0.000000
vn -0.850205 -0.526452 0.000002
vn 0.850204 -0.526453 -0.000001
vn -0.850204 0.526453 -0.000000
vn -1.000000 -0.000000 0.000001
vn 1.000000 0.000001 -0.000000
vn 0.850204 0.526453 0.000001
vn -0.850205 0.526452 0.000002
vn 0.850204 0.526453 -0.000001
vn -0.009145 0.945937 0.324220
vn -0.658615 0.720467 0.217148
vn -0.565047 -0.006536 0.825033
vn -0.007982 -0.003635 0.999962
vn -0.654679 -0.722005 0.223840
vn -0.014251 -0.944691 0.327652
vn -0.007981 0.003635 -0.999962
vn -0.565046 0.006536 -0.825033
vn -0.654680 0.722004 -0.223840
vn -0.014251 0.944691 -0.327652
vn -0.009145 -0.945937 -0.324220
vn -0.658615 -0.720467 -0.217148
vn 0.657940 0.634291 0.405943
vn 0.138403 0.000000 0.990376
vn 0.891155 -0.000000 0.453698
vn -0.717719 0.696332 0.000000
vn -0.019129 0.948481 -0.316257
vn 0.657940 -0.634291 0.405943
vn -0.717719 -0.696333 -0.000000
vn -0.019129 -0.948481 -0.316257
vn 0.138435 0.000000 -0.990372
vn -0.717719 0.696332 -0.000000
vn -0.019129 0.948481 0.316257
vn -0.019129 -0.948481 0.316257
vn -0.717720 0.696332 -0.000000
vn -0.030243 0.999543 0.000000
vn -0.717720 -0.696332 -0.000000
vn -0.030243 -0.999543 -0.000000
vn 0.577351 0.577349 -0.577350
vn 0.707107 0.000000 -0.707107
vn 0.000000 0.000000 -1.000000
vn 0.577351 -0.577349 -0.577351
vn -0.000000 -0.000000 1.000000
vn 0.707106 0.707107 0.000000
vn 0.707107 0.707107 0.000000
vn 0.707107 -0.707106 -0.000000
vn 0.707107 -0.707106 0.000000
vn -0.000000 1.000000 0.000000
vn 0.000000 -1.000000 -0.000000
# 134 vertex normals

vt 0.849986 0.667140 0.000000
vt 0.849986 0.742507 0.000000
vt 0.867925 0.742507 0.000000
vt 0.867925 0.667140 0.000000
vt 0.673678 0.742434 0.000000
vt 0.673678 0.731531 0.000000
vt 0.762132 0.731531 0.000000
vt 0.762132 0.742434 0.000000
vt 0.908575 0.786989 0.000000
vt 0.894573 0.804000 0.000000
vt 0.829023 0.736408 0.000000
vt 0.859523 0.736408 0.000000
vt 0.928765 0.786989 0.000000
vt 0.928765 0.804000 0.000000
vt 0.719364 0.868281 0.000000
vt 0.694011 0.842137 0.000000
vt 0.719364 0.815994 0.000000
vt 0.918670 0.685828 0.000000
vt 0.928765 0.736408 0.000000
vt 0.694099 0.736888 0.000000
vt 0.673678 0.736888 0.000000
vt 0.717565 0.793859 0.000000
vt 0.726941 0.779521 0.000000
vt 0.908575 0.685828 0.000000
vt 0.894573 0.668816 0.000000
vt 0.733699 0.779521 0.000000
vt 0.740458 0.793859 0.000000
vt 0.679167 0.593540 0.000000
vt 0.625000 0.593540 0.000000
vt 0.625000 0.406460 0.000000
vt 0.679167 0.406460 0.000000
vt 0.842602 0.742507 0.000000
vt 0.814708 0.742507 0.000000
vt 0.814708 0.667140 0.000000
vt 0.842602 0.667140 0.000000
vt 0.928765 0.668816 0.000000
vt 0.708929 0.868281 0.000000
vt 0.719364 0.842137 0.000000
vt 0.708920 0.842137 0.000000
vt 0.708929 0.815994 0.000000
vt 0.740458 0.779521 0.000000
vt 0.667159 0.216931 0.000000
vt 0.906726 0.216931 0.000000
vt 0.906727 0.258206 0.000000
vt 0.667159 0.258206 0.000000
vt 0.911493 0.243744 0.000000
vt 0.671926 0.243744 0.000000
vt 0.671926 0.286305 0.000000
vt 0.911493 0.286305 0.000000
vt 0.350913 0.254469 0.000000
vt 0.255585 0.254468 0.000000
vt 0.255585 0.230900 0.000000
vt 0.350913 0.230900 0.000000
vt 0.918670 0.786989 0.000000
vt 0.720858 0.874557 0.000000
vt 0.720858 0.995619 0.000000
vt 0.640409 0.995619 0.000000
vt 0.640409 0.874557 0.000000
vt 0.875731 0.736009 0.000000
vt 0.787277 0.736009 0.000000
vt 0.787277 0.757923 0.000000
vt 0.875731 0.757923 0.000000
vt 0.875731 0.693998 0.000000
vt 0.787277 0.693998 0.000000
vt 0.335360 0.865098 0.000000
vt 0.476512 0.865098 0.000000
vt 0.476512 0.815094 0.000000
vt 0.335360 0.815094 0.000000
vt 0.683575 0.842137 0.000000
vt 0.708911 0.842137 0.000000
vt 0.928765 0.685828 0.000000
vt 0.133970 0.993503 0.000000
vt 0.008666 0.993503 0.000000
vt 0.008666 0.862451 0.000000
vt 0.133970 0.862451 0.000000
vt 0.906726 0.259492 0.000000
vt 0.667159 0.259491 0.000000
vt 0.906727 0.216931 0.000000
vt 0.906727 0.275195 0.000000
vt 0.667159 0.275195 0.000000
vt 0.906727 0.259492 0.000000
vt 0.335360 0.882253 0.000000
vt 0.400771 0.882253 0.000000
vt 0.400771 0.815095 0.000000
# 84 texture coords

g FighterMK2
usemtl 01___Default
s 1
f -142/-84/-134 -141/-83/-133 -140/-82/-132 -139/-81/-131 
f -139/-81/-131 -140/-82/-132 -138/-83/-130 -137/-84/-129 
f -136/-81/-128 -135/-82/-127 -134/-83/-126 -133/-84/-125 
f -132/-84/-124 -131/-83/-123 -135/-82/-127 -136/-81/-128 
f -130/-80/-122 -129/-79/-121 -128/-78/-120 -127/-77/-119 
f -126/-76/-118 -125/-75/-117 -124/-74/-116 -123/-73/-115 
f -122/-72/-114 -121/-71/-113 -125/-75/-117 -126/-76/-118 
f -120/-70/-112 -119/-69/-111 -118/-68/-110 
f -138/-67/-130 -140/-73/-132 -141/-66/-133 
f -117/-65/-109 -116/-64/-108 -115/-63/-107 -130/-62/-122 
f -127/-61/-119 -114/-60/-106 -113/-74/-105 -112/-73/-104 
f -111/-65/-103 -110/-64/-102 -109/-63/-101 -108/-62/-100 
f -112/-73/-104 -113/-74/-105 -107/-75/-99 -106/-76/-98 
f -105/-68/-97 -104/-69/-96 -103/-70/-95 
f -102/-59/-94 -101/-58/-93 -100/-63/-92 
f -134/-66/-126 -135/-73/-127 -131/-67/-123 
f -133/-57/-125 -142/-56/-134 -137/-55/-129 -132/-54/-124 
f -134/-53/-126 -141/-52/-133 -142/-51/-134 -133/-50/-125 
f -99/-67/-91 -98/-60/-90 -97/-49/-89 
f -99/-77/-91 -97/-78/-89 -96/-79/-88 -95/-80/-87 
f -94/-48/-86 -93/-70/-85 -92/-47/-84 -91/-46/-83 
f -95/-59/-87 -96/-58/-88 -90/-63/-82 
f -91/-46/-83 -92/-47/-84 -89/-68/-81 -88/-45/-80 
f -132/-50/-124 -137/-51/-129 -138/-52/-130 -131/-53/-123 
f -108/-62/-100 -109/-63/-101 -87/-58/-79 -86/-44/-78 
f -130/-59/-122 -115/-63/-107 -129/-58/-121 
f -139/-43/-131 -119/-42/-111 -120/-41/-112 -142/-40/-134 
f -142/-39/-134 -120/-38/-112 -118/-37/-110 -137/-36/-129 
f -137/-40/-129 -118/-41/-110 -119/-42/-111 -139/-43/-131 
f -127/-67/-119 -128/-49/-120 -114/-60/-106 
f -86/-80/-78 -87/-79/-79 -121/-78/-113 -122/-77/-114 
f -133/-40/-125 -103/-41/-95 -104/-42/-96 -136/-43/-128 
f -102/-62/-94 -100/-63/-92 -116/-64/-108 -117/-65/-109 
f -132/-35/-124 -105/-34/-97 -103/-33/-95 -133/-32/-125 
f -106/-77/-98 -85/-78/-77 -101/-79/-93 -102/-80/-94 
f -136/-43/-128 -104/-42/-96 -105/-41/-97 -132/-40/-124 
f -106/-31/-98 -107/-75/-99 -85/-71/-77 
f -84/-30/-76 -83/-29/-76 -82/-28/-75 -81/-27/-74 
f -123/-73/-115 -124/-74/-116 -98/-60/-90 -99/-61/-91 
f -98/-26/-90 -90/-25/-82 -96/-24/-88 -97/-23/-89 
f -124/-22/-116 -110/-21/-102 -90/-25/-82 -98/-26/-90 
f -95/-62/-87 -90/-63/-82 -110/-64/-102 -111/-65/-103 
f -80/-20/-73 -83/-19/-76 -84/-18/-76 -79/-17/-73 
f -78/-17/-72 -81/-18/-74 -82/-19/-75 -77/-20/-72 
f -76/-26/-71 -75/-25/-70 -74/-24/-69 -73/-23/-68 
f -72/-22/-67 -71/-21/-66 -75/-25/-70 -76/-26/-71 
f -70/-26/-65 -69/-25/-64 -71/-21/-66 -72/-22/-67 
f -68/-23/-63 -67/-24/-62 -69/-25/-64 -70/-26/-65 
f -66/-26/-61 -65/-25/-60 -64/-21/-59 -63/-22/-58 
f -62/-23/-57 -61/-24/-56 -65/-25/-60 -66/-26/-61 
f -60/-26/-55 -59/-25/-54 -58/-24/-53 -57/-23/-52 
f -63/-22/-58 -64/-21/-59 -59/-25/-54 -60/-26/-55 
f -56/-31/-51 -76/-75/-71 -73/-71/-68 
f -55/-59/-50 -74/-58/-69 -75/-63/-70 
f -56/-77/-51 -73/-78/-68 -74/-79/-69 -55/-80/-50 
f -54/-73/-49 -72/-74/-67 -76/-75/-71 -56/-76/-51 
f -55/-62/-50 -75/-63/-70 -71/-64/-66 -53/-65/-48 
f -52/-61/-47 -70/-60/-65 -72/-74/-67 -54/-73/-49 
f -53/-65/-48 -71/-64/-66 -69/-63/-64 -51/-62/-46 
f -52/-67/-47 -68/-49/-63 -70/-60/-65 
f -51/-80/-46 -67/-79/-62 -68/-78/-63 -52/-77/-47 
f -51/-59/-46 -69/-63/-64 -67/-58/-62 
f -50/-76/-45 -66/-75/-61 -63/-74/-58 -49/-73/-44 
f -48/-65/-43 -64/-64/-59 -65/-63/-60 -47/-62/-42 
f -50/-31/-45 -62/-71/-57 -66/-75/-61 
f -47/-80/-42 -61/-79/-56 -62/-78/-57 -50/-77/-45 
f -47/-59/-42 -65/-63/-60 -61/-58/-56 
f -46/-67/-41 -60/-60/-55 -57/-49/-52 
f -45/-59/-40 -58/-58/-53 -59/-63/-54 
f -46/-77/-41 -57/-78/-52 -58/-79/-53 -45/-80/-40 
f -49/-73/-44 -63/-74/-58 -60/-60/-55 -46/-61/-41 
f -45/-62/-40 -59/-63/-54 -64/-64/-59 -48/-65/-43 
f -44/-84/-39 -43/-83/-38 -42/-82/-37 -41/-81/-36 
f -41/-81/-36 -42/-82/-37 -40/-83/-35 -39/-84/-34 
f -38/-81/-33 -37/-82/-32 -36/-83/-31 -35/-84/-30 
f -34/-84/-29 -33/-83/-28 -37/-82/-32 -38/-81/-33 
f -32/-48/-27 -31/-16/-26 -30/-15/-25 
f -29/-53/-24 -43/-83/-38 -44/-84/-39 -28/-50/-23 
f -27/-66/-104 -42/-73/-37 -43/-76/-38 -29/-72/-24 
f -30/-15/-25 -31/-16/-26 -26/-45/-22 
f -25/-14/-21 -40/-61/-35 -42/-73/-37 -27/-66/-104 
f -24/-50/-20 -39/-84/-34 -40/-83/-35 -25/-53/-21 
f -91/-46/-83 -23/-16/-19 -94/-48/-86 
f -22/-72/-18 -36/-76/-31 -37/-73/-32 -21/-66/-104 
f -20/-50/-17 -35/-84/-30 -36/-83/-31 -22/-53/-18 
f -88/-45/-80 -23/-16/-19 -91/-46/-83 
f -19/-53/-21 -33/-83/-28 -34/-84/-29 -18/-50/-16 
f -21/-66/-104 -37/-73/-32 -33/-61/-28 -19/-14/-21 
f -113/-22/-105 -116/-21/-108 -100/-25/-92 -107/-26/-99 
f -22/-53/-18 -17/-52/-15 -16/-51/-14 -20/-50/-17 
f -114/-26/-106 -115/-25/-107 -116/-21/-108 -113/-22/-105 
f -25/-53/-21 -15/-52/-13 -14/-51/-12 -24/-50/-20 
f -29/-13/-24 -17/-12/-15 -15/-11/-13 -25/-10/-21 
f -28/-50/-23 -16/-51/-14 -17/-52/-15 -29/-53/-24 
f -19/-10/-21 -15/-11/-13 -17/-12/-15 -22/-13/-18 
f -18/-50/-16 -14/-51/-12 -15/-52/-13 -19/-53/-21 
f -28/-9/-23 -13/-8/-11 -12/-43/-10 -11/-7/-9 
f -44/-40/-39 -32/-41/-27 -13/-6/-11 -28/-5/-23 
f -41/-43/-36 -31/-42/-26 -32/-41/-27 -44/-40/-39 
f -11/-7/-9 -12/-43/-10 -10/-8/-8 -24/-4/-20 
f -39/-40/-34 -26/-41/-22 -31/-42/-26 -41/-43/-36 
f -24/-5/-20 -10/-6/-8 -26/-41/-22 -39/-40/-34 
f -9/-7/-7 -92/-43/-84 -93/-8/-85 -20/-4/-17 
f -35/-40/-30 -94/-41/-86 -23/-42/-19 -38/-43/-33 
f -20/-5/-17 -93/-6/-85 -94/-41/-86 -35/-40/-30 
f -18/-4/-16 -89/-8/-81 -92/-43/-84 -9/-7/-7 
f -34/-40/-29 -88/-41/-80 -89/-6/-81 -18/-5/-16 
f -38/-43/-33 -23/-42/-19 -88/-41/-80 -34/-40/-29 
f -8/-17/-6 -7/-3/-5 -6/-2/-4 -5/-1/-3 
f -121/-23/-113 -87/-24/-79 -109/-25/-101 -125/-26/-117 
f -26/-45/-22 -10/-68/-8 -12/-47/-10 -30/-15/-25 
f -4/-20/-2 -7/-19/-5 -8/-18/-6 -3/-17/-2 
f -2/-17/-1 -5/-18/-3 -6/-19/-4 -1/-20/-1 
f -30/-15/-25 -12/-47/-10 -13/-70/-11 -32/-48/-27 
f -128/-23/-120 -129/-24/-121 -115/-25/-107 -114/-26/-106 
f -125/-26/-117 -109/-25/-101 -110/-21/-102 -124/-22/-116 
f -107/-26/-99 -100/-25/-92 -101/-24/-93 -85/-23/-77 
# 95 polygons - 22 triangles

