# XSI Wavefront OBJ Export v3.0
# File Created: Tue Apr 20 19:41:55 2010
# XSI Version: 7.0.609.0
mtllib planet_disc_16.mtl

o Torus01
# Hierarchy (from self to top father)
g Torus01

#begin 48 vertices
v 0.000000 0.000000 -2.500000
v 0.000000 0.085614 -1.000000
v 0.000000 -0.085614 -1.000000
v 0.956709 0.000000 -2.309699
v 0.382683 0.085614 -0.923879
v 0.382683 -0.085614 -0.923880
v 1.767767 0.000000 -1.767767
v 0.707107 0.085614 -0.707107
v 0.707107 -0.085614 -0.707107
v 2.309699 0.000000 -0.956708
v 0.923880 0.085614 -0.382683
v 0.923880 -0.085614 -0.382683
v 2.500000 0.000000 0.000000
v 1.000000 0.085614 0.000000
v 1.000000 -0.085614 0.000000
v 2.309699 0.000000 0.956709
v 0.923879 0.085614 0.382683
v 0.923880 -0.085614 0.382684
v 1.767767 0.000000 1.767767
v 0.707107 0.085614 0.707107
v 0.707107 -0.085614 0.707107
v 0.956708 0.000000 2.309699
v 0.382683 0.085614 0.923880
v 0.382683 -0.085614 0.923880
v 0.000000 0.000000 2.500000
v 0.000000 0.085614 1.000000
v 0.000000 -0.085614 1.000000
v -0.956709 0.000000 2.309699
v -0.382684 0.085614 0.923879
v -0.382684 -0.085614 0.923880
v -1.767767 0.000000 1.767766
v -0.707107 0.085614 0.707107
v -0.707107 -0.085614 0.707107
v -2.309699 0.000000 0.956708
v -0.923880 0.085614 0.382683
v -0.923880 -0.085614 0.382683
v -2.500000 0.000000 0.000000
v -1.000000 0.085614 0.000000
v -1.000000 -0.085614 0.000000
v -2.309699 0.000000 -0.956709
v -0.923879 0.085614 -0.382683
v -0.923880 -0.085614 -0.382683
v -1.767767 0.000000 -1.767767
v -0.707107 0.085614 -0.707107
v -0.707107 -0.085614 -0.707107
v -0.956709 0.000000 -2.309699
v -0.382684 0.085614 -0.923879
v -0.382684 -0.085614 -0.923880
#end 48 vertices

#begin 192 normals
vn 0.003778 0.998368 -0.056983
vn 0.018316 0.998368 -0.054091
vn 0.025297 0.998368 -0.051199
vn 0.003778 0.998368 -0.056983
vn -0.003778 0.998368 -0.056983
vn 0.018316 0.998368 -0.054091
vn 0.003778 -0.998368 -0.056983
vn 0.018316 -0.998368 -0.054091
vn 0.025297 -0.998368 -0.051199
vn 0.003778 -0.998368 -0.056983
vn -0.003778 -0.998368 -0.056983
vn 0.018316 -0.998368 -0.054091
vn 0.025297 0.998368 -0.051199
vn 0.037621 0.998368 -0.042965
vn 0.042965 0.998368 -0.037621
vn 0.025297 0.998368 -0.051199
vn 0.018316 0.998368 -0.054091
vn 0.037621 0.998368 -0.042965
vn 0.025297 -0.998368 -0.051199
vn 0.037621 -0.998368 -0.042965
vn 0.042965 -0.998368 -0.037621
vn 0.025297 -0.998368 -0.051199
vn 0.018316 -0.998368 -0.054091
vn 0.037621 -0.998368 -0.042965
vn 0.042965 0.998368 -0.037621
vn 0.051199 0.998368 -0.025297
vn 0.054091 0.998368 -0.018316
vn 0.042965 0.998368 -0.037621
vn 0.037621 0.998368 -0.042965
vn 0.051199 0.998368 -0.025297
vn 0.042965 -0.998368 -0.037621
vn 0.051199 -0.998368 -0.025297
vn 0.054091 -0.998368 -0.018316
vn 0.042965 -0.998368 -0.037621
vn 0.037621 -0.998368 -0.042965
vn 0.051199 -0.998368 -0.025297
vn 0.054091 0.998368 -0.018316
vn 0.056983 0.998368 -0.003778
vn 0.056983 0.998368 0.003778
vn 0.054091 0.998368 -0.018316
vn 0.051199 0.998368 -0.025297
vn 0.056983 0.998368 -0.003778
vn 0.054091 -0.998368 -0.018316
vn 0.056983 -0.998368 -0.003778
vn 0.056983 -0.998368 0.003778
vn 0.054091 -0.998368 -0.018316
vn 0.051199 -0.998368 -0.025297
vn 0.056983 -0.998368 -0.003778
vn 0.056983 0.998368 0.003778
vn 0.054091 0.998368 0.018316
vn 0.051199 0.998368 0.025297
vn 0.056983 0.998368 0.003778
vn 0.056983 0.998368 -0.003778
vn 0.054091 0.998368 0.018316
vn 0.056983 -0.998368 0.003778
vn 0.054091 -0.998368 0.018316
vn 0.051199 -0.998368 0.025297
vn 0.056983 -0.998368 0.003778
vn 0.056983 -0.998368 -0.003778
vn 0.054091 -0.998368 0.018316
vn 0.051199 0.998368 0.025297
vn 0.042965 0.998368 0.037621
vn 0.037621 0.998368 0.042965
vn 0.051199 0.998368 0.025297
vn 0.054091 0.998368 0.018316
vn 0.042965 0.998368 0.037621
vn 0.051199 -0.998368 0.025297
vn 0.042965 -0.998368 0.037621
vn 0.037621 -0.998368 0.042965
vn 0.051199 -0.998368 0.025297
vn 0.054091 -0.998368 0.018316
vn 0.042965 -0.998368 0.037621
vn 0.037621 0.998368 0.042965
vn 0.025297 0.998368 0.051199
vn 0.018316 0.998368 0.054091
vn 0.037621 0.998368 0.042965
vn 0.042965 0.998368 0.037621
vn 0.025297 0.998368 0.051199
vn 0.037621 -0.998368 0.042965
vn 0.025297 -0.998368 0.051199
vn 0.018316 -0.998368 0.054091
vn 0.037621 -0.998368 0.042965
vn 0.042965 -0.998368 0.037621
vn 0.025297 -0.998368 0.051199
vn 0.018316 0.998368 0.054091
vn 0.003778 0.998368 0.056983
vn -0.003778 0.998368 0.056983
vn 0.018316 0.998368 0.054091
vn 0.025297 0.998368 0.051199
vn 0.003778 0.998368 0.056983
vn 0.018316 -0.998368 0.054091
vn 0.003778 -0.998368 0.056983
vn -0.003778 -0.998368 0.056983
vn 0.018316 -0.998368 0.054091
vn 0.025297 -0.998368 0.051199
vn 0.003778 -0.998368 0.056983
vn -0.003778 0.998368 0.056983
vn -0.018316 0.998368 0.054091
vn -0.025297 0.998368 0.051199
vn -0.003778 0.998368 0.056983
vn 0.003778 0.998368 0.056983
vn -0.018316 0.998368 0.054091
vn -0.003778 -0.998368 0.056983
vn -0.018316 -0.998368 0.054091
vn -0.025297 -0.998368 0.051199
vn -0.003778 -0.998368 0.056983
vn 0.003778 -0.998368 0.056983
vn -0.018316 -0.998368 0.054091
vn -0.025297 0.998368 0.051199
vn -0.037621 0.998368 0.042965
vn -0.042965 0.998368 0.037621
vn -0.025297 0.998368 0.051199
vn -0.018316 0.998368 0.054091
vn -0.037621 0.998368 0.042965
vn -0.025297 -0.998368 0.051199
vn -0.037621 -0.998368 0.042965
vn -0.042965 -0.998368 0.037621
vn -0.025297 -0.998368 0.051199
vn -0.018316 -0.998368 0.054091
vn -0.037621 -0.998368 0.042965
vn -0.042965 0.998368 0.037621
vn -0.051199 0.998368 0.025297
vn -0.054091 0.998368 0.018316
vn -0.042965 0.998368 0.037621
vn -0.037621 0.998368 0.042965
vn -0.051199 0.998368 0.025297
vn -0.042965 -0.998368 0.037621
vn -0.051199 -0.998368 0.025297
vn -0.054091 -0.998368 0.018316
vn -0.042965 -0.998368 0.037621
vn -0.037621 -0.998368 0.042965
vn -0.051199 -0.998368 0.025297
vn -0.054091 0.998368 0.018316
vn -0.056983 0.998368 0.003778
vn -0.056983 0.998368 -0.003778
vn -0.054091 0.998368 0.018316
vn -0.051199 0.998368 0.025297
vn -0.056983 0.998368 0.003778
vn -0.054091 -0.998368 0.018316
vn -0.056983 -0.998368 0.003778
vn -0.056983 -0.998368 -0.003778
vn -0.054091 -0.998368 0.018316
vn -0.051199 -0.998368 0.025297
vn -0.056983 -0.998368 0.003778
vn -0.056983 0.998368 -0.003778
vn -0.054091 0.998368 -0.018316
vn -0.051199 0.998368 -0.025297
vn -0.056983 0.998368 -0.003778
vn -0.056983 0.998368 0.003778
vn -0.054091 0.998368 -0.018316
vn -0.056983 -0.998368 -0.003778
vn -0.054091 -0.998368 -0.018316
vn -0.051199 -0.998368 -0.025297
vn -0.056983 -0.998368 -0.003778
vn -0.056983 -0.998368 0.003778
vn -0.054091 -0.998368 -0.018316
vn -0.051199 0.998368 -0.025297
vn -0.042965 0.998368 -0.037621
vn -0.037621 0.998368 -0.042965
vn -0.051199 0.998368 -0.025297
vn -0.054091 0.998368 -0.018316
vn -0.042965 0.998368 -0.037621
vn -0.051199 -0.998368 -0.025297
vn -0.042965 -0.998368 -0.037621
vn -0.037621 -0.998368 -0.042965
vn -0.051199 -0.998368 -0.025297
vn -0.054091 -0.998368 -0.018316
vn -0.042965 -0.998368 -0.037621
vn -0.037621 0.998368 -0.042965
vn -0.025297 0.998368 -0.051199
vn -0.018316 0.998368 -0.054091
vn -0.037621 0.998368 -0.042965
vn -0.042965 0.998368 -0.037621
vn -0.025297 0.998368 -0.051199
vn -0.037621 -0.998368 -0.042965
vn -0.025297 -0.998368 -0.051199
vn -0.018316 -0.998368 -0.054091
vn -0.037621 -0.998368 -0.042965
vn -0.042965 -0.998368 -0.037621
vn -0.025297 -0.998368 -0.051199
vn -0.018316 0.998368 -0.054091
vn -0.003778 0.998368 -0.056983
vn 0.003778 0.998368 -0.056983
vn -0.018316 0.998368 -0.054091
vn -0.025297 0.998368 -0.051199
vn -0.003778 0.998368 -0.056983
vn -0.018316 -0.998368 -0.054091
vn -0.003778 -0.998368 -0.056983
vn 0.003778 -0.998368 -0.056983
vn -0.018316 -0.998368 -0.054091
vn -0.025297 -0.998368 -0.051199
vn -0.003778 -0.998368 -0.056983
#end 192 vertex normals

#begin texture vertices
vt 1.000012 1.000020 0.000000
vt 0.000012 1.000020 0.000000
vt -0.000020 0.000012 0.000000
vt 0.999980 0.000012 0.000000
vt -0.000020 0.000012 0.000000
vt 0.999980 0.000012 0.000000
vt 1.000012 1.000020 0.000000
vt 0.000012 1.000020 0.000000
vt 0.062480 0.000012 0.000000
vt 0.062512 1.000020 0.000000
vt 0.062480 0.000012 0.000000
vt 0.062512 1.000020 0.000000
vt 0.124980 0.000012 0.000000
vt 0.125012 1.000020 0.000000
vt 0.124980 0.000012 0.000000
vt 0.125012 1.000020 0.000000
vt 0.187480 0.000012 0.000000
vt 0.187512 1.000020 0.000000
vt 0.187480 0.000012 0.000000
vt 0.187512 1.000020 0.000000
vt 0.249980 0.000012 0.000000
vt 0.250012 1.000020 0.000000
vt 0.249980 0.000012 0.000000
vt 0.250012 1.000020 0.000000
vt 0.312480 0.000012 0.000000
vt 0.312512 1.000020 0.000000
vt 0.312480 0.000012 0.000000
vt 0.312512 1.000020 0.000000
vt 0.374980 0.000012 0.000000
vt 0.375012 1.000020 0.000000
vt 0.374980 0.000012 0.000000
vt 0.375012 1.000020 0.000000
vt 0.437480 0.000012 0.000000
vt 0.437512 1.000020 0.000000
vt 0.437480 0.000012 0.000000
vt 0.437512 1.000020 0.000000
vt 0.499980 0.000012 0.000000
vt 0.500012 1.000020 0.000000
vt 0.499980 0.000012 0.000000
vt 0.500012 1.000020 0.000000
vt 0.562480 0.000012 0.000000
vt 0.562512 1.000020 0.000000
vt 0.562480 0.000012 0.000000
vt 0.562512 1.000020 0.000000
vt 0.624980 0.000012 0.000000
vt 0.625012 1.000020 0.000000
vt 0.624980 0.000012 0.000000
vt 0.625012 1.000020 0.000000
vt 0.687480 0.000012 0.000000
vt 0.687512 1.000020 0.000000
vt 0.687480 0.000012 0.000000
vt 0.687512 1.000020 0.000000
vt 0.749980 0.000012 0.000000
vt 0.750012 1.000020 0.000000
vt 0.749980 0.000012 0.000000
vt 0.750012 1.000020 0.000000
vt 0.812480 0.000012 0.000000
vt 0.812512 1.000020 0.000000
vt 0.812480 0.000012 0.000000
vt 0.812512 1.000020 0.000000
vt 0.874980 0.000012 0.000000
vt 0.875012 1.000020 0.000000
vt 0.874980 0.000012 0.000000
vt 0.875012 1.000020 0.000000
vt 0.937480 0.000012 0.000000
vt 0.937512 1.000020 0.000000
vt 0.937480 0.000012 0.000000
vt 0.937512 1.000020 0.000000
#end 68 texture vertices

#begin 64 faces
usemtl material1
f 1/2/1 5/11/2 4/10/3 
usemtl material1
f 1/2/4 2/5/5 5/11/6 
usemtl material1
f 3/8/7 4/9/8 6/12/9 
usemtl material1
f 3/8/10 1/3/11 4/9/12 
usemtl material1
f 4/10/13 8/15/14 7/14/15 
usemtl material1
f 4/10/16 5/11/17 8/15/18 
usemtl material1
f 6/12/19 7/13/20 9/16/21 
usemtl material1
f 6/12/22 4/9/23 7/13/24 
usemtl material1
f 7/14/25 11/19/26 10/18/27 
usemtl material1
f 7/14/28 8/15/29 11/19/30 
usemtl material1
f 9/16/31 10/17/32 12/20/33 
usemtl material1
f 9/16/34 7/13/35 10/17/36 
usemtl material1
f 10/18/37 14/23/38 13/22/39 
usemtl material1
f 10/18/40 11/19/41 14/23/42 
usemtl material1
f 12/20/43 13/21/44 15/24/45 
usemtl material1
f 12/20/46 10/17/47 13/21/48 
usemtl material1
f 13/22/49 17/27/50 16/26/51 
usemtl material1
f 13/22/52 14/23/53 17/27/54 
usemtl material1
f 15/24/55 16/25/56 18/28/57 
usemtl material1
f 15/24/58 13/21/59 16/25/60 
usemtl material1
f 16/26/61 20/31/62 19/30/63 
usemtl material1
f 16/26/64 17/27/65 20/31/66 
usemtl material1
f 18/28/67 19/29/68 21/32/69 
usemtl material1
f 18/28/70 16/25/71 19/29/72 
usemtl material1
f 19/30/73 23/35/74 22/34/75 
usemtl material1
f 19/30/76 20/31/77 23/35/78 
usemtl material1
f 21/32/79 22/33/80 24/36/81 
usemtl material1
f 21/32/82 19/29/83 22/33/84 
usemtl material1
f 22/34/85 26/39/86 25/38/87 
usemtl material1
f 22/34/88 23/35/89 26/39/90 
usemtl material1
f 24/36/91 25/37/92 27/40/93 
usemtl material1
f 24/36/94 22/33/95 25/37/96 
usemtl material1
f 25/38/97 29/43/98 28/42/99 
usemtl material1
f 25/38/100 26/39/101 29/43/102 
usemtl material1
f 27/40/103 28/41/104 30/44/105 
usemtl material1
f 27/40/106 25/37/107 28/41/108 
usemtl material1
f 28/42/109 32/47/110 31/46/111 
usemtl material1
f 28/42/112 29/43/113 32/47/114 
usemtl material1
f 30/44/115 31/45/116 33/48/117 
usemtl material1
f 30/44/118 28/41/119 31/45/120 
usemtl material1
f 31/46/121 35/51/122 34/50/123 
usemtl material1
f 31/46/124 32/47/125 35/51/126 
usemtl material1
f 33/48/127 34/49/128 36/52/129 
usemtl material1
f 33/48/130 31/45/131 34/49/132 
usemtl material1
f 34/50/133 38/55/134 37/54/135 
usemtl material1
f 34/50/136 35/51/137 38/55/138 
usemtl material1
f 36/52/139 37/53/140 39/56/141 
usemtl material1
f 36/52/142 34/49/143 37/53/144 
usemtl material1
f 37/54/145 41/59/146 40/58/147 
usemtl material1
f 37/54/148 38/55/149 41/59/150 
usemtl material1
f 39/56/151 40/57/152 42/60/153 
usemtl material1
f 39/56/154 37/53/155 40/57/156 
usemtl material1
f 40/58/157 44/63/158 43/62/159 
usemtl material1
f 40/58/160 41/59/161 44/63/162 
usemtl material1
f 42/60/163 43/61/164 45/64/165 
usemtl material1
f 42/60/166 40/57/167 43/61/168 
usemtl material1
f 43/62/169 47/67/170 46/66/171 
usemtl material1
f 43/62/172 44/63/173 47/67/174 
usemtl material1
f 45/64/175 46/65/176 48/68/177 
usemtl material1
f 45/64/178 43/61/179 46/65/180 
usemtl material1
f 46/66/181 2/6/182 1/1/183 
usemtl material1
f 46/66/184 47/67/185 2/6/186 
usemtl material1
f 48/68/187 1/4/188 3/7/189 
usemtl material1
f 48/68/190 46/65/191 1/4/192 
#end 64 faces
