# XSI Wavefront OBJ Export v3.0
# File Created: Tue Apr 20 19:44:51 2010
# XSI Version: 7.0.609.0
mtllib planet_disc_8.mtl

o Torus03
# Hierarchy (from self to top father)
g Torus03

#begin 24 vertices
v 0.000000 0.000000 -2.500000
v 0.000000 0.085614 -1.000000
v 0.000000 -0.085614 -1.000000
v 1.767767 0.000000 -1.767767
v 0.707107 0.085614 -0.707107
v 0.707107 -0.085614 -0.707107
v 2.500000 0.000000 0.000000
v 1.000000 0.085614 0.000000
v 1.000000 -0.085614 0.000000
v 1.767767 0.000000 1.767767
v 0.707107 0.085614 0.707107
v 0.707107 -0.085614 0.707107
v 0.000000 0.000000 2.500000
v 0.000000 0.085614 1.000000
v 0.000000 -0.085614 1.000000
v -1.767767 0.000000 1.767767
v -0.707107 0.085614 0.707107
v -0.707107 -0.085614 0.707107
v -2.500000 0.000000 0.000000
v -1.000000 0.085614 0.000000
v -1.000000 -0.085614 0.000000
v -1.767767 0.000000 -1.767767
v -0.707107 0.085614 -0.707107
v -0.707107 -0.085614 -0.707107
#end 24 vertices

#begin 96 normals
vn 0.007867 0.998344 -0.056982
vn 0.034729 0.998344 -0.045855
vn 0.045855 0.998344 -0.034729
vn 0.007867 0.998344 -0.056982
vn -0.007868 0.998344 -0.056982
vn 0.034729 0.998344 -0.045855
vn 0.007868 -0.998344 -0.056982
vn 0.034729 -0.998344 -0.045855
vn 0.045855 -0.998344 -0.034729
vn 0.007868 -0.998344 -0.056982
vn -0.007867 -0.998344 -0.056982
vn 0.034729 -0.998344 -0.045855
vn 0.045855 0.998344 -0.034729
vn 0.056982 0.998344 -0.007868
vn 0.056982 0.998344 0.007867
vn 0.045855 0.998344 -0.034729
vn 0.034729 0.998344 -0.045855
vn 0.056982 0.998344 -0.007868
vn 0.045855 -0.998344 -0.034729
vn 0.056982 -0.998344 -0.007867
vn 0.056982 -0.998344 0.007868
vn 0.045855 -0.998344 -0.034729
vn 0.034729 -0.998344 -0.045855
vn 0.056982 -0.998344 -0.007867
vn 0.056982 0.998344 0.007867
vn 0.045855 0.998344 0.034729
vn 0.034729 0.998344 0.045855
vn 0.056982 0.998344 0.007867
vn 0.056982 0.998344 -0.007868
vn 0.045855 0.998344 0.034729
vn 0.056982 -0.998344 0.007868
vn 0.045855 -0.998344 0.034729
vn 0.034729 -0.998344 0.045855
vn 0.056982 -0.998344 0.007868
vn 0.056982 -0.998344 -0.007867
vn 0.045855 -0.998344 0.034729
vn 0.034729 0.998344 0.045855
vn 0.007868 0.998344 0.056982
vn -0.007867 0.998344 0.056982
vn 0.034729 0.998344 0.045855
vn 0.045855 0.998344 0.034729
vn 0.007868 0.998344 0.056982
vn 0.034729 -0.998344 0.045855
vn 0.007867 -0.998344 0.056982
vn -0.007868 -0.998344 0.056982
vn 0.034729 -0.998344 0.045855
vn 0.045855 -0.998344 0.034729
vn 0.007867 -0.998344 0.056982
vn -0.007867 0.998344 0.056982
vn -0.034729 0.998344 0.045855
vn -0.045855 0.998344 0.034729
vn -0.007867 0.998344 0.056982
vn 0.007868 0.998344 0.056982
vn -0.034729 0.998344 0.045855
vn -0.007868 -0.998344 0.056982
vn -0.034729 -0.998344 0.045855
vn -0.045855 -0.998344 0.034729
vn -0.007868 -0.998344 0.056982
vn 0.007867 -0.998344 0.056982
vn -0.034729 -0.998344 0.045855
vn -0.045855 0.998344 0.034729
vn -0.056982 0.998344 0.007868
vn -0.056982 0.998344 -0.007867
vn -0.045855 0.998344 0.034729
vn -0.034729 0.998344 0.045855
vn -0.056982 0.998344 0.007868
vn -0.045855 -0.998344 0.034729
vn -0.056982 -0.998344 0.007867
vn -0.056982 -0.998344 -0.007868
vn -0.045855 -0.998344 0.034729
vn -0.034729 -0.998344 0.045855
vn -0.056982 -0.998344 0.007867
vn -0.056982 0.998344 -0.007867
vn -0.045855 0.998344 -0.034729
vn -0.034729 0.998344 -0.045855
vn -0.056982 0.998344 -0.007867
vn -0.056982 0.998344 0.007868
vn -0.045855 0.998344 -0.034729
vn -0.056982 -0.998344 -0.007868
vn -0.045855 -0.998344 -0.034729
vn -0.034729 -0.998344 -0.045855
vn -0.056982 -0.998344 -0.007868
vn -0.056982 -0.998344 0.007867
vn -0.045855 -0.998344 -0.034729
vn -0.034729 0.998344 -0.045855
vn -0.007868 0.998344 -0.056982
vn 0.007867 0.998344 -0.056982
vn -0.034729 0.998344 -0.045855
vn -0.045855 0.998344 -0.034729
vn -0.007868 0.998344 -0.056982
vn -0.034729 -0.998344 -0.045855
vn -0.007867 -0.998344 -0.056982
vn 0.007868 -0.998344 -0.056982
vn -0.034729 -0.998344 -0.045855
vn -0.045855 -0.998344 -0.034729
vn -0.007867 -0.998344 -0.056982
#end 96 vertex normals

#begin texture vertices
vt 0.000000 1.000000 0.000000
vt 0.000000 0.000000 0.000000
vt 1.000000 0.000000 0.000000
vt 1.000000 1.000000 0.000000
vt 1.000000 0.000000 0.000000
vt 1.000000 1.000000 0.000000
vt 0.000000 1.000000 0.000000
vt 0.000000 0.000000 0.000000
vt 1.000000 0.125000 0.000000
vt 0.000000 0.125000 0.000000
vt 1.000000 0.125000 0.000000
vt 0.000000 0.125000 0.000000
vt 1.000000 0.250000 0.000000
vt 0.000000 0.250000 0.000000
vt 1.000000 0.250000 0.000000
vt 0.000000 0.250000 0.000000
vt 1.000000 0.375000 0.000000
vt 0.000000 0.375000 0.000000
vt 1.000000 0.375000 0.000000
vt 0.000000 0.375000 0.000000
vt 1.000000 0.500000 0.000000
vt 0.000000 0.500000 0.000000
vt 1.000000 0.500000 0.000000
vt 0.000000 0.500000 0.000000
vt 1.000000 0.625000 0.000000
vt 0.000000 0.625000 0.000000
vt 1.000000 0.625000 0.000000
vt 0.000000 0.625000 0.000000
vt 1.000000 0.750000 0.000000
vt 0.000000 0.750000 0.000000
vt 1.000000 0.750000 0.000000
vt 0.000000 0.750000 0.000000
vt 1.000000 0.875000 0.000000
vt 0.000000 0.875000 0.000000
vt 1.000000 0.875000 0.000000
vt 0.000000 0.875000 0.000000
#end 36 texture vertices

#begin 32 faces
usemtl scene_material
f 1/2/1 5/11/2 4/10/3 
usemtl scene_material
f 1/2/4 2/5/5 5/11/6 
usemtl scene_material
f 3/8/7 4/9/8 6/12/9 
usemtl scene_material
f 3/8/10 1/3/11 4/9/12 
usemtl scene_material
f 4/10/13 8/15/14 7/14/15 
usemtl scene_material
f 4/10/16 5/11/17 8/15/18 
usemtl scene_material
f 6/12/19 7/13/20 9/16/21 
usemtl scene_material
f 6/12/22 4/9/23 7/13/24 
usemtl scene_material
f 7/14/25 11/19/26 10/18/27 
usemtl scene_material
f 7/14/28 8/15/29 11/19/30 
usemtl scene_material
f 9/16/31 10/17/32 12/20/33 
usemtl scene_material
f 9/16/34 7/13/35 10/17/36 
usemtl scene_material
f 10/18/37 14/23/38 13/22/39 
usemtl scene_material
f 10/18/40 11/19/41 14/23/42 
usemtl scene_material
f 12/20/43 13/21/44 15/24/45 
usemtl scene_material
f 12/20/46 10/17/47 13/21/48 
usemtl scene_material
f 13/22/49 17/27/50 16/26/51 
usemtl scene_material
f 13/22/52 14/23/53 17/27/54 
usemtl scene_material
f 15/24/55 16/25/56 18/28/57 
usemtl scene_material
f 15/24/58 13/21/59 16/25/60 
usemtl scene_material
f 16/26/61 20/31/62 19/30/63 
usemtl scene_material
f 16/26/64 17/27/65 20/31/66 
usemtl scene_material
f 18/28/67 19/29/68 21/32/69 
usemtl scene_material
f 18/28/70 16/25/71 19/29/72 
usemtl scene_material
f 19/30/73 23/35/74 22/34/75 
usemtl scene_material
f 19/30/76 20/31/77 23/35/78 
usemtl scene_material
f 21/32/79 22/33/80 24/36/81 
usemtl scene_material
f 21/32/82 19/29/83 22/33/84 
usemtl scene_material
f 22/34/85 2/6/86 1/1/87 
usemtl scene_material
f 22/34/88 23/35/89 2/6/90 
usemtl scene_material
f 24/36/91 1/4/92 3/7/93 
usemtl scene_material
f 24/36/94 22/33/95 1/4/96 
#end 32 faces
